<svg width="1190" height="213" viewBox="0 0 1190 213" fill="none" xmlns="http://www.w3.org/2000/svg">
<rect x="2.33325" y="2.33337" width="1185.33" height="208" rx="62" stroke="#0F223C" stroke-width="4"/>
<path d="M170.394 83.4143V86.0259C170.394 93.4254 169.763 99.345 168.5 103.785C167.282 108.181 165.475 111.707 163.081 114.362C160.731 117.017 157.815 119.454 154.333 121.674C151.634 123.459 149.196 125.243 147.02 127.028C144.844 128.813 143.124 130.749 141.862 132.839C140.6 134.928 139.969 137.3 139.969 139.955C139.969 142.567 140.578 144.83 141.797 146.746C143.016 148.704 144.67 150.206 146.759 151.251C148.892 152.339 151.242 152.883 153.81 152.883C156.378 152.883 158.772 152.295 160.992 151.12C163.255 149.988 165.084 148.312 166.476 146.093C167.913 143.916 168.653 141.326 168.696 138.323H198.73C198.599 147.464 196.466 154.95 192.331 160.783C188.24 166.659 182.799 170.99 176.009 173.776C169.262 176.561 161.776 177.954 153.549 177.954C144.626 177.954 136.661 176.561 129.653 173.776C122.645 170.99 117.139 166.877 113.135 161.436C109.13 156.038 107.128 149.379 107.128 141.457C107.128 136.234 107.998 131.664 109.739 127.746C111.481 123.785 113.896 120.303 116.987 117.3C120.121 114.253 123.777 111.511 127.955 109.073C131.263 107.071 133.984 105.047 136.117 103.001C138.249 100.955 139.86 98.5833 140.948 95.8846C142.036 93.1425 142.58 89.8562 142.58 86.0259V83.4143H170.394ZM155.965 40.584C160.666 40.584 164.692 42.2381 168.043 45.5461C171.395 48.8106 173.027 52.815 172.94 57.5594C173.027 62.1733 171.395 66.1124 168.043 69.3769C164.692 72.6414 160.666 74.2737 155.965 74.2737C151.482 74.2737 147.542 72.6414 144.147 69.3769C140.796 66.1124 139.076 62.1733 138.989 57.5594C139.033 54.382 139.838 51.5092 141.405 48.9412C143.016 46.3731 145.105 44.3491 147.673 42.8692C150.241 41.3458 153.005 40.584 155.965 40.584Z" fill="#E4C76A"/>
<path d="M170.394 83.4143H174.071V79.7371H170.394V83.4143ZM168.5 103.785L164.963 102.779L164.96 102.791L164.957 102.802L168.5 103.785ZM163.081 114.362L160.35 111.899L160.339 111.912L160.328 111.924L163.081 114.362ZM154.333 121.674L152.356 118.574L152.33 118.59L152.304 118.607L154.333 121.674ZM147.02 127.028L144.688 124.185L147.02 127.028ZM141.862 132.839L138.715 130.937L141.862 132.839ZM141.797 146.746L144.919 144.803L144.909 144.787L144.899 144.771L141.797 146.746ZM146.759 151.251L148.43 147.975L148.417 147.968L148.403 147.962L146.759 151.251ZM160.992 151.12L159.348 147.831L159.309 147.85L159.272 147.87L160.992 151.12ZM166.476 146.093L163.407 144.067L163.384 144.102L163.362 144.138L166.476 146.093ZM168.696 138.323V134.646H165.072L165.02 138.27L168.696 138.323ZM198.73 138.323L202.406 138.376L202.46 134.646H198.73V138.323ZM192.331 160.783L189.332 158.656L189.323 158.669L189.314 158.682L192.331 160.783ZM176.009 173.776L174.613 170.374L174.605 170.377L176.009 173.776ZM129.653 173.776L131.011 170.359L129.653 173.776ZM113.135 161.436L116.096 159.256L116.088 159.245L113.135 161.436ZM109.739 127.746L113.1 129.24L113.103 129.233L113.106 129.226L109.739 127.746ZM116.987 117.3L119.549 119.937L119.55 119.936L116.987 117.3ZM127.955 109.073L129.808 112.249L129.834 112.234L129.859 112.219L127.955 109.073ZM136.117 103.001L133.571 100.348H133.571L136.117 103.001ZM140.948 95.8846L144.358 97.2598L144.362 97.2504L144.366 97.2409L140.948 95.8846ZM142.58 83.4143V79.7371H138.903V83.4143H142.58ZM168.043 45.5461L165.46 48.1632L165.469 48.1717L165.478 48.1802L168.043 45.5461ZM172.94 57.5594L169.264 57.492L169.262 57.5604L169.264 57.6288L172.94 57.5594ZM168.043 69.3769L170.609 72.011L168.043 69.3769ZM144.147 69.3769L141.582 72.011L141.59 72.0193L141.599 72.0275L144.147 69.3769ZM138.989 57.5594L135.313 57.5091L135.312 57.5689L135.313 57.6288L138.989 57.5594ZM141.405 48.9412L138.29 46.9875L138.278 47.0066L138.266 47.0259L141.405 48.9412ZM147.673 42.8692L149.509 46.0552L149.529 46.0436L149.549 46.0317L147.673 42.8692ZM166.717 83.4143V86.0259H174.071V83.4143H166.717ZM166.717 86.0259C166.717 93.2636 166.094 98.8024 164.963 102.779L172.037 104.79C173.431 99.8876 174.071 93.5872 174.071 86.0259H166.717ZM164.957 102.802C163.85 106.796 162.272 109.768 160.35 111.899L165.812 116.824C168.679 113.645 170.714 109.566 172.044 104.767L164.957 102.802ZM160.328 111.924C158.238 114.285 155.596 116.508 152.356 118.574L156.309 124.775C160.034 122.401 163.224 119.748 165.835 116.799L160.328 111.924ZM152.304 118.607C149.516 120.451 146.975 122.31 144.688 124.185L149.352 129.871C151.418 128.177 153.752 126.467 156.361 124.741L152.304 118.607ZM144.688 124.185C142.237 126.195 140.224 128.44 138.715 130.937L145.009 134.74C146.025 133.059 147.45 131.431 149.352 129.871L144.688 124.185ZM138.715 130.937C137.076 133.65 136.292 136.691 136.292 139.955H143.646C143.646 137.91 144.124 136.206 145.009 134.74L138.715 130.937ZM136.292 139.955C136.292 143.159 137.047 146.13 138.695 148.72L144.899 144.771C144.11 143.531 143.646 141.975 143.646 139.955H136.292ZM138.675 148.688C140.257 151.231 142.426 153.195 145.114 154.539L148.403 147.962C146.913 147.217 145.774 146.177 144.919 144.803L138.675 148.688ZM145.088 154.526C147.775 155.897 150.704 156.56 153.81 156.56V149.206C151.78 149.206 150.008 148.78 148.43 147.975L145.088 154.526ZM153.81 156.56C156.964 156.56 159.95 155.832 162.713 154.37L159.272 147.87C157.594 148.758 155.792 149.206 153.81 149.206V156.56ZM162.637 154.409C165.525 152.964 167.853 150.817 169.591 148.047L163.362 144.138C162.314 145.808 160.986 147.012 159.348 147.831L162.637 154.409ZM169.545 148.118C171.425 145.271 172.321 141.973 172.373 138.376L165.02 138.27C164.985 140.68 164.401 142.562 163.407 144.067L169.545 148.118ZM168.696 142H198.73V134.646H168.696V142ZM195.053 138.271C194.93 146.874 192.93 153.58 189.332 158.656L195.331 162.91C200.002 156.321 202.268 148.053 202.406 138.376L195.053 138.271ZM189.314 158.682C185.637 163.962 180.766 167.849 174.613 170.374L177.404 177.178C184.832 174.13 190.843 169.356 195.349 162.884L189.314 158.682ZM174.605 170.377C168.357 172.957 161.355 174.277 153.549 174.277V181.631C162.196 181.631 170.167 180.166 177.412 177.174L174.605 170.377ZM153.549 174.277C145.008 174.277 137.515 172.944 131.011 170.359L128.295 177.193C135.806 180.179 144.245 181.631 153.549 181.631V174.277ZM131.011 170.359C124.566 167.797 119.646 164.08 116.096 159.256L110.173 163.615C114.632 169.673 120.724 174.183 128.295 177.193L131.011 170.359ZM116.088 159.245C112.633 154.589 110.805 148.735 110.805 141.457H103.451C103.451 150.022 105.627 157.488 110.181 163.627L116.088 159.245ZM110.805 141.457C110.805 136.638 111.608 132.596 113.1 129.24L106.379 126.253C104.389 130.731 103.451 135.829 103.451 141.457H110.805ZM113.106 129.226C114.657 125.697 116.8 122.608 119.549 119.937L114.424 114.663C110.992 117.998 108.304 121.873 106.373 126.266L113.106 129.226ZM119.55 119.936C122.448 117.118 125.86 114.552 129.808 112.249L126.103 105.897C121.693 108.469 117.793 111.388 114.423 114.663L119.55 119.936ZM129.859 112.219C133.332 110.117 136.285 107.935 138.662 105.655L133.571 100.348C131.683 102.159 129.195 104.025 126.051 105.927L129.859 112.219ZM138.662 105.655C141.164 103.255 143.073 100.449 144.358 97.2598L137.538 94.5095C136.647 96.7178 135.335 98.6562 133.571 100.348L138.662 105.655ZM144.366 97.2409C145.668 93.9595 146.257 90.1888 146.257 86.0259H138.903C138.903 89.5236 138.404 92.3255 137.53 94.5284L144.366 97.2409ZM146.257 86.0259V83.4143H138.903V86.0259H146.257ZM142.58 87.0914H170.394V79.7371H142.58V87.0914ZM155.965 44.2612C159.697 44.2612 162.796 45.533 165.46 48.1632L170.626 42.929C166.588 38.9431 161.634 36.9069 155.965 36.9069V44.2612ZM165.478 48.1802C168.09 50.7248 169.332 53.7465 169.264 57.492L176.617 57.6269C176.722 51.8836 174.7 46.8963 170.609 42.912L165.478 48.1802ZM169.264 57.6288C169.331 61.2108 168.113 64.1761 165.478 66.7428L170.609 72.011C174.677 68.0487 176.723 63.1357 176.617 57.4901L169.264 57.6288ZM165.478 66.7428C162.816 69.335 159.712 70.5965 155.965 70.5965V77.9508C161.619 77.9508 166.567 75.9479 170.609 72.011L165.478 66.7428ZM155.965 70.5965C152.484 70.5965 149.444 69.369 146.696 66.7263L141.599 72.0275C145.64 75.9138 150.479 77.9508 155.965 77.9508V70.5965ZM146.713 66.7428C144.044 64.1432 142.734 61.1212 142.666 57.4901L135.313 57.6288C135.419 63.2254 137.547 68.0816 141.582 72.011L146.713 66.7428ZM142.666 57.6098C142.701 55.0524 143.34 52.8302 144.544 50.8564L138.266 47.0259C136.337 50.1883 135.365 53.7116 135.313 57.5091L142.666 57.6098ZM144.52 50.8948C145.819 48.8238 147.474 47.228 149.509 46.0552L145.837 39.6832C142.736 41.4702 140.212 43.9223 138.29 46.9875L144.52 50.8948ZM149.549 46.0317C151.555 44.842 153.671 44.2612 155.965 44.2612V36.9069C152.339 36.9069 148.927 37.8495 145.797 39.7067L149.549 46.0317Z" fill="#0F223C"/>
<path d="M1012.76 122.73V120.053C1012.76 112.653 1013.37 106.756 1014.59 102.359C1015.85 97.9632 1017.68 94.4375 1020.07 91.7824C1022.47 89.0838 1025.38 86.6245 1028.82 84.4047C1031.56 82.6636 1034 80.9008 1036.13 79.1162C1038.31 77.288 1040.03 75.3293 1041.29 73.2401C1042.55 71.1508 1043.18 68.7786 1043.18 66.1235C1043.18 63.5554 1042.58 61.292 1041.36 59.3333C1040.14 57.3746 1038.46 55.8729 1036.33 54.8283C1034.24 53.7401 1031.91 53.196 1029.34 53.196C1026.77 53.196 1024.36 53.7837 1022.1 54.9589C1019.88 56.1341 1018.05 57.8099 1016.61 59.9862C1015.22 62.119 1014.5 64.7089 1014.46 67.7557H984.424C984.554 58.6151 986.665 51.1285 990.757 45.296C994.892 39.4634 1000.35 35.1543 1007.14 32.3686C1013.93 29.5393 1021.42 28.1247 1029.6 28.1247C1038.57 28.1247 1046.54 29.5176 1053.5 32.3033C1060.51 35.089 1066.01 39.2022 1070.02 44.6431C1074.02 50.0839 1076.03 56.7435 1076.03 64.6218C1076.03 69.8015 1075.15 74.3718 1073.41 78.3327C1071.67 82.2936 1069.24 85.7975 1066.1 88.8444C1063.01 91.8477 1059.38 94.5899 1055.2 97.0709C1051.93 98.9861 1049.21 100.988 1047.04 103.078C1044.9 105.167 1043.29 107.561 1042.21 110.259C1041.12 112.915 1040.57 116.179 1040.57 120.053V122.73H1012.76ZM1027.19 165.56C1022.49 165.56 1018.46 163.906 1015.11 160.598C1011.8 157.29 1010.17 153.286 1010.21 148.585C1010.17 143.971 1011.8 140.032 1015.11 136.767C1018.46 133.459 1022.49 131.805 1027.19 131.805C1031.67 131.805 1035.61 133.459 1039.01 136.767C1042.4 140.032 1044.12 143.971 1044.16 148.585C1044.12 151.719 1043.29 154.57 1041.68 157.138C1040.12 159.706 1038.05 161.751 1035.48 163.275C1032.96 164.798 1030.19 165.56 1027.19 165.56Z" fill="#E4C76A"/>
<path d="M1012.76 122.73H1009.08V126.407H1012.76V122.73ZM1014.59 102.359L1011.05 101.345L1011.05 101.361L1011.04 101.377L1014.59 102.359ZM1020.07 91.7824L1022.8 94.2448L1022.81 94.2337L1022.82 94.2226L1020.07 91.7824ZM1028.82 84.4047L1026.85 81.3004L1026.84 81.3078L1026.83 81.3153L1028.82 84.4047ZM1036.13 79.1162L1038.49 81.9363L1038.5 81.9318L1036.13 79.1162ZM1041.29 73.2401L1038.14 71.3386V71.3386L1041.29 73.2401ZM1041.36 59.3333L1038.23 61.2759L1041.36 59.3333ZM1036.33 54.8283L1034.63 58.0896L1034.67 58.1106L1034.71 58.1306L1036.33 54.8283ZM1022.1 54.9589L1020.4 51.6954L1020.39 51.7022L1020.38 51.7091L1022.1 54.9589ZM1016.61 59.9862L1013.54 57.9607L1013.54 57.9681L1013.53 57.9756L1016.61 59.9862ZM1014.46 67.7557V71.4328H1018.08L1018.13 67.8082L1014.46 67.7557ZM984.424 67.7557L980.747 67.7032L980.694 71.4328H984.424V67.7557ZM990.757 45.296L987.757 43.1693L987.752 43.1768L987.746 43.1843L990.757 45.296ZM1007.14 32.3686L1008.54 35.7705L1008.55 35.7667L1008.56 35.7628L1007.14 32.3686ZM1053.5 32.3033L1052.13 35.7174L1052.14 35.7203L1053.5 32.3033ZM1070.02 44.6431L1072.98 42.4634V42.4634L1070.02 44.6431ZM1066.1 88.8444L1068.66 91.4814L1068.66 91.4809L1066.1 88.8444ZM1055.2 97.0709L1057.06 100.243L1057.07 100.238L1057.08 100.233L1055.2 97.0709ZM1047.04 103.078L1044.49 100.425L1044.48 100.438L1044.46 100.451L1047.04 103.078ZM1042.21 110.259L1045.61 111.654L1045.61 111.644L1045.62 111.635L1042.21 110.259ZM1040.57 122.73V126.407H1044.25V122.73H1040.57ZM1015.11 160.598L1012.51 163.198L1012.52 163.207L1012.53 163.215L1015.11 160.598ZM1010.21 148.585L1013.89 148.619L1013.89 148.584L1013.89 148.55L1010.21 148.585ZM1015.11 136.767L1017.69 139.384L1017.69 139.384L1015.11 136.767ZM1039.01 136.767L1036.44 139.401L1036.45 139.409L1036.46 139.418L1039.01 136.767ZM1044.16 148.585L1047.84 148.636L1047.84 148.593L1047.84 148.55L1044.16 148.585ZM1041.68 157.138L1038.57 155.184L1038.56 155.203L1038.54 155.222L1041.68 157.138ZM1035.48 163.275L1033.6 160.112L1033.59 160.119L1033.58 160.127L1035.48 163.275ZM1016.44 122.73V120.053H1009.08V122.73H1016.44ZM1016.44 120.053C1016.44 112.807 1017.04 107.282 1018.13 103.342L1011.04 101.377C1009.7 106.229 1009.08 112.5 1009.08 120.053H1016.44ZM1018.12 103.374C1019.27 99.37 1020.87 96.3854 1022.8 94.2448L1017.34 89.3201C1014.48 92.4897 1012.43 96.5564 1011.05 101.345L1018.12 103.374ZM1022.82 94.2226C1024.97 91.8046 1027.62 89.5567 1030.82 87.494L1026.83 81.3153C1023.14 83.6924 1019.96 86.363 1017.32 89.3422L1022.82 94.2226ZM1030.79 87.5089C1033.65 85.6957 1036.22 83.8394 1038.49 81.9363L1033.77 76.296C1031.78 77.9621 1029.48 79.6315 1026.85 81.3004L1030.79 87.5089ZM1038.5 81.9318C1040.93 79.8857 1042.94 77.628 1044.44 75.1416L1038.14 71.3386C1037.12 73.0307 1035.69 74.6904 1033.77 76.3006L1038.5 81.9318ZM1044.44 75.1416C1046.08 72.4287 1046.86 69.388 1046.86 66.1235H1039.51C1039.51 68.1691 1039.03 69.8729 1038.14 71.3386L1044.44 75.1416ZM1046.86 66.1235C1046.86 62.9488 1046.1 59.9969 1044.48 57.3907L1038.23 61.2759C1039.05 62.5871 1039.51 64.1619 1039.51 66.1235H1046.86ZM1044.48 57.3907C1042.88 54.8288 1040.68 52.8645 1037.95 51.526L1034.71 58.1306C1036.24 58.8814 1037.39 59.9204 1038.23 61.2759L1044.48 57.3907ZM1038.03 51.567C1035.37 50.1816 1032.45 49.5189 1029.34 49.5189V56.8732C1031.37 56.8732 1033.11 57.2987 1034.63 58.0896L1038.03 51.567ZM1029.34 49.5189C1026.19 49.5189 1023.19 50.2465 1020.4 51.6954L1023.79 58.2223C1025.53 57.3209 1027.36 56.8732 1029.34 56.8732V49.5189ZM1020.38 51.7091C1017.59 53.1841 1015.31 55.29 1013.54 57.9607L1019.68 62.0117C1020.79 60.3297 1022.16 59.0841 1023.82 58.2087L1020.38 51.7091ZM1013.53 57.9756C1011.69 60.797 1010.83 64.0982 1010.78 67.7032L1018.13 67.8082C1018.17 65.3195 1018.75 63.441 1019.69 61.9968L1013.53 57.9756ZM1014.46 64.0786H984.424V71.4328H1014.46V64.0786ZM988.1 67.8082C988.223 59.1975 990.205 52.4859 993.767 47.4077L987.746 43.1843C983.126 49.7711 980.885 58.0327 980.747 67.7032L988.1 67.8082ZM993.756 47.4227C997.477 42.1743 1002.38 38.2991 1008.54 35.7705L1005.75 28.9666C998.332 32.0094 992.306 36.7525 987.757 43.1693L993.756 47.4227ZM1008.56 35.7628C1014.85 33.1402 1021.85 31.8018 1029.6 31.8018V24.4476C1020.99 24.4476 1013.02 25.9384 1005.73 28.9743L1008.56 35.7628ZM1029.6 31.8018C1038.19 31.8018 1045.68 33.1358 1052.13 35.7174L1054.87 28.8891C1047.39 25.8993 1038.95 24.4476 1029.6 24.4476V31.8018ZM1052.14 35.7203C1058.59 38.2822 1063.51 41.9991 1067.06 46.8227L1072.98 42.4634C1068.52 36.4053 1062.43 31.8957 1054.86 28.8862L1052.14 35.7203ZM1067.06 46.8227C1070.52 51.5313 1072.35 57.3928 1072.35 64.6218H1079.7C1079.7 56.0941 1077.52 48.6365 1072.98 42.4634L1067.06 46.8227ZM1072.35 64.6218C1072.35 69.3907 1071.55 73.441 1070.05 76.853L1076.78 79.8124C1078.76 75.3025 1079.7 70.2122 1079.7 64.6218H1072.35ZM1070.05 76.853C1068.5 80.3757 1066.34 83.4878 1063.54 86.2079L1068.66 91.4809C1072.13 88.1072 1074.85 84.2116 1076.78 79.8124L1070.05 76.853ZM1063.54 86.2074C1060.68 88.9858 1057.28 91.5571 1053.32 93.9091L1057.08 100.233C1061.47 97.6227 1065.34 94.7096 1068.66 91.4814L1063.54 86.2074ZM1053.34 93.8993C1049.88 95.9249 1046.92 98.0936 1044.49 100.425L1049.58 105.73C1051.51 103.883 1053.98 102.047 1057.06 100.243L1053.34 93.8993ZM1044.46 100.451C1041.98 102.886 1040.08 105.703 1038.79 108.884L1045.62 111.635C1046.51 109.419 1047.83 107.448 1049.61 105.704L1044.46 100.451ZM1038.8 108.865C1037.48 112.088 1036.9 115.858 1036.9 120.053H1044.25C1044.25 116.5 1044.75 113.741 1045.61 111.654L1038.8 108.865ZM1036.9 120.053V122.73H1044.25V120.053H1036.9ZM1040.57 119.053H1012.76V126.407H1040.57V119.053ZM1027.19 161.883C1023.46 161.883 1020.36 160.611 1017.69 157.981L1012.53 163.215C1016.57 167.201 1021.52 169.237 1027.19 169.237V161.883ZM1017.71 157.998C1015.1 155.392 1013.86 152.338 1013.89 148.619L1006.54 148.551C1006.48 154.233 1008.5 159.188 1012.51 163.198L1017.71 157.998ZM1013.89 148.55C1013.86 144.94 1015.09 141.955 1017.69 139.384L1012.53 134.15C1008.52 138.108 1006.48 143.002 1006.54 148.619L1013.89 148.55ZM1017.69 139.384C1020.36 136.754 1023.46 135.482 1027.19 135.482V128.128C1021.52 128.128 1016.57 130.164 1012.53 134.15L1017.69 139.384ZM1027.19 135.482C1030.65 135.482 1033.69 136.719 1036.44 139.401L1041.57 134.134C1037.53 130.199 1032.69 128.128 1027.19 128.128V135.482ZM1036.46 139.418C1039.16 142.013 1040.45 145.017 1040.49 148.619L1047.84 148.55C1047.79 142.925 1045.65 138.05 1041.55 134.117L1036.46 139.418ZM1040.49 148.534C1040.45 151.018 1039.81 153.207 1038.57 155.184L1044.8 159.091C1046.78 155.932 1047.79 152.419 1047.84 148.636L1040.49 148.534ZM1038.54 155.222C1037.29 157.282 1035.65 158.898 1033.6 160.112L1037.36 166.437C1040.44 164.605 1042.94 162.13 1044.82 159.053L1038.54 155.222ZM1033.58 160.127C1031.64 161.297 1029.54 161.883 1027.19 161.883V169.237C1030.85 169.237 1034.27 168.299 1037.38 166.423L1033.58 160.127Z" fill="#0F223C"/>
<path d="M235.404 135.183C232.007 135.183 228.893 134.616 226.061 133.484C223.23 132.308 220.791 130.696 218.744 128.649C216.697 126.559 215.107 124.054 213.975 121.136C212.842 118.218 212.276 114.995 212.276 111.467C212.276 107.939 212.842 104.737 213.975 101.863C215.107 98.9445 216.697 96.4618 218.744 94.4147C220.791 92.324 223.23 90.7124 226.061 89.58C228.893 88.404 232.007 87.816 235.404 87.816C240.413 87.816 244.747 89.0356 248.405 91.4747C252.108 93.8702 254.808 97.1369 256.507 101.275L249.581 103.823C248.405 100.948 246.576 98.7049 244.093 97.0933C241.611 95.4382 238.714 94.6107 235.404 94.6107C233.096 94.6107 230.961 95.0245 229.001 95.852C227.085 96.636 225.43 97.7685 224.036 99.2493C222.642 100.73 221.553 102.516 220.769 104.607C220.029 106.654 219.659 108.94 219.659 111.467C219.659 113.993 220.029 116.301 220.769 118.392C221.553 120.439 222.642 122.203 224.036 123.684C225.43 125.165 227.085 126.319 229.001 127.147C230.961 127.931 233.096 128.323 235.404 128.323C238.714 128.323 241.611 127.517 244.093 125.905C246.576 124.294 248.405 122.051 249.581 119.176L256.507 121.659C254.808 125.84 252.108 129.15 248.405 131.589C244.747 133.985 240.413 135.183 235.404 135.183ZM275.32 98.0733L281.265 88.6653H288.844L281.526 98.0733H275.32ZM278.586 134.987C276.06 134.987 273.752 134.595 271.661 133.811C269.57 132.983 267.763 131.851 266.238 130.413C264.714 128.932 263.516 127.168 262.645 125.121C261.818 123.031 261.404 120.7 261.404 118.131C261.404 115.561 261.818 113.252 262.645 111.205C263.516 109.158 264.714 107.416 266.238 105.979C267.763 104.498 269.57 103.365 271.661 102.581C273.752 101.797 276.06 101.405 278.586 101.405C281.113 101.405 283.421 101.797 285.512 102.581C287.602 103.365 289.388 104.498 290.869 105.979C292.394 107.416 293.57 109.158 294.397 111.205C295.268 113.252 295.704 115.561 295.704 118.131C295.704 120.7 295.268 123.031 294.397 125.121C293.57 127.168 292.394 128.932 290.869 130.413C289.388 131.851 287.602 132.983 285.512 133.811C283.421 134.595 281.113 134.987 278.586 134.987ZM278.586 129.237C280.067 129.237 281.418 128.976 282.637 128.453C283.9 127.887 284.967 127.125 285.838 126.167C286.71 125.165 287.385 123.989 287.864 122.639C288.386 121.288 288.648 119.786 288.648 118.131C288.648 116.519 288.386 115.038 287.864 113.688C287.385 112.338 286.71 111.184 285.838 110.225C284.967 109.224 283.9 108.461 282.637 107.939C281.418 107.372 280.067 107.089 278.586 107.089C277.106 107.089 275.734 107.372 274.47 107.939C273.251 108.461 272.184 109.224 271.269 110.225C270.398 111.184 269.723 112.338 269.244 113.688C268.765 115.038 268.525 116.519 268.525 118.131C268.525 119.786 268.765 121.288 269.244 122.639C269.723 123.989 270.398 125.165 271.269 126.167C272.184 127.125 273.251 127.887 274.47 128.453C275.734 128.976 277.106 129.237 278.586 129.237ZM339.562 101.405C342.96 101.405 345.617 102.276 347.533 104.019C349.493 105.717 350.473 108.091 350.473 111.14V134.333H343.352V113.427C343.352 111.336 342.785 109.768 341.653 108.723C340.521 107.634 339.04 107.089 337.21 107.089C335.294 107.089 333.661 107.743 332.31 109.049C330.96 110.356 330.285 112.556 330.285 115.648V134.333H323.164V113.427C323.164 111.336 322.576 109.768 321.4 108.723C320.267 107.634 318.786 107.089 316.957 107.089C315.171 107.089 313.625 107.656 312.318 108.788C311.055 109.877 310.315 111.663 310.097 114.145V134.333H302.976V102.059H310.097V105.848C311.099 104.454 312.384 103.365 313.952 102.581C315.563 101.797 317.371 101.405 319.374 101.405C321.901 101.405 324.035 101.906 325.777 102.908C327.519 103.866 328.761 105.26 329.501 107.089C330.503 105.26 331.853 103.866 333.552 102.908C335.294 101.906 337.297 101.405 339.562 101.405ZM374.545 134.987C372.019 134.987 369.71 134.595 367.619 133.811C365.529 132.983 363.721 131.851 362.197 130.413C360.672 128.932 359.475 127.168 358.603 125.121C357.776 123.031 357.362 120.7 357.362 118.131C357.362 115.561 357.776 113.252 358.603 111.205C359.475 109.158 360.672 107.416 362.197 105.979C363.721 104.498 365.529 103.365 367.619 102.581C369.71 101.797 372.019 101.405 374.545 101.405C377.071 101.405 379.379 101.797 381.47 102.581C383.561 103.365 385.347 104.498 386.827 105.979C388.352 107.416 389.528 109.158 390.355 111.205C391.227 113.252 391.662 115.561 391.662 118.131C391.662 120.7 391.227 123.031 390.355 125.121C389.528 127.168 388.352 128.932 386.827 130.413C385.347 131.851 383.561 132.983 381.47 133.811C379.379 134.595 377.071 134.987 374.545 134.987ZM374.545 129.237C376.026 129.237 377.376 128.976 378.595 128.453C379.859 127.887 380.926 127.125 381.797 126.167C382.668 125.165 383.343 123.989 383.822 122.639C384.345 121.288 384.606 119.786 384.606 118.131C384.606 116.519 384.345 115.038 383.822 113.688C383.343 112.338 382.668 111.184 381.797 110.225C380.926 109.224 379.859 108.461 378.595 107.939C377.376 107.372 376.026 107.089 374.545 107.089C373.064 107.089 371.692 107.372 370.429 107.939C369.209 108.461 368.142 109.224 367.227 110.225C366.356 111.184 365.681 112.338 365.202 113.688C364.723 115.038 364.483 116.519 364.483 118.131C364.483 119.786 364.723 121.288 365.202 122.639C365.681 123.989 366.356 125.165 367.227 126.167C368.142 127.125 369.209 127.887 370.429 128.453C371.692 128.976 373.064 129.237 374.545 129.237ZM433.219 101.405C437.182 101.405 440.188 102.407 442.235 104.411C444.282 106.414 445.305 109.245 445.305 112.904V134.333H438.184V114.276C438.184 111.837 437.531 110.029 436.224 108.853C434.917 107.677 433.219 107.089 431.128 107.089C429.037 107.089 427.23 107.721 425.705 108.984C424.181 110.204 423.288 112.185 423.027 114.929V134.333H415.905V102.059H423.027V106.044C424.159 104.563 425.575 103.431 427.273 102.647C429.016 101.819 430.997 101.405 433.219 101.405ZM483.859 128.715V134.333H480.527C478.872 134.333 477.5 133.985 476.411 133.288C475.365 132.548 474.843 131.372 474.843 129.76V129.041H474.516C473.384 130.914 471.772 132.373 469.681 133.419C467.634 134.464 465.173 134.987 462.299 134.987C460.948 134.987 459.664 134.812 458.444 134.464C457.224 134.159 456.157 133.658 455.243 132.961C454.328 132.221 453.609 131.306 453.087 130.217C452.564 129.128 452.303 127.822 452.303 126.297C452.303 124.642 452.629 123.227 453.283 122.051C453.936 120.875 454.807 119.895 455.896 119.111C457.028 118.283 458.335 117.608 459.816 117.085C461.34 116.563 462.974 116.149 464.716 115.844L470.531 114.733C471.228 114.603 471.837 114.385 472.36 114.08C472.926 113.732 473.209 113.165 473.209 112.381C473.209 110.421 472.621 108.962 471.445 108.004C470.313 107.046 468.767 106.567 466.807 106.567C462.625 106.567 460.295 108.57 459.816 112.577L452.695 111.597C453.261 108.244 454.742 105.717 457.137 104.019C459.533 102.276 462.8 101.405 466.937 101.405C471.293 101.405 474.603 102.429 476.868 104.476C479.176 106.48 480.331 109.398 480.331 113.231V125.644C480.331 126.776 480.505 127.582 480.853 128.061C481.202 128.497 481.812 128.715 482.683 128.715H483.859ZM464.259 129.433C467.003 129.433 469.246 128.497 470.988 126.624C472.73 124.751 473.601 122.203 473.601 118.98L465.043 120.94C461.297 121.593 459.424 123.161 459.424 125.644C459.424 126.864 459.838 127.8 460.665 128.453C461.536 129.107 462.734 129.433 464.259 129.433ZM503.993 134.987C501.51 134.987 499.224 134.573 497.133 133.745C495.086 132.918 493.3 131.764 491.776 130.283C490.295 128.802 489.141 127.038 488.313 124.991C487.486 122.9 487.072 120.613 487.072 118.131C487.072 115.648 487.486 113.383 488.313 111.336C489.141 109.289 490.295 107.547 491.776 106.109C493.3 104.628 495.086 103.474 497.133 102.647C499.224 101.819 501.51 101.405 503.993 101.405C507.957 101.405 511.31 102.407 514.054 104.411C516.798 106.371 518.606 109.18 519.477 112.839L512.878 113.557C512.269 111.423 511.18 109.812 509.612 108.723C508.087 107.59 506.193 107.024 503.928 107.024C502.49 107.024 501.162 107.307 499.942 107.873C498.766 108.396 497.743 109.158 496.872 110.16C496.044 111.118 495.391 112.294 494.912 113.688C494.433 115.038 494.193 116.519 494.193 118.131C494.193 119.786 494.433 121.31 494.912 122.704C495.391 124.054 496.044 125.23 496.872 126.232C497.743 127.234 498.766 128.018 499.942 128.584C501.162 129.107 502.49 129.368 503.928 129.368C506.193 129.368 508.087 128.802 509.612 127.669C511.18 126.537 512.269 124.904 512.878 122.769L519.477 123.488C518.606 127.147 516.777 129.978 513.989 131.981C511.245 133.985 507.913 134.987 503.993 134.987ZM557.638 119.633H531.962C532.18 122.726 533.204 125.121 535.033 126.82C536.862 128.519 539.127 129.368 541.828 129.368C543.788 129.368 545.486 128.911 546.924 127.996C548.405 127.081 549.515 125.775 550.256 124.076L556.789 125.056C555.7 128.192 553.827 130.631 551.17 132.373C548.513 134.116 545.399 134.987 541.828 134.987C539.301 134.987 536.993 134.595 534.902 133.811C532.812 133.027 531.026 131.916 529.545 130.479C528.108 128.998 526.975 127.234 526.148 125.187C525.364 123.096 524.972 120.766 524.972 118.196C524.972 115.626 525.385 113.318 526.213 111.271C527.041 109.18 528.173 107.416 529.61 105.979C531.091 104.498 532.855 103.365 534.902 102.581C536.949 101.797 539.193 101.405 541.632 101.405C543.94 101.405 546.074 101.776 548.034 102.516C549.994 103.213 551.693 104.258 553.13 105.652C554.568 107.046 555.678 108.788 556.462 110.879C557.29 112.926 557.704 115.3 557.704 118L557.638 119.633ZM541.697 107.024C539.214 107.024 537.145 107.612 535.49 108.788C533.835 109.92 532.768 111.728 532.289 114.211H550.517C550.169 111.859 549.189 110.073 547.577 108.853C545.965 107.634 544.005 107.024 541.697 107.024ZM603.478 135.183C600.081 135.183 596.967 134.616 594.136 133.484C591.305 132.308 588.865 130.696 586.818 128.649C584.771 126.559 583.181 124.054 582.049 121.136C580.917 118.218 580.35 114.995 580.35 111.467C580.35 107.939 580.917 104.737 582.049 101.863C583.181 98.9445 584.771 96.4618 586.818 94.4147C588.865 92.324 591.305 90.7124 594.136 89.58C596.967 88.404 600.081 87.816 603.478 87.816C608.487 87.816 612.821 89.0356 616.48 91.4747C620.182 93.8702 622.882 97.1369 624.581 101.275L617.656 103.823C616.48 100.948 614.65 98.7049 612.168 97.0933C609.685 95.4382 606.789 94.6107 603.478 94.6107C601.17 94.6107 599.036 95.0245 597.076 95.852C595.159 96.636 593.504 97.7685 592.11 99.2493C590.717 100.73 589.628 102.516 588.844 104.607C588.103 106.654 587.733 108.94 587.733 111.467C587.733 113.993 588.103 116.301 588.844 118.392C589.628 120.439 590.717 122.203 592.11 123.684C593.504 125.165 595.159 126.319 597.076 127.147C599.036 127.931 601.17 128.323 603.478 128.323C606.789 128.323 609.685 127.517 612.168 125.905C614.65 124.294 616.48 122.051 617.656 119.176L624.581 121.659C622.882 125.84 620.182 129.15 616.48 131.589C612.821 133.985 608.487 135.183 603.478 135.183ZM661.165 128.715V134.333H657.833C656.178 134.333 654.806 133.985 653.717 133.288C652.671 132.548 652.149 131.372 652.149 129.76V129.041H651.822C650.69 130.914 649.078 132.373 646.987 133.419C644.94 134.464 642.479 134.987 639.605 134.987C638.254 134.987 636.97 134.812 635.75 134.464C634.53 134.159 633.463 133.658 632.549 132.961C631.634 132.221 630.915 131.306 630.393 130.217C629.87 129.128 629.609 127.822 629.609 126.297C629.609 124.642 629.935 123.227 630.589 122.051C631.242 120.875 632.113 119.895 633.202 119.111C634.334 118.283 635.641 117.608 637.122 117.085C638.646 116.563 640.28 116.149 642.022 115.844L647.837 114.733C648.534 114.603 649.143 114.385 649.666 114.08C650.232 113.732 650.515 113.165 650.515 112.381C650.515 110.421 649.927 108.962 648.751 108.004C647.619 107.046 646.073 106.567 644.113 106.567C639.931 106.567 637.601 108.57 637.122 112.577L630.001 111.597C630.567 108.244 632.048 105.717 634.443 104.019C636.839 102.276 640.106 101.405 644.243 101.405C648.599 101.405 651.909 102.429 654.174 104.476C656.482 106.48 657.637 109.398 657.637 113.231V125.644C657.637 126.776 657.811 127.582 658.159 128.061C658.508 128.497 659.118 128.715 659.989 128.715H661.165ZM641.565 129.433C644.309 129.433 646.552 128.497 648.294 126.624C650.036 124.751 650.907 122.203 650.907 118.98L642.349 120.94C638.603 121.593 636.73 123.161 636.73 125.644C636.73 126.864 637.144 127.8 637.971 128.453C638.842 129.107 640.04 129.433 641.565 129.433ZM684.362 101.405C686.54 101.405 688.587 101.797 690.503 102.581C692.42 103.365 694.075 104.476 695.469 105.913C696.863 107.351 697.951 109.115 698.735 111.205C699.563 113.252 699.977 115.561 699.977 118.131C699.977 120.7 699.563 123.031 698.735 125.121C697.951 127.212 696.863 128.998 695.469 130.479C694.075 131.916 692.42 133.027 690.503 133.811C688.587 134.595 686.54 134.987 684.362 134.987C681.879 134.987 679.658 134.508 677.698 133.549C675.782 132.548 674.323 131.132 673.321 129.303V150.209H666.199V102.059H673.321V106.959C674.323 105.173 675.782 103.801 677.698 102.843C679.658 101.884 681.879 101.405 684.362 101.405ZM682.925 129.041C684.362 129.041 685.669 128.78 686.845 128.257C688.064 127.735 689.11 127.016 689.981 126.101C690.895 125.143 691.592 123.989 692.071 122.639C692.594 121.288 692.855 119.786 692.855 118.131C692.855 116.476 692.594 114.995 692.071 113.688C691.592 112.338 690.895 111.205 689.981 110.291C689.11 109.332 688.064 108.614 686.845 108.135C685.669 107.612 684.362 107.351 682.925 107.351C681.487 107.351 680.159 107.612 678.939 108.135C677.763 108.614 676.74 109.332 675.869 110.291C674.998 111.205 674.301 112.338 673.778 113.688C673.299 114.995 673.059 116.476 673.059 118.131C673.059 119.786 673.299 121.288 673.778 122.639C674.301 123.989 674.998 125.143 675.869 126.101C676.74 127.016 677.763 127.735 678.939 128.257C680.159 128.78 681.487 129.041 682.925 129.041ZM737.408 128.715V134.333H734.076C732.421 134.333 731.049 133.985 729.96 133.288C728.915 132.548 728.392 131.372 728.392 129.76V129.041H728.065C726.933 130.914 725.321 132.373 723.231 133.419C721.184 134.464 718.723 134.987 715.848 134.987C714.498 134.987 713.213 134.812 711.993 134.464C710.774 134.159 709.707 133.658 708.792 132.961C707.877 132.221 707.159 131.306 706.636 130.217C706.113 129.128 705.852 127.822 705.852 126.297C705.852 124.642 706.179 123.227 706.832 122.051C707.485 120.875 708.357 119.895 709.445 119.111C710.578 118.283 711.885 117.608 713.365 117.085C714.89 116.563 716.523 116.149 718.265 115.844L724.08 114.733C724.777 114.603 725.387 114.385 725.909 114.08C726.476 113.732 726.759 113.165 726.759 112.381C726.759 110.421 726.171 108.962 724.995 108.004C723.862 107.046 722.316 106.567 720.356 106.567C716.175 106.567 713.845 108.57 713.365 112.577L706.244 111.597C706.81 108.244 708.291 105.717 710.687 104.019C713.082 102.276 716.349 101.405 720.487 101.405C724.842 101.405 728.153 102.429 730.417 104.476C732.726 106.48 733.88 109.398 733.88 113.231V125.644C733.88 126.776 734.054 127.582 734.403 128.061C734.751 128.497 735.361 128.715 736.232 128.715H737.408ZM717.808 129.433C720.552 129.433 722.795 128.497 724.537 126.624C726.28 124.751 727.151 122.203 727.151 118.98L718.592 120.94C714.846 121.593 712.973 123.161 712.973 125.644C712.973 126.864 713.387 127.8 714.215 128.453C715.086 129.107 716.284 129.433 717.808 129.433ZM756.474 134.333L770.064 118.131L756.474 102.059H765.425L774.376 113.492L783.261 102.059H792.146L778.622 118.196L792.146 134.333H783.261L774.376 122.965L765.49 134.333H756.474ZM836.547 135.183C833.15 135.183 830.036 134.616 827.205 133.484C824.374 132.308 821.934 130.696 819.887 128.649C817.84 126.559 816.25 124.054 815.118 121.136C813.986 118.218 813.419 114.995 813.419 111.467C813.419 107.939 813.986 104.737 815.118 101.863C816.25 98.9445 817.84 96.4618 819.887 94.4147C821.934 92.324 824.374 90.7124 827.205 89.58C830.036 88.404 833.15 87.816 836.547 87.816C841.556 87.816 845.89 89.0356 849.549 91.4747C853.251 93.8702 855.951 97.1369 857.65 101.275L850.725 103.823C849.549 100.948 847.719 98.7049 845.237 97.0933C842.754 95.4382 839.858 94.6107 836.547 94.6107C834.239 94.6107 832.105 95.0245 830.145 95.852C828.228 96.636 826.573 97.7685 825.179 99.2493C823.786 100.73 822.697 102.516 821.913 104.607C821.172 106.654 820.802 108.94 820.802 111.467C820.802 113.993 821.172 116.301 821.913 118.392C822.697 120.439 823.786 122.203 825.179 123.684C826.573 125.165 828.228 126.319 830.145 127.147C832.105 127.931 834.239 128.323 836.547 128.323C839.858 128.323 842.754 127.517 845.237 125.905C847.719 124.294 849.549 122.051 850.725 119.176L857.65 121.659C855.951 125.84 853.251 129.15 849.549 131.589C845.89 133.985 841.556 135.183 836.547 135.183ZM894.234 128.715V134.333H890.902C889.247 134.333 887.875 133.985 886.786 133.288C885.74 132.548 885.218 131.372 885.218 129.76V129.041H884.891C883.759 130.914 882.147 132.373 880.056 133.419C878.009 134.464 875.548 134.987 872.674 134.987C871.323 134.987 870.039 134.812 868.819 134.464C867.599 134.159 866.532 133.658 865.618 132.961C864.703 132.221 863.984 131.306 863.462 130.217C862.939 129.128 862.678 127.822 862.678 126.297C862.678 124.642 863.004 123.227 863.658 122.051C864.311 120.875 865.182 119.895 866.271 119.111C867.403 118.283 868.71 117.608 870.191 117.085C871.715 116.563 873.349 116.149 875.091 115.844L880.906 114.733C881.603 114.603 882.212 114.385 882.735 114.08C883.301 113.732 883.584 113.165 883.584 112.381C883.584 110.421 882.996 108.962 881.82 108.004C880.688 107.046 879.142 106.567 877.182 106.567C873 106.567 870.67 108.57 870.191 112.577L863.07 111.597C863.636 108.244 865.117 105.717 867.512 104.019C869.908 102.276 873.175 101.405 877.312 101.405C881.668 101.405 884.978 102.429 887.243 104.476C889.551 106.48 890.706 109.398 890.706 113.231V125.644C890.706 126.776 890.88 127.582 891.228 128.061C891.577 128.497 892.187 128.715 893.058 128.715H894.234ZM874.634 129.433C877.378 129.433 879.621 128.497 881.363 126.624C883.105 124.751 883.976 122.203 883.976 118.98L875.418 120.94C871.672 121.593 869.799 123.161 869.799 125.644C869.799 126.864 870.213 127.8 871.04 128.453C871.911 129.107 873.109 129.433 874.634 129.433ZM917.431 101.405C919.609 101.405 921.656 101.797 923.572 102.581C925.489 103.365 927.144 104.476 928.538 105.913C929.932 107.351 931.02 109.115 931.804 111.205C932.632 113.252 933.046 115.561 933.046 118.131C933.046 120.7 932.632 123.031 931.804 125.121C931.02 127.212 929.932 128.998 928.538 130.479C927.144 131.916 925.489 133.027 923.572 133.811C921.656 134.595 919.609 134.987 917.431 134.987C914.948 134.987 912.727 134.508 910.767 133.549C908.851 132.548 907.392 131.132 906.39 129.303V150.209H899.268V102.059H906.39V106.959C907.392 105.173 908.851 103.801 910.767 102.843C912.727 101.884 914.948 101.405 917.431 101.405ZM915.994 129.041C917.431 129.041 918.738 128.78 919.914 128.257C921.133 127.735 922.179 127.016 923.05 126.101C923.964 125.143 924.661 123.989 925.14 122.639C925.663 121.288 925.924 119.786 925.924 118.131C925.924 116.476 925.663 114.995 925.14 113.688C924.661 112.338 923.964 111.205 923.05 110.291C922.179 109.332 921.133 108.614 919.914 108.135C918.738 107.612 917.431 107.351 915.994 107.351C914.556 107.351 913.228 107.612 912.008 108.135C910.832 108.614 909.809 109.332 908.938 110.291C908.067 111.205 907.37 112.338 906.847 113.688C906.368 114.995 906.128 116.476 906.128 118.131C906.128 119.786 906.368 121.288 906.847 122.639C907.37 123.989 908.067 125.143 908.938 126.101C909.809 127.016 910.832 127.735 912.008 128.257C913.228 128.78 914.556 129.041 915.994 129.041ZM970.477 128.715V134.333H967.145C965.49 134.333 964.118 133.985 963.029 133.288C961.984 132.548 961.461 131.372 961.461 129.76V129.041H961.134C960.002 130.914 958.39 132.373 956.3 133.419C954.253 134.464 951.792 134.987 948.917 134.987C947.567 134.987 946.282 134.812 945.062 134.464C943.843 134.159 942.776 133.658 941.861 132.961C940.946 132.221 940.228 131.306 939.705 130.217C939.182 129.128 938.921 127.822 938.921 126.297C938.921 124.642 939.248 123.227 939.901 122.051C940.554 120.875 941.426 119.895 942.514 119.111C943.647 118.283 944.954 117.608 946.434 117.085C947.959 116.563 949.592 116.149 951.334 115.844L957.149 114.733C957.846 114.603 958.456 114.385 958.978 114.08C959.545 113.732 959.828 113.165 959.828 112.381C959.828 110.421 959.24 108.962 958.064 108.004C956.931 107.046 955.385 106.567 953.425 106.567C949.244 106.567 946.914 108.57 946.434 112.577L939.313 111.597C939.879 108.244 941.36 105.717 943.756 104.019C946.151 102.276 949.418 101.405 953.556 101.405C957.911 101.405 961.222 102.429 963.486 104.476C965.795 106.48 966.949 109.398 966.949 113.231V125.644C966.949 126.776 967.123 127.582 967.472 128.061C967.82 128.497 968.43 128.715 969.301 128.715H970.477ZM950.877 129.433C953.621 129.433 955.864 128.497 957.606 126.624C959.349 124.751 960.22 122.203 960.22 118.98L951.661 120.94C947.915 121.593 946.042 123.161 946.042 125.644C946.042 126.864 946.456 127.8 947.284 128.453C948.155 129.107 949.353 129.433 950.877 129.433Z" fill="#0F223C"/>
</svg>
