<svg width="414" height="162" viewBox="0 0 414 162" fill="none" xmlns="http://www.w3.org/2000/svg">
<rect x="2" y="32.6667" width="366.667" height="126.667" rx="52.6667" fill="#BF985E" stroke="#0F223C" stroke-width="4"/>
<path d="M86.1999 113.667V67.0667H93.7999V107H109.733V113.667H86.1999ZM130.184 114.333C127.606 114.333 125.25 113.933 123.117 113.133C120.984 112.289 119.139 111.133 117.584 109.667C116.028 108.156 114.806 106.356 113.917 104.267C113.073 102.133 112.65 99.7556 112.65 97.1334C112.65 94.5112 113.073 92.1556 113.917 90.0667C114.806 87.9779 116.028 86.2001 117.584 84.7334C119.139 83.2223 120.984 82.0667 123.117 81.2667C125.25 80.4667 127.606 80.0667 130.184 80.0667C132.762 80.0667 135.117 80.4667 137.25 81.2667C139.384 82.0667 141.206 83.2223 142.717 84.7334C144.273 86.2001 145.473 87.9779 146.317 90.0667C147.206 92.1556 147.65 94.5112 147.65 97.1334C147.65 99.7556 147.206 102.133 146.317 104.267C145.473 106.356 144.273 108.156 142.717 109.667C141.206 111.133 139.384 112.289 137.25 113.133C135.117 113.933 132.762 114.333 130.184 114.333ZM130.184 108.467C131.695 108.467 133.073 108.2 134.317 107.667C135.606 107.089 136.695 106.311 137.584 105.333C138.473 104.311 139.162 103.111 139.65 101.733C140.184 100.356 140.45 98.8223 140.45 97.1334C140.45 95.489 140.184 93.9779 139.65 92.6001C139.162 91.2223 138.473 90.0445 137.584 89.0667C136.695 88.0445 135.606 87.2667 134.317 86.7334C133.073 86.1556 131.695 85.8667 130.184 85.8667C128.673 85.8667 127.273 86.1556 125.984 86.7334C124.739 87.2667 123.65 88.0445 122.717 89.0667C121.828 90.0445 121.139 91.2223 120.65 92.6001C120.162 93.9779 119.917 95.489 119.917 97.1334C119.917 98.8223 120.162 100.356 120.65 101.733C121.139 103.111 121.828 104.311 122.717 105.333C123.65 106.311 124.739 107.089 125.984 107.667C127.273 108.2 128.673 108.467 130.184 108.467ZM179.937 80.7334H187.204V113.133C187.204 119.045 185.693 123.378 182.671 126.133C179.693 128.933 175.626 130.333 170.471 130.333C166.026 130.333 162.471 129.4 159.804 127.533C157.137 125.667 155.226 123.178 154.071 120.067L160.137 117.533C161.115 119.845 162.426 121.6 164.071 122.8C165.715 124.045 167.76 124.667 170.204 124.667C173.537 124.667 175.982 123.667 177.537 121.667C179.137 119.711 179.937 117.045 179.937 113.667V107.467C178.96 109.156 177.471 110.533 175.471 111.6C173.515 112.667 171.271 113.2 168.737 113.2C166.604 113.2 164.604 112.8 162.737 112C160.915 111.2 159.315 110.067 157.937 108.6C156.56 107.133 155.471 105.378 154.671 103.333C153.871 101.289 153.471 99.0223 153.471 96.5334C153.471 94.0445 153.871 91.8001 154.671 89.8001C155.471 87.7556 156.56 86.0223 157.937 84.6001C159.315 83.1334 160.937 82.0223 162.804 81.2667C164.671 80.4667 166.671 80.0667 168.804 80.0667C171.382 80.0667 173.626 80.6001 175.537 81.6667C177.449 82.7334 178.915 84.1334 179.937 85.8667V80.7334ZM170.404 107.267C171.871 107.267 173.204 107 174.404 106.467C175.649 105.933 176.715 105.2 177.604 104.267C178.493 103.289 179.182 102.156 179.671 100.867C180.16 99.5334 180.404 98.089 180.404 96.5334C180.404 94.9779 180.16 93.5556 179.671 92.2667C179.182 90.9334 178.493 89.8001 177.604 88.8667C176.715 87.9334 175.649 87.2001 174.404 86.6667C173.204 86.1334 171.871 85.8667 170.404 85.8667C168.982 85.8667 167.649 86.1334 166.404 86.6667C165.204 87.2001 164.16 87.9334 163.271 88.8667C162.382 89.8001 161.693 90.9334 161.204 92.2667C160.715 93.5556 160.471 94.9779 160.471 96.5334C160.471 98.089 160.715 99.5334 161.204 100.867C161.693 102.156 162.382 103.289 163.271 104.267C164.16 105.2 165.204 105.933 166.404 106.467C167.649 107 168.982 107.267 170.404 107.267ZM203.351 86.2001C204.374 84.3334 205.907 82.8445 207.951 81.7334C210.04 80.6223 212.485 80.0667 215.285 80.0667V86.8001C211.196 86.8001 208.174 87.689 206.218 89.4667C204.307 91.2001 203.351 94.1556 203.351 98.3334V113.667H196.085V80.7334H203.351V86.2001ZM235.718 114.333C233.14 114.333 230.784 113.933 228.651 113.133C226.518 112.289 224.673 111.133 223.118 109.667C221.562 108.156 220.34 106.356 219.451 104.267C218.607 102.133 218.184 99.7556 218.184 97.1334C218.184 94.5112 218.607 92.1556 219.451 90.0667C220.34 87.9779 221.562 86.2001 223.118 84.7334C224.673 83.2223 226.518 82.0667 228.651 81.2667C230.784 80.4667 233.14 80.0667 235.718 80.0667C238.295 80.0667 240.651 80.4667 242.784 81.2667C244.918 82.0667 246.74 83.2223 248.251 84.7334C249.807 86.2001 251.007 87.9779 251.851 90.0667C252.74 92.1556 253.184 94.5112 253.184 97.1334C253.184 99.7556 252.74 102.133 251.851 104.267C251.007 106.356 249.807 108.156 248.251 109.667C246.74 111.133 244.918 112.289 242.784 113.133C240.651 113.933 238.295 114.333 235.718 114.333ZM235.718 108.467C237.229 108.467 238.607 108.2 239.851 107.667C241.14 107.089 242.229 106.311 243.118 105.333C244.007 104.311 244.695 103.111 245.184 101.733C245.718 100.356 245.984 98.8223 245.984 97.1334C245.984 95.489 245.718 93.9779 245.184 92.6001C244.695 91.2223 244.007 90.0445 243.118 89.0667C242.229 88.0445 241.14 87.2667 239.851 86.7334C238.607 86.1556 237.229 85.8667 235.718 85.8667C234.207 85.8667 232.807 86.1556 231.518 86.7334C230.273 87.2667 229.184 88.0445 228.251 89.0667C227.362 90.0445 226.673 91.2223 226.184 92.6001C225.695 93.9779 225.451 95.489 225.451 97.1334C225.451 98.8223 225.695 100.356 226.184 101.733C226.673 103.111 227.362 104.311 228.251 105.333C229.184 106.311 230.273 107.089 231.518 107.667C232.807 108.2 234.207 108.467 235.718 108.467ZM273.271 114.333C271.405 114.333 269.671 114.133 268.071 113.733C266.471 113.333 265.027 112.733 263.738 111.933C262.494 111.133 261.449 110.156 260.605 109C259.76 107.8 259.205 106.445 258.938 104.933L265.005 103.267C265.494 105.222 266.449 106.667 267.871 107.6C269.338 108.533 271.071 109 273.071 109C274.805 109 276.227 108.622 277.338 107.867C278.494 107.111 279.071 106.022 279.071 104.6C279.071 103.711 278.849 103 278.405 102.467C278.005 101.889 277.427 101.422 276.671 101.067C275.96 100.667 275.138 100.356 274.205 100.133C273.271 99.8667 272.294 99.6445 271.271 99.4667C269.627 99.1556 268.094 98.7779 266.671 98.3334C265.294 97.889 264.071 97.3112 263.005 96.6001C261.982 95.889 261.182 95.0001 260.605 93.9334C260.027 92.8667 259.738 91.5556 259.738 90.0001C259.738 86.889 260.894 84.4667 263.205 82.7334C265.516 80.9556 268.56 80.0667 272.338 80.0667C273.894 80.0667 275.382 80.2445 276.805 80.6001C278.271 80.9112 279.582 81.4223 280.738 82.1334C281.894 82.8445 282.871 83.7334 283.671 84.8001C284.516 85.8223 285.116 87.0667 285.471 88.5334L279.071 89.9334C278.582 88.3779 277.738 87.2223 276.538 86.4667C275.382 85.7112 273.916 85.3334 272.138 85.3334C270.449 85.3334 269.071 85.689 268.005 86.4001C266.938 87.0667 266.405 88.0223 266.405 89.2667C266.405 89.9779 266.605 90.5779 267.005 91.0667C267.449 91.5556 268.005 91.9779 268.671 92.3334C269.382 92.6445 270.205 92.9334 271.138 93.2001C272.071 93.4223 273.049 93.6445 274.071 93.8667C275.849 94.2667 277.471 94.7112 278.938 95.2001C280.405 95.6445 281.671 96.2445 282.738 97.0001C283.805 97.7112 284.627 98.6223 285.205 99.7334C285.782 100.845 286.071 102.245 286.071 103.933C286.071 105.711 285.716 107.245 285.005 108.533C284.338 109.822 283.427 110.911 282.271 111.8C281.116 112.645 279.76 113.267 278.205 113.667C276.649 114.111 275.005 114.333 273.271 114.333Z" fill="#0F223C"/>
<path d="M376.286 17.1219L376.512 37.6052L376.528 39.0582L377.915 39.4919L397.466 45.6064L378.055 52.1513L376.678 52.6155L376.694 54.0685L376.92 74.5518L364.697 58.1135L363.83 56.9474L362.453 57.4117L343.043 63.9565L354.899 47.2522L355.74 46.0673L354.873 44.9012L342.651 28.4629L362.201 34.5774L363.588 35.0111L364.429 33.8262L376.286 17.1219Z" fill="#E4C76A" stroke="#0F223C" stroke-width="4"/>
</svg>
