<svg width="1108" height="1141" viewBox="0 0 1108 1141" fill="none" xmlns="http://www.w3.org/2000/svg">
<path d="M492.667 0.31012L492.556 9.86568L496.556 9.91218L496.667 0.356628L492.667 0.31012ZM492.334 28.9768L492.112 48.0879L496.111 48.1344L496.334 29.0233L492.334 28.9768ZM491.889 67.199L491.667 86.3101L495.667 86.3566L495.889 67.2455L491.889 67.199ZM491.445 105.421L491.334 114.977L495.334 115.023L495.445 105.468L491.445 105.421Z" fill="#0F223C"/>
<path d="M494.667 470.333H486.4V474.333H494.667V470.333ZM469.867 470.333H453.334V474.333H469.867V470.333ZM436.8 470.333H420.267V474.333H436.8V470.333ZM403.734 470.333H387.2V474.333H403.734V470.333ZM370.667 470.333H354.134V474.333H370.667V470.333ZM337.6 470.333H321.067V474.333H337.6V470.333ZM304.534 470.333H288V474.333H304.534V470.333ZM271.467 470.333L254.934 470.333V474.333L271.467 474.333V470.333ZM238.4 470.333H221.867V474.333H238.4V470.333ZM205.334 470.333H188.8V474.333H205.334V470.333ZM172.267 470.333H164V474.333H172.267V470.333Z" fill="#0F223C"/>
<path d="M492.667 357.643L492.556 367.199L496.556 367.245L496.667 357.69L492.667 357.643ZM492.334 386.31L492.112 405.421L496.111 405.468L496.334 386.357L492.334 386.31ZM491.889 424.532L491.667 443.643L495.667 443.69L495.889 424.579L491.889 424.532ZM491.445 462.754L491.334 472.31L495.334 472.357L495.445 462.801L491.445 462.754Z" fill="#0F223C"/>
<path d="M163.334 472.31L163.223 481.866L167.222 481.912L167.333 472.357L163.334 472.31ZM163 500.977L162.778 520.088L166.778 520.134L167 501.023L163 500.977ZM162.556 539.199L162.334 558.31L166.333 558.357L166.556 539.246L162.556 539.199ZM162.111 577.421L162 586.977L166 587.023L166.111 577.468L162.111 577.421Z" fill="#0F223C"/>
<path d="M1104 1025H1095.39V1029H1104V1025ZM1078.16 1025H1060.93V1029H1078.16V1025ZM1043.7 1025H1026.47V1029H1043.7V1025ZM1009.24 1025H992.01V1029H1009.24V1025ZM974.781 1025H957.552V1029H974.781V1025ZM940.323 1025H923.094V1029H940.323V1025ZM905.865 1025H888.635V1029H905.865V1025ZM871.406 1025H854.177V1029H871.406V1025ZM836.948 1025H819.719V1029H836.948V1025ZM802.49 1025H785.26V1029H802.49V1025ZM768.031 1025H750.802V1029H768.031V1025ZM733.573 1025H716.344V1029H733.573V1025ZM699.115 1025H681.885V1029H699.115V1025ZM664.656 1025H647.427V1029H664.656V1025ZM630.198 1025H612.969V1029H630.198V1025ZM595.74 1025H578.511V1029H595.74V1025ZM561.281 1025H544.052V1029H561.281V1025ZM526.823 1025H509.594V1029H526.823V1025ZM492.365 1025H475.135V1029H492.365V1025ZM457.906 1025H440.677V1029H457.906V1025ZM423.448 1025H406.219V1029H423.448V1025ZM388.99 1025H371.76V1029H388.99V1025ZM354.531 1025H337.302V1029H354.531V1025ZM320.073 1025H302.844V1029H320.073V1025ZM285.614 1025H268.385V1029H285.614V1025ZM251.156 1025H233.927V1029H251.156V1025ZM216.698 1025H199.468V1029H216.698V1025ZM182.239 1025L165.01 1025V1029L182.239 1029V1025ZM147.781 1025H130.552V1029H147.781V1025ZM113.323 1025H96.0933V1029H113.323V1025ZM78.8641 1025H61.635V1029H78.8641V1025ZM44.4059 1025H27.1768V1029H44.4059V1025ZM9.94763 1025H1.33337V1029H9.94763V1025Z" fill="#0F223C"/>
<path d="M0.666992 869.667L0.666992 877.533L4.66699 877.533L4.66699 869.667L0.666992 869.667ZM0.666991 893.267L0.66699 909L4.66699 909L4.66699 893.267L0.666991 893.267ZM0.66699 924.733L0.666989 940.467L4.66699 940.467L4.66699 924.733L0.66699 924.733ZM0.666988 956.2L0.666988 971.933L4.66699 971.933L4.66699 956.2L0.666988 956.2ZM0.666987 987.667L0.666986 1003.4L4.66699 1003.4L4.66699 987.667L0.666987 987.667ZM0.666986 1019.13L0.666985 1027L4.66699 1027L4.66699 1019.13L0.666986 1019.13Z" fill="#0F223C"/>
<path d="M1103.33 1025.64L1103.22 1035.2L1107.22 1035.25L1107.33 1025.69L1103.33 1025.64ZM1103 1054.31L1102.78 1073.42L1106.78 1073.47L1107 1054.36L1103 1054.31ZM1102.56 1092.53L1102.33 1111.64L1106.33 1111.69L1106.56 1092.58L1102.56 1092.53ZM1102.11 1130.75L1102 1140.31L1106 1140.36L1106.11 1130.8L1102.11 1130.75Z" fill="#0F223C"/>
</svg>
