<svg width="503" height="696" viewBox="0 0 503 696" fill="none" xmlns="http://www.w3.org/2000/svg">
<path d="M182.669 480.623C190.054 457.824 204.247 411.264 201.935 407.411C199.045 402.594 196.155 399.704 193.265 379.474C190.954 363.291 185.88 343.832 183.632 336.125C175.926 316.856 191.339 309.148 200.009 323.602C213.883 346.733 217.669 369.841 216.385 379.474" stroke="#0F223C" stroke-width="5.77989"/>
<path d="M198.442 321.32C195.242 308.078 182.166 278.996 178.67 271.821C169.213 255.336 182.236 250.46 190.573 259.171C206.696 276.017 215.542 307.008 216.387 316.703" stroke="#0F223C" stroke-width="5.77989"/>
<path d="M208.678 249.422C199.998 232.515 213.327 228.301 221.249 237.39C236.571 254.968 245.284 289.881 245.284 300.477" stroke="#0F223C" stroke-width="5.77989"/>
<path d="M242.395 282.172C237.578 266.759 249.591 264.551 253.955 273.504C259.589 285.064 260.855 298.551 262.625 309.147C264.645 321.236 279.002 365.019 253.557 393.916M242.395 407.403C246.837 403.238 250.52 398.679 253.557 393.916M253.557 393.916C253.369 401.623 249.524 427.054 235.652 467.128" stroke="#0F223C" stroke-width="5.77989"/>
<path d="M262.625 310.112C253.312 307.864 231.413 308.378 218.312 328.415" stroke="#0F223C" stroke-width="5.77989"/>
<path d="M186.523 256.164C174 236.406 189.22 228.478 198.304 236.405C215.422 251.343 227.945 294.694 227.945 305.291" stroke="#0F223C" stroke-width="5.77989"/>
<path d="M370.332 511.576C363.309 488.663 349.857 441.884 352.23 438.068C355.196 433.298 358.131 430.454 361.342 410.273C363.91 394.128 369.291 374.752 371.661 367.082C379.672 347.937 364.384 339.986 355.486 354.3C341.247 377.208 337.094 400.254 338.226 409.906" stroke="#0F223C" stroke-width="5.77989"/>
<path d="M357.089 352.044C360.498 338.854 374.034 309.984 377.642 302.865C387.359 286.533 374.416 281.451 365.942 290.028C349.554 306.616 340.218 337.462 339.219 347.143" stroke="#0F223C" stroke-width="5.77989"/>
<path d="M347.994 279.994C356.941 263.227 343.681 258.802 335.616 267.764C320.017 285.097 310.752 319.868 310.584 330.463" stroke="#0F223C" stroke-width="5.7799"/>
<path d="M313.764 312.204C318.825 296.87 306.849 294.471 302.344 303.354C296.528 314.823 295.047 328.288 293.109 338.855C290.898 350.911 275.849 394.461 300.831 423.758M311.778 437.419C307.402 433.185 303.793 428.568 300.831 423.758M300.831 423.758C300.898 431.466 304.339 456.955 317.572 497.244" stroke="#0F223C" stroke-width="5.7799"/>
<path d="M293.095 339.819C302.441 337.719 324.329 338.58 337.11 358.823" stroke="#0F223C" stroke-width="5.77989"/>
<path d="M370.04 287.087C382.875 267.53 367.783 259.362 358.575 267.144C341.223 281.808 328.013 324.955 327.846 335.551" stroke="#0F223C" stroke-width="5.77989"/>
<path d="M264.329 230.249C267.948 201.512 250.658 177.472 248.826 182.054C244.302 193.369 255.73 212.374 263.312 231.155" stroke="#0F223C" stroke-width="5.77989"/>
<path d="M283.262 225.339C295.422 199.034 296.734 153.234 293.098 156.57C284.119 164.809 281.07 208.076 283.674 229.458" stroke="#0F223C" stroke-width="5.77989"/>
<path d="M305.974 226.012C328.708 208.04 341.314 182.011 336.563 183.345C324.831 186.637 312.284 208.522 304.945 228.773" stroke="#0F223C" stroke-width="5.77989"/>
<path d="M129.768 176.567L126.473 185.071L81.3839 171.462L119.247 203.72L116.964 209.613L67.4287 207.923L109.767 228.188L106.443 236.766L55.9188 212.386L60.8033 199.779L102.902 200.733L71.1215 173.148L76.0349 160.467L129.768 176.567Z" fill="#0F223C"/>
<path d="M98.3644 144.008C97.4889 145.218 96.3064 145.942 94.8169 146.181C93.3274 146.42 91.9778 146.101 90.768 145.226C89.5583 144.35 88.8556 143.184 88.6601 141.725C88.4214 140.236 88.7398 138.886 89.6153 137.676C90.4908 136.467 91.6733 135.742 93.1628 135.504C94.6091 135.234 95.9371 135.536 97.1468 136.412C98.3566 137.287 99.0808 138.47 99.3196 139.959C99.5583 141.449 99.2399 142.799 98.3644 144.008ZM134.198 175.275L102.183 152.104L107.295 145.04L139.311 168.21L134.198 175.275Z" fill="#0F223C"/>
<path d="M153.839 152.804C152.248 154.38 150.601 155.673 148.899 156.683C147.197 157.693 145.459 158.401 143.684 158.807C141.948 159.176 140.231 159.224 138.536 158.952C136.802 158.642 135.184 157.955 133.681 156.892L137.446 150.348C139.514 151.603 141.549 152.027 143.55 151.622C145.588 151.18 147.46 150.114 149.166 148.425C150.644 146.962 151.537 145.439 151.847 143.856C152.194 142.236 151.767 140.82 150.566 139.607C149.816 138.849 149.026 138.431 148.197 138.351C147.368 138.196 146.481 138.286 145.536 138.621C144.592 138.88 143.629 139.309 142.645 139.908C141.624 140.469 140.603 141.105 139.581 141.816C137.916 142.94 136.29 143.912 134.702 144.734C133.152 145.519 131.622 146.058 130.112 146.352C128.64 146.609 127.207 146.527 125.814 146.105C124.421 145.683 123.067 144.809 121.754 143.483C119.127 140.83 118.067 137.789 118.574 134.36C119.043 130.893 120.889 127.564 124.11 124.374C125.436 123.061 126.856 121.955 128.369 121.057C129.882 120.084 131.431 119.413 133.017 119.044C134.603 118.674 136.187 118.606 137.77 118.84C139.353 118.999 140.915 119.553 142.457 120.504L138.182 127.102C136.452 126.188 134.756 125.916 133.095 126.285C131.472 126.616 129.902 127.533 128.386 129.034C126.946 130.46 126.072 131.926 125.763 133.433C125.416 134.902 125.768 136.167 126.819 137.229C127.419 137.835 128.096 138.178 128.85 138.257C129.642 138.298 130.472 138.189 131.341 137.929C132.21 137.594 133.155 137.146 134.176 136.586C135.159 135.987 136.181 135.351 137.24 134.677C139.094 133.517 140.852 132.526 142.515 131.705C144.141 130.845 145.728 130.287 147.275 130.031C148.785 129.737 150.256 129.819 151.687 130.279C153.118 130.738 154.546 131.688 155.972 133.128C157.473 134.644 158.465 136.252 158.947 137.951C159.466 139.613 159.609 141.311 159.374 143.044C159.102 144.74 158.472 146.415 157.483 148.07C156.532 149.762 155.317 151.34 153.839 152.804Z" fill="#0F223C"/>
<path d="M144.974 97.3583C143.754 98.2196 142.401 98.5223 140.914 98.2662C139.428 98.0101 138.254 97.2722 137.392 96.0523C136.531 94.8324 136.244 93.501 136.53 92.0579C136.787 90.5713 137.525 89.3973 138.744 88.536C139.964 87.6746 141.318 87.372 142.804 87.628C144.26 87.8405 145.419 88.5567 146.28 89.7766C147.141 90.9965 147.444 92.3497 147.188 93.8363C146.932 95.3229 146.194 96.4969 144.974 97.3583ZM168.763 138.537L145.967 106.254L153.09 101.225L175.886 133.508L168.763 138.537Z" fill="#0F223C"/>
<path d="M177.52 81.5018L179.432 68.0091L187.894 64.2011L184.451 78.3832L177.52 81.5018ZM199.715 121.08C196.894 122.349 194.12 123.071 191.391 123.246C188.641 123.373 186.053 123.016 183.629 122.177C181.182 121.29 178.959 119.922 176.957 118.074C174.983 116.155 173.35 113.761 172.059 110.891C170.767 108.022 170.07 105.236 169.965 102.534C169.909 99.8106 170.371 97.2633 171.351 94.8923C172.31 92.4727 173.759 90.3 175.7 88.374C177.64 86.4481 180.021 84.8505 182.842 83.5811C185.663 82.3118 188.437 81.5896 191.166 81.4146C193.894 81.2396 196.457 81.6069 198.855 82.5164C201.28 83.3554 203.468 84.71 205.421 86.5801C207.422 88.4283 209.069 90.7872 210.36 93.6567C211.651 96.5263 212.335 99.3472 212.413 102.119C212.518 104.821 212.091 107.382 211.133 109.801C210.201 112.151 208.776 114.312 206.857 116.287C204.917 118.213 202.536 119.81 199.715 121.08ZM196.826 114.66C198.48 113.916 199.856 112.945 200.956 111.749C202.082 110.482 202.89 109.095 203.381 107.587C203.851 106.031 204.014 104.378 203.87 102.63C203.775 100.86 203.312 99.0503 202.481 97.2021C201.671 95.4025 200.635 93.8802 199.373 92.6351C198.16 91.3681 196.826 90.4185 195.372 89.7862C193.895 89.1052 192.321 88.7903 190.648 88.8413C189.001 88.8218 187.351 89.1841 185.698 89.9282C184.044 90.6723 182.654 91.6778 181.528 92.9447C180.429 94.1411 179.621 95.5284 179.103 97.1067C178.611 98.6144 178.437 100.242 178.581 101.991C178.724 103.739 179.201 105.513 180.011 107.313C180.842 109.161 181.865 110.719 183.078 111.986C184.292 113.253 185.636 114.227 187.113 114.908C188.615 115.518 190.19 115.833 191.836 115.852C193.509 115.801 195.173 115.404 196.826 114.66Z" fill="#0F223C"/>
<path d="M233.548 68.5982C238.339 67.8253 242.168 68.4504 245.033 70.4732C247.898 72.4961 249.688 75.719 250.401 80.1418L254.579 106.047L245.971 107.436L242.06 83.1889C241.584 80.2404 240.442 78.1827 238.633 77.0158C236.824 75.849 234.656 75.4694 232.129 75.877C229.601 76.2847 227.539 77.4006 225.943 79.2247C224.338 80.9963 223.645 83.5661 223.864 86.9341L227.647 110.391L219.039 111.78L212.746 72.7638L221.354 71.3752L222.132 76.193C223.212 74.182 224.702 72.537 226.603 71.258C228.547 69.9179 230.863 69.0313 233.548 68.5982Z" fill="#0F223C"/>
<path d="M251.274 581.494L259.951 585.785L216.16 626.514L205.977 621.478L211.761 561.955L220.438 566.246L215.146 615.749L251.274 581.494Z" fill="#0F223C"/>
<path d="M287.261 637.934L286.206 644.733L282.175 644.108C280.172 643.797 278.577 643.118 277.39 642.07C276.264 640.978 275.853 639.457 276.155 637.507L276.29 636.637L275.895 636.576C274.173 638.63 271.949 640.093 269.223 640.965C266.55 641.846 263.474 642.017 259.996 641.477C258.362 641.224 256.84 640.772 255.43 640.121C254.011 639.524 252.814 638.717 251.838 637.702C250.87 636.635 250.172 635.393 249.744 633.977C249.316 632.562 249.245 630.932 249.531 629.087C249.842 627.084 250.503 625.433 251.514 624.132C252.525 622.832 253.763 621.81 255.228 621.065C256.753 620.276 258.461 619.705 260.351 619.35C262.294 619.004 264.348 618.81 266.513 618.768L273.758 618.515C274.625 618.488 275.404 618.339 276.094 618.068C276.844 617.753 277.293 617.121 277.44 616.172C277.808 613.8 277.37 611.924 276.127 610.544C274.937 609.172 273.156 608.302 270.784 607.934C265.725 607.15 262.529 609.137 261.197 613.896L252.764 611.373C254.079 607.421 256.345 604.642 259.562 603.037C262.788 601.378 266.904 600.937 271.911 601.714C277.181 602.531 280.994 604.391 283.351 607.293C285.768 610.15 286.617 613.898 285.898 618.536L283.568 633.556C283.356 634.927 283.415 635.934 283.747 636.58C284.087 637.172 284.784 637.55 285.838 637.713L287.261 637.934ZM263.41 635.125C266.73 635.64 269.62 634.928 272.079 632.989C274.539 631.05 276.071 628.13 276.676 624.23L265.952 624.995C261.297 625.083 258.737 626.629 258.271 629.633C258.042 631.109 258.367 632.319 259.245 633.265C260.177 634.219 261.565 634.839 263.41 635.125Z" fill="#0F223C"/>
<path d="M298.746 644.045L296.19 584.099L304.902 583.728L307.458 643.673L298.746 644.045Z" fill="#0F223C"/>
<path d="M344.359 638.617C341.365 639.395 338.508 639.641 335.789 639.355C333.057 639.018 330.566 638.232 328.317 636.998C326.054 635.712 324.092 633.99 322.429 631.832C320.805 629.609 319.597 626.975 318.806 623.929C318.015 620.883 317.795 618.02 318.145 615.339C318.548 612.645 319.431 610.211 320.795 608.039C322.146 605.814 323.94 603.916 326.176 602.343C328.412 600.77 331.028 599.595 334.022 598.817C337.016 598.04 339.872 597.794 342.591 598.079C345.311 598.365 347.776 599.157 349.987 600.457C352.236 601.691 354.166 603.394 355.777 605.565C357.439 607.723 358.666 610.325 359.457 613.371C360.248 616.416 360.449 619.312 360.06 622.058C359.71 624.739 358.859 627.191 357.508 629.416C356.196 631.575 354.428 633.467 352.205 635.091C349.968 636.664 347.353 637.839 344.359 638.617ZM342.589 631.803C344.344 631.347 345.864 630.622 347.149 629.627C348.471 628.567 349.501 627.335 350.239 625.931C350.963 624.476 351.401 622.874 351.553 621.127C351.757 619.366 351.604 617.504 351.095 615.543C350.599 613.633 349.833 611.958 348.798 610.519C347.814 609.066 346.659 607.906 345.332 607.038C343.991 606.119 342.491 605.544 340.834 605.314C339.214 605.018 337.527 605.098 335.771 605.554C334.016 606.01 332.477 606.768 331.155 607.828C329.87 608.822 328.84 610.054 328.065 611.523C327.327 612.927 326.882 614.503 326.73 616.25C326.578 617.998 326.75 619.827 327.246 621.737C327.755 623.699 328.502 625.406 329.485 626.858C330.469 628.311 331.631 629.497 332.972 630.416C334.351 631.27 335.85 631.845 337.47 632.141C339.128 632.371 340.834 632.259 342.589 631.803Z" fill="#0F223C"/>
<path d="M370.466 592.564C370.479 590.01 371.248 587.563 372.771 585.224C374.342 582.858 376.605 580.876 379.56 579.278L383.404 586.385C379.088 588.719 376.406 591.383 375.357 594.376C374.329 597.296 375.007 600.961 377.392 605.371L386.146 621.556L378.476 625.704L359.675 590.942L367.345 586.794L370.466 592.564Z" fill="#0F223C"/>
<path d="M426.963 568.047L403.73 589.229C406.478 591.848 409.381 593.171 412.437 593.199C415.494 593.227 418.244 592.127 420.688 589.899C422.461 588.282 423.621 586.467 424.167 584.454C424.752 582.404 424.679 580.306 423.948 578.158L430.668 573.655C432.27 577.391 432.588 581.143 431.621 584.911C430.654 588.68 428.555 592.037 425.323 594.983C423.037 597.068 420.625 598.617 418.086 599.633C415.548 600.648 413.015 601.116 410.49 601.037C407.967 600.883 405.487 600.221 403.05 599.051C400.616 597.806 398.338 596.021 396.218 593.696C394.098 591.371 392.568 588.94 391.628 586.405C390.653 583.831 390.222 581.3 390.337 578.814C390.455 576.252 391.117 573.772 392.323 571.374C393.528 568.976 395.235 566.771 397.442 564.759C399.53 562.854 401.767 561.428 404.151 560.481C406.5 559.495 408.899 559.04 411.35 559.115C413.8 559.19 416.243 559.851 418.677 561.096C421.114 562.265 423.447 564.072 425.675 566.515L426.963 568.047ZM402.136 569.789C399.89 571.837 398.503 574.076 397.975 576.505C397.412 578.895 397.937 581.411 399.552 584.053L416.046 569.015C413.79 567.175 411.43 566.367 408.966 566.593C406.501 566.819 404.225 567.884 402.136 569.789Z" fill="#0F223C"/>
<path d="M458.478 555.604C457.28 557.497 455.964 559.125 454.531 560.49C453.098 561.855 451.562 562.934 449.924 563.727C448.313 564.475 446.652 564.906 444.938 565.02C443.179 565.105 441.448 564.798 439.745 564.098L441.951 556.878C444.248 557.638 446.326 557.597 448.185 556.755C450.073 555.867 451.659 554.41 452.943 552.382C454.056 550.625 454.587 548.941 454.534 547.329C454.51 545.673 453.778 544.388 452.336 543.474C451.435 542.904 450.571 542.672 449.745 542.78C448.903 542.815 448.059 543.101 447.213 543.638C446.351 544.102 445.507 544.736 444.683 545.54C443.813 546.315 442.96 547.163 442.123 548.085C440.752 549.552 439.384 550.864 438.021 552.02C436.685 553.132 435.315 554 433.909 554.624C432.532 555.204 431.117 555.444 429.664 555.345C428.212 555.246 426.697 554.697 425.121 553.698C421.967 551.7 420.253 548.973 419.98 545.517C419.662 542.033 420.716 538.376 423.142 534.546C424.141 532.969 425.277 531.574 426.551 530.361C427.808 529.074 429.168 528.073 430.631 527.358C432.094 526.643 433.623 526.223 435.218 526.097C436.797 525.897 438.443 526.088 440.158 526.669L437.468 534.056C435.577 533.553 433.863 533.667 432.327 534.398C430.819 535.084 429.494 536.329 428.353 538.131C427.268 539.843 426.744 541.468 426.78 543.006C426.77 544.515 427.397 545.669 428.658 546.469C429.379 546.925 430.116 547.108 430.868 547.016C431.649 546.88 432.434 546.588 433.222 546.14C433.995 545.619 434.815 544.971 435.685 544.196C436.51 543.393 437.363 542.544 438.244 541.651C439.792 540.105 441.284 538.746 442.721 537.573C444.114 536.372 445.535 535.473 446.986 534.877C448.392 534.252 449.844 534.004 451.341 534.132C452.838 534.26 454.443 534.866 456.155 535.95C457.957 537.092 459.283 538.437 460.133 539.985C461.012 541.489 461.531 543.112 461.69 544.854C461.804 546.568 461.564 548.341 460.97 550.175C460.422 552.037 459.591 553.847 458.478 555.604Z" fill="#0F223C"/>
</svg>
