<?xml version="1.0" encoding="utf-8"?>
<!-- Generator: Adobe Illustrator 26.3.1, SVG Export Plug-In . SVG Version: 6.00 Build 0)  -->
<svg version="1.1" id="Capa_1" xmlns="http://www.w3.org/2000/svg" xmlns:xlink="http://www.w3.org/1999/xlink" x="0px" y="0px"
	 viewBox="0 0 59 90" style="enable-background:new 0 0 59 90;" xml:space="preserve">
<style type="text/css">
	.st0{fill:#E9CB9E;}
	.st1{fill:#D68B67;}
	.st2{fill:#E4C76A;}
	.st3{fill:none;stroke:#0F223C;stroke-width:3;}
	.st4{fill:#0F223C;}
</style>
<path class="st0" d="M16.6,83.2L7.8,59.1l9.3-2.9l15.3,4.7l7.8,7.6L16.6,83.2z"/>
<rect x="34.1" y="-3.2" transform="matrix(0.2909 -0.9567 0.9567 0.2909 15.7938 46.9742)" class="st1" width="11" height="32"/>
<path class="st2" d="M8.4,58.7L21,14l31.3,10.6L39,68l-7.3-8.5l-8.4,5.3l-5-9.4L8.4,58.7z"/>
<path class="st3" d="M21.4,14.1L7.6,59.6 M21.4,14.1l9,2.7 M21.4,14.1l3.6-12l31.6,9.6l-3.6,12 M7.6,58.7l9.3,26.2l22.8-16.4
	 M7.6,59.6l10.8-3.4 M39.2,69.2L53,23.7 M39.2,69.2l-7.1-8.8 M53,23.7l-9-2.7 M18.4,56.2l4.4,9.2l9.3-5.1 M18.4,56.2l12-39.4
	 M32.1,60.4l12-39.4 M30.4,16.8L44.1,21"/>
<path class="st4" d="M17,83.8l6.9-4.9l-9.9-3L17,83.8z"/>
</svg>
