<svg width="157" height="193" viewBox="0 0 157 193" fill="none" xmlns="http://www.w3.org/2000/svg">
<rect x="34.0889" y="138.853" width="88.6458" height="30.7305" fill="white"/>
<rect x="26.9971" y="138.853" width="13.0014" height="31.5172" fill="#A2C261"/>
<path d="M29.3606 133.533L128.644 132.942L128.644 138.852L26.4058 139.443L29.3606 133.533Z" fill="#A2C261"/>
<path d="M28.7869 175.493L128.644 176.084L128.644 170.174L25.8149 169.583L28.7869 175.493Z" fill="#A2C261"/>
<path d="M128.644 131.761L38.9771 131.761C31.7078 131.761 25.8149 137.654 25.8149 144.923L25.8149 147.126M128.644 176.675L38.9771 176.675C31.7078 176.675 25.8149 170.782 25.8149 163.513L25.8149 161.014M25.8149 147.126L122.734 147.126M25.8149 147.126L25.8149 161.014M25.8149 161.014L122.734 161.014" stroke="#0F223C" stroke-width="3.94863"/>
<rect x="44.0449" y="94.5605" width="88.6458" height="30.7305" transform="rotate(-16.5408 44.0449 94.5605)" fill="white"/>
<rect x="37.2466" y="96.5791" width="13.0014" height="31.8003" transform="rotate(-16.5408 37.2466 96.5791)" fill="#BF985E"/>
<path d="M37.9984 90.8083L133.005 61.976L134.688 67.6411L36.8483 97.3147L37.9984 90.8083Z" fill="#BF985E"/>
<path d="M49.3941 131.194L145.287 103.331L143.605 97.6661L44.8626 126.375L49.3941 131.194Z" fill="#BF985E"/>
<path d="M132.669 60.8429L46.7122 86.3709C39.7437 88.4405 35.7724 95.7672 37.842 102.736L38.4692 104.848M145.455 103.898L59.499 129.426C52.5306 131.496 45.2039 127.524 43.1344 120.556L42.423 118.161M38.4692 104.848L131.378 77.2548M38.4692 104.848L42.423 118.161M42.423 118.161L135.332 90.568" stroke="#0F223C" stroke-width="3.94863"/>
<rect x="114.635" y="57.7646" width="88.6458" height="30.7305" transform="rotate(-178.263 114.635 57.7646)" fill="white"/>
<rect x="121.724" y="57.9785" width="13.0014" height="31.738" transform="rotate(-178.263 121.724 57.9785)" fill="#D68B67"/>
<path d="M119.2 63.2231L19.9443 60.8046L20.1235 54.8976L122.333 57.4056L119.2 63.2231Z" fill="#D68B67"/>
<path d="M119.377 21.7481L21.2516 17.6847L21.0724 23.5917L124.01 27.2777L119.377 21.7481Z" fill="#D68B67"/>
<path d="M19.9085 61.9869L109.534 64.7046C116.8 64.9249 122.869 59.2133 123.089 51.9474L123.156 49.7453M21.2698 17.0936L110.896 19.8113C118.162 20.0317 123.873 26.1004 123.653 33.3663L123.577 35.8638M123.156 49.7453L26.2813 46.8078M123.156 49.7453L123.577 35.8638M123.577 35.8638L26.7022 32.9263" stroke="#0F223C" stroke-width="3.94863"/>
</svg>
