<svg width="25" height="38" viewBox="0 0 25 38" fill="none" xmlns="http://www.w3.org/2000/svg">
<mask id="path-1-inside-1_393_65" fill="white">
<path fill-rule="evenodd" clip-rule="evenodd" d="M25 12.5C25 15.1244 24.1913 17.5598 22.8094 19.5708L12.5457 37.5012L1.65092 18.7915L1.6963 18.7913C0.617886 16.9435 0 14.7939 0 12.5C0 5.59644 5.59644 0 12.5 0C19.4036 0 25 5.59644 25 12.5ZM12.2282 17.3914C14.7796 17.3914 16.8478 15.3232 16.8478 12.7718C16.8478 10.2205 14.7796 8.15228 12.2282 8.15228C9.67693 8.15228 7.60868 10.2205 7.60868 12.7718C7.60868 15.3232 9.67693 17.3914 12.2282 17.3914Z"/>
</mask>
<path fill-rule="evenodd" clip-rule="evenodd" d="M25 12.5C25 15.1244 24.1913 17.5598 22.8094 19.5708L12.5457 37.5012L1.65092 18.7915L1.6963 18.7913C0.617886 16.9435 0 14.7939 0 12.5C0 5.59644 5.59644 0 12.5 0C19.4036 0 25 5.59644 25 12.5ZM12.2282 17.3914C14.7796 17.3914 16.8478 15.3232 16.8478 12.7718C16.8478 10.2205 14.7796 8.15228 12.2282 8.15228C9.67693 8.15228 7.60868 10.2205 7.60868 12.7718C7.60868 15.3232 9.67693 17.3914 12.2282 17.3914Z" fill="#A2C261"/>
<path d="M22.8094 19.5708L20.955 18.2965L20.9026 18.3727L20.8566 18.453L22.8094 19.5708ZM12.5457 37.5012L10.6013 38.6335L12.5624 42.0013L14.4985 38.619L12.5457 37.5012ZM1.65092 18.7915L1.6426 16.5415L-2.2546 16.5559L-0.293484 19.9238L1.65092 18.7915ZM1.6963 18.7913L1.70462 21.0414L5.60615 21.0269L3.63962 17.6572L1.6963 18.7913ZM24.6638 20.8451C26.2951 18.4711 27.25 15.5937 27.25 12.5H22.75C22.75 14.655 22.0874 16.6485 20.955 18.2965L24.6638 20.8451ZM14.4985 38.619L24.7621 20.6886L20.8566 18.453L10.593 36.3835L14.4985 38.619ZM-0.293484 19.9238L10.6013 38.6335L14.4901 36.369L3.59533 17.6593L-0.293484 19.9238ZM1.68798 16.5413L1.6426 16.5415L1.65924 21.0415L1.70462 21.0414L1.68798 16.5413ZM-2.25004 12.5C-2.25004 15.2031 -1.52086 17.7427 -0.247016 19.9255L3.63962 17.6572C2.75663 16.1442 2.25004 14.3847 2.25004 12.5H-2.25004ZM12.5 -2.25004C4.35378 -2.25004 -2.25004 4.35378 -2.25004 12.5H2.25004C2.25004 6.8391 6.8391 2.25004 12.5 2.25004V-2.25004ZM27.25 12.5C27.25 4.35378 20.6462 -2.25004 12.5 -2.25004V2.25004C18.1609 2.25004 22.75 6.8391 22.75 12.5H27.25ZM14.5978 12.7718C14.5978 14.0805 13.5369 15.1414 12.2282 15.1414V19.6414C16.0222 19.6414 19.0979 16.5658 19.0979 12.7718H14.5978ZM12.2282 10.4023C13.5369 10.4023 14.5978 11.4632 14.5978 12.7718H19.0979C19.0979 8.97787 16.0222 5.90224 12.2282 5.90224V10.4023ZM9.85872 12.7718C9.85872 11.4632 10.9196 10.4023 12.2282 10.4023V5.90224C8.43427 5.90224 5.35864 8.97787 5.35864 12.7718H9.85872ZM12.2282 15.1414C10.9196 15.1414 9.85872 14.0805 9.85872 12.7718H5.35864C5.35864 16.5658 8.43427 19.6414 12.2282 19.6414V15.1414Z" fill="#0F223C" mask="url(#path-1-inside-1_393_65)"/>
</svg>
