<svg width="347" height="256" viewBox="0 0 347 256" fill="none" xmlns="http://www.w3.org/2000/svg">
<rect x="1.5" y="1.5" width="305" height="253" rx="46.5" stroke="#0F223C" stroke-width="3"/>
<path d="M27.5282 215.26V199.883H37.169V201.88H29.8483V206.565H36.6659V208.555H29.8483V213.263H37.2591V215.26H27.5282ZM48.7299 206.543L46.6952 206.903C46.6101 206.643 46.4749 206.395 46.2897 206.16C46.1095 205.924 45.8642 205.732 45.5539 205.582C45.2436 205.431 44.8556 205.356 44.3901 205.356C43.7544 205.356 43.2238 205.499 42.7983 205.784C42.3729 206.065 42.1601 206.427 42.1601 206.873C42.1601 207.258 42.3028 207.569 42.5881 207.804C42.8734 208.039 43.3339 208.232 43.9696 208.382L45.8017 208.803C46.8629 209.048 47.6537 209.426 48.1743 209.936C48.6949 210.447 48.9552 211.11 48.9552 211.926C48.9552 212.617 48.755 213.233 48.3545 213.773C47.9591 214.309 47.406 214.729 46.6952 215.035C45.9894 215.34 45.171 215.493 44.2399 215.493C42.9485 215.493 41.8948 215.217 41.0789 214.667C40.263 214.111 39.7625 213.323 39.5773 212.301L41.7472 211.971C41.8823 212.537 42.1601 212.965 42.5806 213.255C43.0011 213.54 43.5492 213.683 44.2249 213.683C44.9607 213.683 45.5489 213.53 45.9894 213.225C46.4299 212.915 46.6501 212.537 46.6501 212.091C46.6501 211.731 46.515 211.428 46.2447 211.183C45.9794 210.937 45.5714 210.752 45.0208 210.627L43.0686 210.199C41.9924 209.954 41.1966 209.563 40.681 209.028C40.1704 208.492 39.9151 207.814 39.9151 206.993C39.9151 206.312 40.1053 205.717 40.4858 205.206C40.8662 204.696 41.3918 204.298 42.0625 204.012C42.7333 203.722 43.5016 203.577 44.3676 203.577C45.614 203.577 46.5951 203.847 47.3109 204.388C48.0267 204.923 48.4997 205.642 48.7299 206.543ZM56.807 203.727V205.529H50.5075V203.727H56.807ZM52.1969 200.964H54.4419V211.874C54.4419 212.309 54.507 212.637 54.6371 212.857C54.7673 213.072 54.935 213.22 55.1402 213.3C55.3504 213.375 55.5782 213.413 55.8234 213.413C56.0036 213.413 56.1613 213.4 56.2965 213.375C56.4316 213.35 56.5367 213.33 56.6118 213.315L57.0173 215.17C56.8871 215.22 56.7019 215.27 56.4616 215.32C56.2214 215.375 55.921 215.405 55.5606 215.41C54.97 215.42 54.4194 215.315 53.9088 215.095C53.3982 214.874 52.9853 214.534 52.6699 214.073C52.3546 213.613 52.1969 213.035 52.1969 212.339V200.964ZM66.596 210.477V203.727H68.8485V215.26H66.6411V213.263H66.521C66.2557 213.878 65.8302 214.391 65.2445 214.802C64.6639 215.207 63.9406 215.41 63.0746 215.41C62.3338 215.41 61.6781 215.247 61.1074 214.922C60.5418 214.592 60.0963 214.103 59.771 213.458C59.4506 212.812 59.2904 212.014 59.2904 211.063V203.727H61.5354V210.792C61.5354 211.578 61.7532 212.204 62.1886 212.669C62.6241 213.135 63.1898 213.368 63.8855 213.368C64.306 213.368 64.724 213.263 65.1394 213.052C65.5599 212.842 65.9078 212.524 66.1831 212.099C66.4634 211.673 66.601 211.133 66.596 210.477ZM76.1823 215.485C75.2513 215.485 74.4204 215.247 73.6895 214.772C72.9637 214.291 72.3931 213.608 71.9776 212.722C71.5672 211.831 71.362 210.762 71.362 209.516C71.362 208.269 71.5697 207.203 71.9851 206.317C72.4056 205.431 72.9813 204.753 73.7121 204.283C74.4429 203.812 75.2713 203.577 76.1973 203.577C76.9131 203.577 77.4888 203.697 77.9243 203.937C78.3647 204.172 78.7051 204.448 78.9454 204.763C79.1907 205.078 79.3809 205.356 79.516 205.597H79.6512V199.883H81.8962V215.26H79.7037V213.465H79.516C79.3809 213.711 79.1857 213.991 78.9304 214.306C78.6801 214.622 78.3347 214.897 77.8942 215.132C77.4537 215.367 76.8831 215.485 76.1823 215.485ZM76.6779 213.57C77.3236 213.57 77.8692 213.4 78.3147 213.06C78.7652 212.714 79.1056 212.236 79.3358 211.626C79.5711 211.015 79.6887 210.304 79.6887 209.493C79.6887 208.692 79.5736 207.992 79.3433 207.391C79.1131 206.79 78.7752 206.322 78.3297 205.987C77.8842 205.652 77.3336 205.484 76.6779 205.484C76.0021 205.484 75.439 205.659 74.9885 206.009C74.538 206.36 74.1976 206.838 73.9674 207.444C73.7421 208.049 73.6295 208.733 73.6295 209.493C73.6295 210.264 73.7446 210.957 73.9749 211.573C74.2051 212.189 74.5455 212.677 74.996 213.037C75.4515 213.393 76.0121 213.57 76.6779 213.57ZM85.1004 215.26V203.727H87.3453V215.26H85.1004ZM86.2341 201.947C85.8437 201.947 85.5083 201.817 85.228 201.557C84.9527 201.292 84.815 200.976 84.815 200.611C84.815 200.241 84.9527 199.925 85.228 199.665C85.5083 199.4 85.8437 199.267 86.2341 199.267C86.6245 199.267 86.9574 199.4 87.2327 199.665C87.513 199.925 87.6532 200.241 87.6532 200.611C87.6532 200.976 87.513 201.292 87.2327 201.557C86.9574 201.817 86.6245 201.947 86.2341 201.947ZM93.7218 215.515C92.991 215.515 92.3303 215.38 91.7396 215.11C91.1489 214.834 90.6809 214.436 90.3355 213.916C89.9952 213.395 89.825 212.757 89.825 212.001C89.825 211.35 89.9501 210.815 90.2004 210.394C90.4507 209.974 90.7885 209.641 91.214 209.396C91.6395 209.15 92.115 208.965 92.6406 208.84C93.1662 208.715 93.7018 208.62 94.2474 208.555C94.9382 208.475 95.4988 208.41 95.9293 208.36C96.3597 208.305 96.6726 208.217 96.8678 208.097C97.063 207.977 97.1606 207.781 97.1606 207.511V207.459C97.1606 206.803 96.9754 206.295 96.605 205.934C96.2396 205.574 95.694 205.394 94.9682 205.394C94.2124 205.394 93.6167 205.561 93.1812 205.897C92.7507 206.227 92.4529 206.595 92.2877 207.001L90.1779 206.52C90.4281 205.819 90.7936 205.254 91.2741 204.823C91.7596 204.388 92.3177 204.072 92.9484 203.877C93.5791 203.677 94.2424 203.577 94.9382 203.577C95.3987 203.577 95.8867 203.632 96.4023 203.742C96.9229 203.847 97.4084 204.042 97.8589 204.328C98.3144 204.613 98.6873 205.021 98.9776 205.551C99.268 206.077 99.4131 206.76 99.4131 207.601V215.26H97.2207V213.683H97.1306C96.9854 213.973 96.7677 214.259 96.4774 214.539C96.187 214.819 95.8141 215.052 95.3586 215.237C94.9031 215.422 94.3575 215.515 93.7218 215.515ZM94.2098 213.713C94.8305 213.713 95.3611 213.59 95.8016 213.345C96.2471 213.1 96.585 212.78 96.8152 212.384C97.0505 211.984 97.1681 211.556 97.1681 211.1V209.613C97.088 209.694 96.9329 209.769 96.7026 209.839C96.4774 209.904 96.2196 209.961 95.9293 210.011C95.6389 210.056 95.3561 210.099 95.0808 210.139C94.8055 210.174 94.5753 210.204 94.39 210.229C93.9546 210.284 93.5566 210.377 93.1962 210.507C92.8408 210.637 92.5555 210.825 92.3403 211.07C92.13 211.31 92.0249 211.631 92.0249 212.031C92.0249 212.587 92.2301 213.007 92.6406 213.293C93.0511 213.573 93.5741 213.713 94.2098 213.713ZM104.648 208.412V215.26H102.403V203.727H104.558V205.604H104.701C104.966 204.993 105.382 204.503 105.947 204.132C106.518 203.762 107.236 203.577 108.102 203.577C108.888 203.577 109.576 203.742 110.167 204.072C110.758 204.398 111.216 204.883 111.541 205.529C111.866 206.175 112.029 206.973 112.029 207.924V215.26H109.784V208.194C109.784 207.358 109.566 206.705 109.131 206.235C108.695 205.759 108.097 205.521 107.336 205.521C106.816 205.521 106.353 205.634 105.947 205.859C105.547 206.085 105.229 206.415 104.994 206.85C104.763 207.281 104.648 207.801 104.648 208.412ZM120.423 203.727V205.529H114.124V203.727H120.423ZM115.813 200.964H118.058V211.874C118.058 212.309 118.123 212.637 118.253 212.857C118.384 213.072 118.551 213.22 118.757 213.3C118.967 213.375 119.194 213.413 119.44 213.413C119.62 213.413 119.778 213.4 119.913 213.375C120.048 213.35 120.153 213.33 120.228 213.315L120.634 215.17C120.503 215.22 120.318 215.27 120.078 215.32C119.838 215.375 119.537 215.405 119.177 215.41C118.586 215.42 118.036 215.315 117.525 215.095C117.015 214.874 116.602 214.534 116.286 214.073C115.971 213.613 115.813 213.035 115.813 212.339V200.964ZM127.753 215.493C126.617 215.493 125.639 215.25 124.818 214.764C124.002 214.274 123.371 213.585 122.926 212.699C122.485 211.808 122.265 210.765 122.265 209.568C122.265 208.387 122.485 207.346 122.926 206.445C123.371 205.544 123.992 204.841 124.788 204.335C125.588 203.83 126.525 203.577 127.596 203.577C128.246 203.577 128.877 203.684 129.488 203.9C130.098 204.115 130.647 204.453 131.132 204.913C131.618 205.374 132.001 205.972 132.281 206.708C132.561 207.439 132.701 208.327 132.701 209.373V210.169H123.534V208.487H130.501C130.501 207.897 130.381 207.374 130.141 206.918C129.901 206.457 129.563 206.095 129.127 205.829C128.697 205.564 128.191 205.431 127.611 205.431C126.98 205.431 126.429 205.587 125.959 205.897C125.493 206.202 125.133 206.603 124.878 207.098C124.627 207.589 124.502 208.122 124.502 208.697V210.011C124.502 210.782 124.637 211.438 124.908 211.979C125.183 212.519 125.566 212.932 126.056 213.217C126.547 213.498 127.12 213.638 127.776 213.638C128.201 213.638 128.589 213.578 128.94 213.458C129.29 213.333 129.593 213.147 129.848 212.902C130.103 212.657 130.299 212.354 130.434 211.994L132.559 212.377C132.389 213.002 132.083 213.55 131.643 214.021C131.207 214.486 130.659 214.849 129.998 215.11C129.343 215.365 128.594 215.493 127.753 215.493ZM143.834 206.543L141.8 206.903C141.715 206.643 141.579 206.395 141.394 206.16C141.214 205.924 140.969 205.732 140.658 205.582C140.348 205.431 139.96 205.356 139.495 205.356C138.859 205.356 138.328 205.499 137.903 205.784C137.477 206.065 137.265 206.427 137.265 206.873C137.265 207.258 137.407 207.569 137.693 207.804C137.978 208.039 138.438 208.232 139.074 208.382L140.906 208.803C141.967 209.048 142.758 209.426 143.279 209.936C143.799 210.447 144.06 211.11 144.06 211.926C144.06 212.617 143.859 213.233 143.459 213.773C143.064 214.309 142.51 214.729 141.8 215.035C141.094 215.34 140.275 215.493 139.344 215.493C138.053 215.493 136.999 215.217 136.183 214.667C135.367 214.111 134.867 213.323 134.682 212.301L136.852 211.971C136.987 212.537 137.265 212.965 137.685 213.255C138.106 213.54 138.654 213.683 139.329 213.683C140.065 213.683 140.653 213.53 141.094 213.225C141.534 212.915 141.755 212.537 141.755 212.091C141.755 211.731 141.619 211.428 141.349 211.183C141.084 210.937 140.676 210.752 140.125 210.627L138.173 210.199C137.097 209.954 136.301 209.563 135.785 209.028C135.275 208.492 135.02 207.814 135.02 206.993C135.02 206.312 135.21 205.717 135.59 205.206C135.971 204.696 136.496 204.298 137.167 204.012C137.838 203.722 138.606 203.577 139.472 203.577C140.718 203.577 141.699 203.847 142.415 204.388C143.131 204.923 143.604 205.642 143.834 206.543ZM152.304 215.26V199.883H154.549V205.597H154.684C154.814 205.356 155.002 205.078 155.247 204.763C155.492 204.448 155.833 204.172 156.268 203.937C156.704 203.697 157.279 203.577 157.995 203.577C158.926 203.577 159.757 203.812 160.488 204.283C161.219 204.753 161.792 205.431 162.207 206.317C162.628 207.203 162.838 208.269 162.838 209.516C162.838 210.762 162.63 211.831 162.215 212.722C161.799 213.608 161.229 214.291 160.503 214.772C159.777 215.247 158.949 215.485 158.018 215.485C157.317 215.485 156.744 215.367 156.298 215.132C155.858 214.897 155.512 214.622 155.262 214.306C155.012 213.991 154.819 213.711 154.684 213.465H154.496V215.26H152.304ZM154.504 209.493C154.504 210.304 154.621 211.015 154.857 211.626C155.092 212.236 155.432 212.714 155.878 213.06C156.323 213.4 156.869 213.57 157.515 213.57C158.185 213.57 158.746 213.393 159.196 213.037C159.647 212.677 159.987 212.189 160.218 211.573C160.453 210.957 160.57 210.264 160.57 209.493C160.57 208.733 160.455 208.049 160.225 207.444C160 206.838 159.659 206.36 159.204 206.009C158.753 205.659 158.19 205.484 157.515 205.484C156.864 205.484 156.313 205.652 155.863 205.987C155.417 206.322 155.079 206.79 154.849 207.391C154.619 207.992 154.504 208.692 154.504 209.493ZM170.329 215.493C169.193 215.493 168.215 215.25 167.394 214.764C166.578 214.274 165.947 213.585 165.502 212.699C165.061 211.808 164.841 210.765 164.841 209.568C164.841 208.387 165.061 207.346 165.502 206.445C165.947 205.544 166.568 204.841 167.364 204.335C168.165 203.83 169.101 203.577 170.172 203.577C170.822 203.577 171.453 203.684 172.064 203.9C172.675 204.115 173.223 204.453 173.708 204.913C174.194 205.374 174.577 205.972 174.857 206.708C175.137 207.439 175.277 208.327 175.277 209.373V210.169H166.11V208.487H173.078C173.078 207.897 172.957 207.374 172.717 206.918C172.477 206.457 172.139 206.095 171.703 205.829C171.273 205.564 170.767 205.431 170.187 205.431C169.556 205.431 169.005 205.587 168.535 205.897C168.069 206.202 167.709 206.603 167.454 207.098C167.203 207.589 167.078 208.122 167.078 208.697V210.011C167.078 210.782 167.213 211.438 167.484 211.979C167.759 212.519 168.142 212.932 168.633 213.217C169.123 213.498 169.696 213.638 170.352 213.638C170.777 213.638 171.165 213.578 171.516 213.458C171.866 213.333 172.169 213.147 172.424 212.902C172.68 212.657 172.875 212.354 173.01 211.994L175.135 212.377C174.965 213.002 174.659 213.55 174.219 214.021C173.783 214.486 173.235 214.849 172.574 215.11C171.919 215.365 171.17 215.493 170.329 215.493ZM180.013 208.412V215.26H177.768V203.727H179.923V205.604H180.066C180.331 204.993 180.747 204.503 181.312 204.132C181.883 203.762 182.601 203.577 183.467 203.577C184.253 203.577 184.941 203.742 185.532 204.072C186.123 204.398 186.581 204.883 186.906 205.529C187.231 206.175 187.394 206.973 187.394 207.924V215.26H185.149V208.194C185.149 207.358 184.931 206.705 184.496 206.235C184.06 205.759 183.462 205.521 182.701 205.521C182.181 205.521 181.718 205.634 181.312 205.859C180.912 206.085 180.594 206.415 180.359 206.85C180.128 207.281 180.013 207.801 180.013 208.412ZM195.375 215.493C194.239 215.493 193.261 215.25 192.44 214.764C191.624 214.274 190.993 213.585 190.548 212.699C190.107 211.808 189.887 210.765 189.887 209.568C189.887 208.387 190.107 207.346 190.548 206.445C190.993 205.544 191.614 204.841 192.41 204.335C193.211 203.83 194.147 203.577 195.218 203.577C195.868 203.577 196.499 203.684 197.11 203.9C197.721 204.115 198.269 204.453 198.754 204.913C199.24 205.374 199.623 205.972 199.903 206.708C200.183 207.439 200.323 208.327 200.323 209.373V210.169H191.156V208.487H198.123C198.123 207.897 198.003 207.374 197.763 206.918C197.523 206.457 197.185 206.095 196.749 205.829C196.319 205.564 195.813 205.431 195.233 205.431C194.602 205.431 194.051 205.587 193.581 205.897C193.115 206.202 192.755 206.603 192.5 207.098C192.249 207.589 192.124 208.122 192.124 208.697V210.011C192.124 210.782 192.259 211.438 192.53 211.979C192.805 212.519 193.188 212.932 193.679 213.217C194.169 213.498 194.742 213.638 195.398 213.638C195.823 213.638 196.211 213.578 196.562 213.458C196.912 213.333 197.215 213.147 197.47 212.902C197.726 212.657 197.921 212.354 198.056 211.994L200.181 212.377C200.011 213.002 199.705 213.55 199.265 214.021C198.829 214.486 198.281 214.849 197.62 215.11C196.965 215.365 196.216 215.493 195.375 215.493ZM208.303 203.727V205.529H201.786V203.727H208.303ZM203.573 215.26V202.39C203.573 201.67 203.73 201.071 204.046 200.596C204.361 200.115 204.779 199.758 205.3 199.522C205.82 199.282 206.386 199.162 206.996 199.162C207.447 199.162 207.832 199.199 208.153 199.275C208.473 199.345 208.711 199.41 208.866 199.47L208.34 201.287C208.235 201.257 208.1 201.222 207.935 201.182C207.77 201.137 207.57 201.114 207.334 201.114C206.789 201.114 206.398 201.249 206.163 201.519C205.933 201.79 205.818 202.18 205.818 202.691V215.26H203.573ZM210.619 215.26V203.727H212.864V215.26H210.619ZM211.753 201.947C211.363 201.947 211.027 201.817 210.747 201.557C210.472 201.292 210.334 200.976 210.334 200.611C210.334 200.241 210.472 199.925 210.747 199.665C211.027 199.4 211.363 199.267 211.753 199.267C212.143 199.267 212.476 199.4 212.752 199.665C213.032 199.925 213.172 200.241 213.172 200.611C213.172 200.976 213.032 201.292 212.752 201.557C212.476 201.817 212.143 201.947 211.753 201.947ZM220.742 215.493C219.626 215.493 218.665 215.24 217.859 214.734C217.058 214.224 216.443 213.52 216.012 212.624C215.582 211.728 215.366 210.702 215.366 209.546C215.366 208.375 215.587 207.341 216.027 206.445C216.468 205.544 217.088 204.841 217.889 204.335C218.69 203.83 219.634 203.577 220.72 203.577C221.596 203.577 222.377 203.739 223.062 204.065C223.748 204.385 224.301 204.836 224.722 205.416C225.147 205.997 225.4 206.675 225.48 207.451H223.295C223.175 206.91 222.9 206.445 222.469 206.055C222.044 205.664 221.473 205.469 220.757 205.469C220.132 205.469 219.584 205.634 219.113 205.964C218.648 206.29 218.285 206.755 218.024 207.361C217.764 207.962 217.634 208.672 217.634 209.493C217.634 210.334 217.762 211.06 218.017 211.671C218.272 212.281 218.633 212.754 219.098 213.09C219.569 213.425 220.122 213.593 220.757 213.593C221.183 213.593 221.568 213.515 221.914 213.36C222.264 213.2 222.557 212.972 222.792 212.677C223.032 212.382 223.2 212.026 223.295 211.611H225.48C225.4 212.357 225.157 213.022 224.752 213.608C224.346 214.194 223.803 214.654 223.122 214.989C222.447 215.325 221.653 215.493 220.742 215.493ZM227.881 215.26V203.727H230.126V215.26H227.881ZM229.015 201.947C228.624 201.947 228.289 201.817 228.009 201.557C227.733 201.292 227.596 200.976 227.596 200.611C227.596 200.241 227.733 199.925 228.009 199.665C228.289 199.4 228.624 199.267 229.015 199.267C229.405 199.267 229.738 199.4 230.013 199.665C230.294 199.925 230.434 200.241 230.434 200.611C230.434 200.976 230.294 201.292 230.013 201.557C229.738 201.817 229.405 201.947 229.015 201.947ZM236.502 215.515C235.772 215.515 235.111 215.38 234.52 215.11C233.929 214.834 233.461 214.436 233.116 213.916C232.776 213.395 232.606 212.757 232.606 212.001C232.606 211.35 232.731 210.815 232.981 210.394C233.231 209.974 233.569 209.641 233.995 209.396C234.42 209.15 234.896 208.965 235.421 208.84C235.947 208.715 236.482 208.62 237.028 208.555C237.719 208.475 238.279 208.41 238.71 208.36C239.14 208.305 239.453 208.217 239.648 208.097C239.844 207.977 239.941 207.781 239.941 207.511V207.459C239.941 206.803 239.756 206.295 239.386 205.934C239.02 205.574 238.475 205.394 237.749 205.394C236.993 205.394 236.397 205.561 235.962 205.897C235.531 206.227 235.233 206.595 235.068 207.001L232.958 206.52C233.209 205.819 233.574 205.254 234.055 204.823C234.54 204.388 235.098 204.072 235.729 203.877C236.36 203.677 237.023 203.577 237.719 203.577C238.179 203.577 238.667 203.632 239.183 203.742C239.703 203.847 240.189 204.042 240.639 204.328C241.095 204.613 241.468 205.021 241.758 205.551C242.049 206.077 242.194 206.76 242.194 207.601V215.26H240.001V213.683H239.911C239.766 213.973 239.548 214.259 239.258 214.539C238.968 214.819 238.595 215.052 238.139 215.237C237.684 215.422 237.138 215.515 236.502 215.515ZM236.99 213.713C237.611 213.713 238.142 213.59 238.582 213.345C239.028 213.1 239.366 212.78 239.596 212.384C239.831 211.984 239.949 211.556 239.949 211.1V209.613C239.869 209.694 239.713 209.769 239.483 209.839C239.258 209.904 239 209.961 238.71 210.011C238.419 210.056 238.137 210.099 237.861 210.139C237.586 210.174 237.356 210.204 237.171 210.229C236.735 210.284 236.337 210.377 235.977 210.507C235.621 210.637 235.336 210.825 235.121 211.07C234.911 211.31 234.805 211.631 234.805 212.031C234.805 212.587 235.011 213.007 235.421 213.293C235.832 213.573 236.355 213.713 236.99 213.713ZM249.501 215.485C248.57 215.485 247.739 215.247 247.008 214.772C246.283 214.291 245.712 213.608 245.297 212.722C244.886 211.831 244.681 210.762 244.681 209.516C244.681 208.269 244.889 207.203 245.304 206.317C245.724 205.431 246.3 204.753 247.031 204.283C247.762 203.812 248.59 203.577 249.516 203.577C250.232 203.577 250.808 203.697 251.243 203.937C251.684 204.172 252.024 204.448 252.264 204.763C252.51 205.078 252.7 205.356 252.835 205.597H252.97V199.883H255.215V215.26H253.023V213.465H252.835C252.7 213.711 252.505 213.991 252.249 214.306C251.999 214.622 251.654 214.897 251.213 215.132C250.773 215.367 250.202 215.485 249.501 215.485ZM249.997 213.57C250.642 213.57 251.188 213.4 251.634 213.06C252.084 212.714 252.424 212.236 252.655 211.626C252.89 211.015 253.008 210.304 253.008 209.493C253.008 208.692 252.892 207.992 252.662 207.391C252.432 206.79 252.094 206.322 251.649 205.987C251.203 205.652 250.652 205.484 249.997 205.484C249.321 205.484 248.758 205.659 248.307 206.009C247.857 206.36 247.516 206.838 247.286 207.444C247.061 208.049 246.948 208.733 246.948 209.493C246.948 210.264 247.063 210.957 247.294 211.573C247.524 212.189 247.864 212.677 248.315 213.037C248.77 213.393 249.331 213.57 249.997 213.57ZM263.277 215.493C262.196 215.493 261.252 215.245 260.446 214.749C259.641 214.254 259.015 213.56 258.569 212.669C258.124 211.778 257.901 210.737 257.901 209.546C257.901 208.35 258.124 207.303 258.569 206.407C259.015 205.511 259.641 204.816 260.446 204.32C261.252 203.825 262.196 203.577 263.277 203.577C264.358 203.577 265.302 203.825 266.108 204.32C266.914 204.816 267.539 205.511 267.985 206.407C268.43 207.303 268.653 208.35 268.653 209.546C268.653 210.737 268.43 211.778 267.985 212.669C267.539 213.56 266.914 214.254 266.108 214.749C265.302 215.245 264.358 215.493 263.277 215.493ZM263.285 213.608C263.985 213.608 264.566 213.423 265.027 213.052C265.487 212.682 265.827 212.189 266.048 211.573C266.273 210.957 266.386 210.279 266.386 209.538C266.386 208.803 266.273 208.127 266.048 207.511C265.827 206.89 265.487 206.392 265.027 206.017C264.566 205.642 263.985 205.454 263.285 205.454C262.579 205.454 261.993 205.642 261.528 206.017C261.067 206.392 260.724 206.89 260.499 207.511C260.279 208.127 260.169 208.803 260.169 209.538C260.169 210.279 260.279 210.957 260.499 211.573C260.724 212.189 261.067 212.682 261.528 213.052C261.993 213.423 262.579 213.608 263.285 213.608ZM279.801 206.543L277.766 206.903C277.681 206.643 277.546 206.395 277.361 206.16C277.181 205.924 276.935 205.732 276.625 205.582C276.315 205.431 275.927 205.356 275.461 205.356C274.826 205.356 274.295 205.499 273.87 205.784C273.444 206.065 273.231 206.427 273.231 206.873C273.231 207.258 273.374 207.569 273.659 207.804C273.945 208.039 274.405 208.232 275.041 208.382L276.873 208.803C277.934 209.048 278.725 209.426 279.245 209.936C279.766 210.447 280.026 211.11 280.026 211.926C280.026 212.617 279.826 213.233 279.426 213.773C279.03 214.309 278.477 214.729 277.766 215.035C277.061 215.34 276.242 215.493 275.311 215.493C274.02 215.493 272.966 215.217 272.15 214.667C271.334 214.111 270.834 213.323 270.648 212.301L272.818 211.971C272.953 212.537 273.231 212.965 273.652 213.255C274.072 213.54 274.62 213.683 275.296 213.683C276.032 213.683 276.62 213.53 277.061 213.225C277.501 212.915 277.721 212.537 277.721 212.091C277.721 211.731 277.586 211.428 277.316 211.183C277.051 210.937 276.643 210.752 276.092 210.627L274.14 210.199C273.064 209.954 272.268 209.563 271.752 209.028C271.242 208.492 270.986 207.814 270.986 206.993C270.986 206.312 271.177 205.717 271.557 205.206C271.937 204.696 272.463 204.298 273.134 204.012C273.804 203.722 274.573 203.577 275.439 203.577C276.685 203.577 277.666 203.847 278.382 204.388C279.098 204.923 279.571 205.642 279.801 206.543Z" fill="#0F223C"/>
<path d="M70.4985 145.371C62.8596 145.371 56.0858 144.065 50.177 141.454C44.301 138.809 39.6654 135.17 36.2703 130.534C32.8752 125.898 31.145 120.561 31.0797 114.522H55.4655C55.5635 116.709 56.2653 118.651 57.5711 120.349C58.8769 122.014 60.6561 123.319 62.9086 124.266C65.1611 125.213 67.7237 125.686 70.5965 125.686C73.4692 125.686 75.9992 125.18 78.1864 124.168C80.4063 123.124 82.1365 121.703 83.377 119.908C84.6175 118.08 85.2214 115.991 85.1888 113.64C85.2214 111.29 84.5522 109.2 83.1811 107.372C81.81 105.544 79.8677 104.124 77.354 103.112C74.873 102.1 71.9349 101.594 68.5398 101.594H58.7953V84.3576H68.5398C71.5105 84.3576 74.1221 83.868 76.3746 82.8886C78.6598 81.9093 80.4389 80.5382 81.7121 78.7753C82.9852 76.9799 83.6055 74.9232 83.5729 72.6054C83.6055 70.3529 83.0669 68.3779 81.9569 66.6804C80.8796 64.9502 79.3617 63.6117 77.403 62.665C75.4769 61.7183 73.2407 61.245 70.6944 61.245C68.0175 61.245 65.5855 61.7183 63.3983 62.665C61.2437 63.6117 59.5298 64.9502 58.2567 66.6804C56.9835 68.4106 56.3143 70.4182 56.249 72.7034H33.0874C33.1527 66.7293 34.8176 61.4735 38.0821 56.9358C41.3466 52.3655 45.7863 48.7909 51.4012 46.212C57.0488 43.633 63.4799 42.3435 70.6944 42.3435C77.8763 42.3435 84.1931 43.6004 89.6448 46.114C95.0965 48.6277 99.3404 52.0554 102.376 56.3972C105.412 60.7063 106.93 65.5868 106.93 71.0385C106.963 76.6861 105.119 81.338 101.397 84.9942C97.7081 88.6504 92.9583 90.9029 87.1475 91.7517V92.5352C94.917 93.4493 100.777 95.9629 104.727 100.076C108.709 104.189 110.685 109.331 110.652 115.501C110.652 121.312 108.938 126.47 105.51 130.975C102.115 135.447 97.3817 138.973 91.3097 141.552C85.2704 144.098 78.3333 145.371 70.4985 145.371ZM170.698 43.7146V144H146.508V66.3376H145.921L123.494 80.0485V59.0904L148.222 43.7146H170.698ZM234.344 146.448C225.595 146.448 218.054 144.375 211.721 140.23C205.388 136.051 200.507 130.061 197.079 122.258C193.652 114.424 191.954 105.006 191.987 94.0042C192.019 83.0029 193.733 73.6664 197.128 65.9948C200.556 58.2906 205.42 52.4308 211.721 48.4155C218.054 44.3675 225.595 42.3435 234.344 42.3435C243.093 42.3435 250.634 44.3675 256.967 48.4155C263.332 52.4308 268.229 58.2906 271.657 65.9948C275.085 73.699 276.782 83.0355 276.75 94.0042C276.75 105.038 275.036 114.473 271.608 122.307C268.18 130.142 263.3 136.133 256.967 140.278C250.666 144.392 243.125 146.448 234.344 146.448ZM234.344 126.617C239.567 126.617 243.794 123.956 247.026 118.635C250.258 113.281 251.858 105.071 251.825 94.0042C251.825 86.757 251.091 80.783 249.622 76.0821C248.153 71.3486 246.112 67.8229 243.501 65.5052C240.889 63.1874 237.837 62.0285 234.344 62.0285C229.153 62.0285 224.958 64.6564 221.759 69.9122C218.56 75.1354 216.944 83.1661 216.911 94.0042C216.879 101.349 217.58 107.438 219.017 112.269C220.486 117.101 222.543 120.708 225.187 123.091C227.831 125.441 230.883 126.617 234.344 126.617Z" fill="#BF985E"/>
<path d="M50.177 141.454L49.0453 143.969L49.0537 143.972L49.0622 143.976L50.177 141.454ZM36.2703 130.534L34.0453 132.163H34.0453L36.2703 130.534ZM31.0797 114.522V111.764H28.2919L28.322 114.551L31.0797 114.522ZM55.4655 114.522L58.2206 114.398L58.1027 111.764H55.4655V114.522ZM57.5711 120.349L55.3852 122.03L55.3931 122.04L55.4011 122.051L57.5711 120.349ZM62.9086 124.266L61.84 126.809L62.9086 124.266ZM78.1864 124.168L79.3445 126.671L79.3526 126.667L79.3607 126.664L78.1864 124.168ZM83.377 119.908L85.646 121.476L85.6525 121.466L85.659 121.457L83.377 119.908ZM85.1888 113.64L82.4312 113.602L82.4307 113.64L82.4312 113.678L85.1888 113.64ZM83.1811 107.372L80.9748 109.027H80.9748L83.1811 107.372ZM77.354 103.112L76.3124 105.666L76.324 105.67L77.354 103.112ZM58.7953 101.594H56.0375V104.352H58.7953V101.594ZM58.7953 84.3576V81.5998H56.0375V84.3576H58.7953ZM76.3746 82.8886L75.2883 80.3537L75.2816 80.3566L75.275 80.3595L76.3746 82.8886ZM81.7121 78.7753L83.9478 80.39L83.9548 80.3803L83.9618 80.3706L81.7121 78.7753ZM83.5729 72.6054L80.8153 72.5655L80.8147 72.6049L80.8153 72.6443L83.5729 72.6054ZM81.9569 66.6804L79.6158 68.1381L79.632 68.164L79.6487 68.1896L81.9569 66.6804ZM77.403 62.665L76.1864 65.1401L76.1946 65.1441L76.2028 65.1481L77.403 62.665ZM63.3983 62.665L62.3028 60.1341L62.2958 60.1371L62.2889 60.1402L63.3983 62.665ZM58.2567 66.6804L60.478 68.3149H60.478L58.2567 66.6804ZM56.249 72.7034V75.4612H58.9292L59.0057 72.7821L56.249 72.7034ZM33.0874 72.7034L30.3297 72.6732L30.2992 75.4612H33.0874V72.7034ZM38.0821 56.9358L40.3208 58.5464L40.3262 58.5388L38.0821 56.9358ZM51.4012 46.212L50.2557 43.7033L50.2502 43.7058L51.4012 46.212ZM89.6448 46.114L88.4901 48.6185L89.6448 46.114ZM102.376 56.3972L100.116 57.9776L100.122 57.9856L102.376 56.3972ZM106.93 71.0385H104.172V71.0464L104.173 71.0544L106.93 71.0385ZM101.397 84.9942L99.4642 83.0269L99.4556 83.0355L101.397 84.9942ZM87.1475 91.7517L86.7489 89.0228L84.3896 89.3674V91.7517H87.1475ZM87.1475 92.5352H84.3896V94.9876L86.8253 95.2742L87.1475 92.5352ZM104.727 100.076L102.738 101.986L102.746 101.995L104.727 100.076ZM110.652 115.501L107.894 115.486L107.894 115.494V115.501H110.652ZM105.51 130.975L103.316 129.305L103.314 129.307L105.51 130.975ZM91.3097 141.552L92.3811 144.093L92.3878 144.09L91.3097 141.552ZM70.4985 142.613C63.1745 142.613 56.7914 141.362 51.2919 138.931L49.0622 143.976C55.3802 146.769 62.5448 148.129 70.4985 148.129V142.613ZM51.3088 138.939C45.8136 136.466 41.5756 133.11 38.4952 128.904L34.0453 132.163C37.7551 137.229 42.7883 141.153 49.0453 143.969L51.3088 138.939ZM38.4952 128.904C35.4584 124.758 33.8968 119.987 33.8374 114.492L28.322 114.551C28.3932 121.135 30.292 127.039 34.0453 132.163L38.4952 128.904ZM31.0797 117.279H55.4655V111.764H31.0797V117.279ZM52.7104 114.645C52.8331 117.384 53.7262 119.873 55.3852 122.03L59.7571 118.667C58.8045 117.429 58.2938 116.033 58.2206 114.398L52.7104 114.645ZM55.4011 122.051C57.0387 124.139 59.2225 125.708 61.84 126.809L63.9771 121.724C62.0897 120.93 60.7152 119.889 59.7412 118.647L55.4011 122.051ZM61.84 126.809C64.4849 127.92 67.4203 128.444 70.5965 128.444V122.928C68.0271 122.928 65.8373 122.506 63.9771 121.724L61.84 126.809ZM70.5965 128.444C73.7934 128.444 76.7313 127.88 79.3445 126.671L77.0284 121.665C75.2671 122.48 73.1451 122.928 70.5965 122.928V128.444ZM79.3607 126.664C81.9651 125.438 84.0957 123.719 85.646 121.476L81.108 118.34C80.1773 119.688 78.8475 120.809 77.0122 121.673L79.3607 126.664ZM85.659 121.457C87.2377 119.13 87.9863 116.479 87.9464 113.602L82.4312 113.678C82.4565 115.502 81.9973 117.03 81.0949 118.359L85.659 121.457ZM87.9464 113.678C87.9872 110.737 87.1355 108.048 85.3874 105.718L80.9748 109.027C81.9689 110.352 82.4556 111.842 82.4312 113.602L87.9464 113.678ZM85.3874 105.718C83.662 103.417 81.2773 101.719 78.384 100.554L76.324 105.67C78.458 106.53 79.958 107.671 80.9748 109.027L85.3874 105.718ZM78.3956 100.559C75.5085 99.3809 72.2004 98.8363 68.5398 98.8363V104.352C71.6694 104.352 74.2375 104.819 76.3124 105.666L78.3956 100.559ZM68.5398 98.8363H58.7953V104.352H68.5398V98.8363ZM61.5532 101.594V84.3576H56.0375V101.594H61.5532ZM58.7953 87.1155H68.5398V81.5998H58.7953V87.1155ZM68.5398 87.1155C71.8113 87.1155 74.8101 86.5761 77.4743 85.4177L75.275 80.3595C73.4342 81.1598 71.2097 81.5998 68.5398 81.5998V87.1155ZM77.461 85.4235C80.1385 84.276 82.342 82.6134 83.9478 80.39L79.4764 77.1606C78.5359 78.4629 77.1811 79.5425 75.2883 80.3537L77.461 85.4235ZM83.9618 80.3706C85.5918 78.0717 86.3708 75.4361 86.3304 72.5666L80.8153 72.6443C80.8402 74.4104 80.3787 75.888 79.4624 77.1801L83.9618 80.3706ZM86.3304 72.6454C86.3701 69.9065 85.7088 67.379 84.2652 65.1711L79.6487 68.1896C80.4249 69.3768 80.8409 70.7993 80.8153 72.5655L86.3304 72.6454ZM84.2981 65.2227C82.9263 63.0195 80.9984 61.3397 78.6031 60.182L76.2028 65.1481C77.7249 65.8837 78.833 66.8808 79.6158 68.1381L84.2981 65.2227ZM78.6195 60.19C76.2506 59.0256 73.5845 58.4871 70.6944 58.4871V64.0028C72.8969 64.0028 74.7032 64.411 76.1864 65.1401L78.6195 60.19ZM70.6944 58.4871C67.6871 58.4871 64.876 59.0203 62.3028 60.1341L64.4937 65.196C66.2949 64.4164 68.3479 64.0028 70.6944 64.0028V58.4871ZM62.2889 60.1402C59.7355 61.2621 57.6217 62.8901 56.0354 65.0459L60.478 68.3149C61.438 67.0102 62.7519 65.9614 64.5077 65.1899L62.2889 60.1402ZM56.0354 65.0458C54.4078 67.2578 53.5725 69.8165 53.4923 72.6246L59.0057 72.7821C59.0561 71.0199 59.5593 69.5634 60.478 68.3149L56.0354 65.0458ZM56.249 69.9455H33.0874V75.4612H56.249V69.9455ZM35.8451 72.7335C35.9046 67.2859 37.4111 62.5909 40.3208 58.5464L35.8434 55.3253C32.2241 60.3561 30.4008 66.1728 30.3297 72.6732L35.8451 72.7335ZM40.3262 58.5388C43.2839 54.398 47.3293 51.117 52.5523 48.7181L50.2502 43.7058C44.2433 46.4648 39.4092 50.3331 35.8379 55.3329L40.3262 58.5388ZM52.5468 48.7206C57.7811 46.3304 63.8115 45.1014 70.6944 45.1014V39.5857C63.1482 39.5857 56.3165 40.9356 50.2557 43.7033L52.5468 48.7206ZM70.6944 45.1014C77.5547 45.1014 83.4645 46.3013 88.4901 48.6185L90.7996 43.6096C84.9217 40.8994 78.1979 39.5857 70.6944 39.5857V45.1014ZM88.4901 48.6185C93.5582 50.9553 97.396 54.0874 100.116 57.9776L104.636 54.8168C101.285 50.0234 96.6349 46.3001 90.7996 43.6096L88.4901 48.6185ZM100.122 57.9856C102.819 61.8132 104.172 66.1347 104.172 71.0385H109.688C109.688 65.0388 108.006 59.5995 104.631 54.8088L100.122 57.9856ZM104.173 71.0544C104.201 76.0248 102.607 79.939 99.4643 83.0269L103.33 86.9615C107.63 82.7369 109.725 77.3473 109.688 71.0225L104.173 71.0544ZM99.4556 83.0355C96.2392 86.2234 92.056 88.2476 86.7489 89.0228L87.5461 94.4806C93.8606 93.5583 99.177 91.0775 103.338 86.9529L99.4556 83.0355ZM84.3896 91.7517V92.5352H89.9053V91.7517H84.3896ZM86.8253 95.2742C94.1946 96.1411 99.3703 98.48 102.738 101.986L106.716 98.166C102.183 93.4459 95.6394 90.7574 87.4697 89.7962L86.8253 95.2742ZM102.746 101.995C106.185 105.547 107.923 109.976 107.894 115.486L113.41 115.516C113.446 108.686 111.234 102.832 106.708 98.1578L102.746 101.995ZM107.894 115.501C107.894 120.726 106.368 125.293 103.316 129.305L107.705 132.645C111.508 127.646 113.41 121.898 113.41 115.501H107.894ZM103.314 129.307C100.256 133.335 95.9391 136.589 90.2316 139.013L92.3878 144.09C98.8243 141.356 103.974 137.559 107.707 132.642L103.314 129.307ZM90.2383 139.01C84.5975 141.389 78.0358 142.613 70.4985 142.613V148.129C78.6309 148.129 85.9433 146.807 92.3811 144.093L90.2383 139.01ZM170.698 43.7146H173.456V40.9568H170.698V43.7146ZM170.698 144V146.758H173.456V144H170.698ZM146.508 144H143.75V146.758H146.508V144ZM146.508 66.3376H149.266V63.5798H146.508V66.3376ZM145.921 66.3376V63.5798H145.144L144.482 63.9846L145.921 66.3376ZM123.494 80.0485H120.736V84.9669L124.932 82.4015L123.494 80.0485ZM123.494 59.0904L122.037 56.7484L120.736 57.5577V59.0904H123.494ZM148.222 43.7146V40.9568H147.435L146.766 41.3726L148.222 43.7146ZM167.94 43.7146V144H173.456V43.7146H167.94ZM170.698 141.242H146.508V146.758H170.698V141.242ZM149.266 144V66.3376H143.75V144H149.266ZM146.508 63.5798H145.921V69.0954H146.508V63.5798ZM144.482 63.9846L122.055 77.6955L124.932 82.4015L147.359 68.6906L144.482 63.9846ZM126.251 80.0485V59.0904H120.736V80.0485H126.251ZM124.95 61.4324L149.678 46.0567L146.766 41.3726L122.037 56.7484L124.95 61.4324ZM148.222 46.4725H170.698V40.9568H148.222V46.4725ZM211.721 140.23L210.202 142.531L210.21 142.537L211.721 140.23ZM197.079 122.258L194.553 123.364L194.555 123.368L197.079 122.258ZM191.987 94.0042L189.229 93.996L191.987 94.0042ZM197.128 65.9948L194.609 64.8738L194.606 64.8787L197.128 65.9948ZM211.721 48.4155L213.203 50.7412L213.206 50.7392L211.721 48.4155ZM256.967 48.4155L255.481 50.7392L255.488 50.7437L255.495 50.7481L256.967 48.4155ZM271.657 65.9948L274.177 64.8738L271.657 65.9948ZM276.75 94.0042L273.992 93.996V94.0042H276.75ZM271.608 122.307L269.081 121.202L271.608 122.307ZM256.967 140.278L258.474 142.588L258.477 142.586L256.967 140.278ZM247.026 118.635L249.383 120.066L249.387 120.06L247.026 118.635ZM251.825 94.0042H249.067L249.067 94.0124L251.825 94.0042ZM249.622 76.0821L246.988 76.8996L246.989 76.9047L249.622 76.0821ZM243.501 65.5051L245.331 63.4425V63.4425L243.501 65.5051ZM221.759 69.9122L224.111 71.3527L224.115 71.3462L221.759 69.9122ZM216.911 94.0042L219.669 94.0165L219.669 94.0125L216.911 94.0042ZM219.017 112.269L216.373 113.055L216.376 113.063L216.378 113.071L219.017 112.269ZM225.187 123.091L223.34 125.14L223.347 125.146L223.355 125.152L225.187 123.091ZM234.344 143.691C226.046 143.691 219.049 141.73 213.231 137.922L210.21 142.537C217.059 147.02 225.144 149.206 234.344 149.206V143.691ZM213.24 137.928C207.403 134.076 202.846 128.527 199.604 121.149L194.555 123.368C198.169 131.594 203.372 138.025 210.202 142.531L213.24 137.928ZM199.606 121.153C196.369 113.755 194.713 104.736 194.745 94.0124L189.229 93.996C189.196 105.275 190.934 115.093 194.553 123.364L199.606 121.153ZM194.745 94.0124C194.777 83.2794 196.45 74.3429 199.65 67.1109L194.606 64.8787C191.017 72.9899 189.262 82.7263 189.229 93.996L194.745 94.0124ZM199.648 67.1159C202.885 59.8406 207.416 54.4291 213.203 50.7412L210.239 46.0898C203.424 50.4325 198.227 56.7406 194.609 64.8738L199.648 67.1159ZM213.206 50.7392C219.027 47.0187 226.033 45.1014 234.344 45.1014V39.5857C225.156 39.5857 217.081 41.7164 210.235 46.0918L213.206 50.7392ZM234.344 45.1014C242.654 45.1014 249.661 47.0187 255.481 50.7392L258.452 46.0918C251.607 41.7164 243.531 39.5857 234.344 39.5857V45.1014ZM255.495 50.7481C261.345 54.4379 265.904 59.8481 269.137 67.1159L274.177 64.8738C270.555 56.7331 265.32 50.4238 258.438 46.0829L255.495 50.7481ZM269.137 67.1159C272.367 74.3749 274.023 83.3043 273.992 93.996L279.507 94.0124C279.541 82.7667 277.802 73.0232 274.177 64.8738L269.137 67.1159ZM273.992 94.0042C273.992 104.764 272.319 113.801 269.081 121.202L274.135 123.413C277.752 115.144 279.507 105.313 279.507 94.0042H273.992ZM269.081 121.202C265.84 128.612 261.285 134.156 255.456 137.971L258.477 142.586C265.315 138.11 270.521 131.673 274.135 123.413L269.081 121.202ZM255.459 137.969C249.678 141.744 242.681 143.691 234.344 143.691V149.206C243.569 149.206 251.655 147.04 258.474 142.588L255.459 137.969ZM234.344 129.374C240.729 129.374 245.764 126.026 249.383 120.066L244.669 117.203C241.825 121.886 238.405 123.859 234.344 123.859V129.374ZM249.387 120.06C253.012 114.055 254.616 105.231 254.583 93.9961L249.067 94.0124C249.099 104.911 247.504 112.507 244.665 117.21L249.387 120.06ZM254.583 94.0042C254.583 86.5966 253.835 80.3201 252.254 75.2595L246.989 76.9047C248.346 81.2459 249.067 86.9174 249.067 94.0042H254.583ZM252.255 75.2647C250.697 70.2419 248.445 66.2061 245.331 63.4425L241.67 67.5678C243.779 69.4398 245.608 72.4553 246.988 76.8996L252.255 75.2647ZM245.331 63.4425C242.215 60.6767 238.511 59.2706 234.344 59.2706V64.7863C237.162 64.7863 239.563 65.698 241.67 67.5678L245.331 63.4425ZM234.344 59.2706C227.998 59.2706 222.994 62.5792 219.403 68.4783L224.115 71.3462C226.922 66.7336 230.308 64.7863 234.344 64.7863V59.2706ZM219.407 68.4718C215.811 74.3439 214.187 82.9898 214.153 93.9959L219.669 94.0125C219.701 83.3424 221.309 75.927 224.111 71.3527L219.407 68.4718ZM214.153 93.992C214.12 101.496 214.834 107.876 216.373 113.055L221.66 111.483C220.327 107 219.637 101.203 219.669 94.0165L214.153 93.992ZM216.378 113.071C217.935 118.192 220.199 122.309 223.34 125.14L227.033 121.042C224.886 119.107 223.037 116.009 221.655 111.467L216.378 113.071ZM223.355 125.152C226.491 127.94 230.191 129.374 234.344 129.374V123.859C231.575 123.859 229.171 122.942 227.019 121.03L223.355 125.152Z" fill="#0F223C"/>
<path d="M283.875 187.327L283.232 161.635L292.938 161.83L305.938 171.157L310.159 181.571L283.875 187.327Z" fill="#E9CB9E"/>
<rect x="318.44" y="114.281" width="32" height="11" transform="rotate(35.6602 318.44 114.281)" fill="#D68B67"/>
<path d="M283.93 161.52L310.226 123.156L336.455 143.207L309.929 180.175L305.708 169.762L296.055 172.066L294.334 161.6L283.93 161.52Z" fill="#E4C76A"/>
<path d="M310.632 123.448L282.913 162.079M310.632 123.448L318.235 128.904M310.632 123.448L317.919 113.292L344.731 132.53L337.444 142.686M282.913 162.079L283.612 188.985L309.726 181.317M282.913 162.079L294.235 162.352M309.726 181.317L337.444 142.686M309.726 181.317L305.84 170.679M337.444 142.686L329.84 137.231M294.235 162.352L295.443 172.497L305.84 170.679M294.235 162.352L318.235 128.904M305.84 170.679L329.84 137.231M318.235 128.904L329.84 137.231" stroke="#0F223C" stroke-width="3"/>
<path d="M283.989 188.025L292.146 185.57L283.702 179.512L283.989 188.025Z" fill="#0F223C"/>
</svg>
