<svg width="308" height="300" viewBox="0 0 308 300" fill="none" xmlns="http://www.w3.org/2000/svg">
<rect x="1.5" y="45.5" width="305" height="253" rx="46.5" stroke="#0F223C" stroke-width="3"/>
<path d="M69.967 224.273H73.0299L78.3552 237.276H78.5512L83.8765 224.273H86.9393V241H84.5381V228.896H84.3829L79.4496 240.975H77.4567L72.5235 228.887H72.3683V241H69.967V224.273ZM95.8196 241.253C94.5835 241.253 93.519 240.989 92.626 240.461C91.7385 239.927 91.0524 239.179 90.5678 238.215C90.0886 237.246 89.849 236.11 89.849 234.809C89.849 233.524 90.0886 232.391 90.5678 231.411C91.0524 230.431 91.7276 229.666 92.5934 229.116C93.4646 228.566 94.4828 228.291 95.6481 228.291C96.3559 228.291 97.042 228.408 97.7063 228.642C98.3706 228.877 98.9668 229.244 99.495 229.745C100.023 230.246 100.44 230.897 100.745 231.697C101.05 232.492 101.202 233.459 101.202 234.597V235.462H91.2294V233.633H98.8089C98.8089 232.99 98.6782 232.421 98.4169 231.926C98.1555 231.425 97.788 231.03 97.3142 230.741C96.846 230.453 96.296 230.309 95.6644 230.309C94.9783 230.309 94.3793 230.477 93.8675 230.815C93.3611 231.147 92.9691 231.583 92.6914 232.122C92.4191 232.655 92.283 233.235 92.283 233.862V235.291C92.283 236.129 92.43 236.843 92.724 237.431C93.0235 238.019 93.4401 238.468 93.9737 238.778C94.5073 239.083 95.1308 239.236 95.8441 239.236C96.3069 239.236 96.7289 239.17 97.1101 239.04C97.4912 238.904 97.8206 238.702 98.0983 238.435C98.376 238.169 98.5884 237.839 98.7354 237.447L101.047 237.864C100.862 238.544 100.53 239.141 100.05 239.652C99.5767 240.159 98.9804 240.554 98.2617 240.837C97.5484 241.114 96.7343 241.253 95.8196 241.253ZM113.313 231.517L111.099 231.909C111.007 231.626 110.86 231.357 110.658 231.101C110.462 230.845 110.195 230.635 109.858 230.472C109.52 230.309 109.098 230.227 108.592 230.227C107.9 230.227 107.323 230.382 106.86 230.692C106.397 230.997 106.166 231.392 106.166 231.877C106.166 232.296 106.321 232.634 106.631 232.89C106.942 233.145 107.443 233.355 108.134 233.518L110.127 233.976C111.282 234.243 112.142 234.654 112.708 235.209C113.274 235.765 113.558 236.486 113.558 237.374C113.558 238.125 113.34 238.795 112.904 239.383C112.474 239.965 111.872 240.423 111.099 240.755C110.331 241.087 109.441 241.253 108.428 241.253C107.023 241.253 105.877 240.954 104.99 240.355C104.102 239.75 103.558 238.893 103.356 237.782L105.717 237.423C105.864 238.038 106.166 238.503 106.623 238.819C107.081 239.13 107.677 239.285 108.412 239.285C109.212 239.285 109.852 239.119 110.331 238.787C110.811 238.449 111.05 238.038 111.05 237.553C111.05 237.161 110.903 236.832 110.609 236.565C110.32 236.298 109.877 236.097 109.278 235.961L107.154 235.495C105.983 235.228 105.118 234.804 104.557 234.221C104.001 233.638 103.724 232.9 103.724 232.007C103.724 231.267 103.931 230.619 104.345 230.064C104.758 229.508 105.33 229.075 106.06 228.765C106.789 228.449 107.625 228.291 108.567 228.291C109.923 228.291 110.99 228.585 111.769 229.173C112.548 229.756 113.062 230.537 113.313 231.517ZM121.65 241.253C120.414 241.253 119.349 240.989 118.456 240.461C117.569 239.927 116.882 239.179 116.398 238.215C115.919 237.246 115.679 236.11 115.679 234.809C115.679 233.524 115.919 232.391 116.398 231.411C116.882 230.431 117.558 229.666 118.423 229.116C119.295 228.566 120.313 228.291 121.478 228.291C122.186 228.291 122.872 228.408 123.536 228.642C124.201 228.877 124.797 229.244 125.325 229.745C125.853 230.246 126.27 230.897 126.575 231.697C126.88 232.492 127.032 233.459 127.032 234.597V235.462H117.059V233.633H124.639C124.639 232.99 124.508 232.421 124.247 231.926C123.986 231.425 123.618 231.03 123.144 230.741C122.676 230.453 122.126 230.309 121.494 230.309C120.808 230.309 120.209 230.477 119.698 230.815C119.191 231.147 118.799 231.583 118.521 232.122C118.249 232.655 118.113 233.235 118.113 233.862V235.291C118.113 236.129 118.26 236.843 118.554 237.431C118.854 238.019 119.27 238.468 119.804 238.778C120.337 239.083 120.961 239.236 121.674 239.236C122.137 239.236 122.559 239.17 122.94 239.04C123.321 238.904 123.651 238.702 123.928 238.435C124.206 238.169 124.418 237.839 124.565 237.447L126.877 237.864C126.692 238.544 126.36 239.141 125.88 239.652C125.407 240.159 124.811 240.554 124.092 240.837C123.378 241.114 122.564 241.253 121.65 241.253ZM139.143 231.517L136.929 231.909C136.837 231.626 136.69 231.357 136.488 231.101C136.292 230.845 136.025 230.635 135.688 230.472C135.35 230.309 134.928 230.227 134.422 230.227C133.73 230.227 133.153 230.382 132.69 230.692C132.227 230.997 131.996 231.392 131.996 231.877C131.996 232.296 132.151 232.634 132.462 232.89C132.772 233.145 133.273 233.355 133.964 233.518L135.957 233.976C137.112 234.243 137.972 234.654 138.538 235.209C139.105 235.765 139.388 236.486 139.388 237.374C139.388 238.125 139.17 238.795 138.734 239.383C138.304 239.965 137.702 240.423 136.929 240.755C136.161 241.087 135.271 241.253 134.258 241.253C132.854 241.253 131.707 240.954 130.82 240.355C129.932 239.75 129.388 238.893 129.186 237.782L131.547 237.423C131.694 238.038 131.996 238.503 132.453 238.819C132.911 239.13 133.507 239.285 134.242 239.285C135.042 239.285 135.682 239.119 136.161 238.787C136.641 238.449 136.88 238.038 136.88 237.553C136.88 237.161 136.733 236.832 136.439 236.565C136.151 236.298 135.707 236.097 135.108 235.961L132.984 235.495C131.814 235.228 130.948 234.804 130.387 234.221C129.832 233.638 129.554 232.9 129.554 232.007C129.554 231.267 129.761 230.619 130.175 230.064C130.588 229.508 131.16 229.075 131.89 228.765C132.619 228.449 133.455 228.291 134.397 228.291C135.753 228.291 136.82 228.585 137.599 229.173C138.378 229.756 138.892 230.537 139.143 231.517ZM152.856 241.245C151.843 241.245 150.939 240.986 150.144 240.469C149.355 239.946 148.734 239.203 148.282 238.239C147.836 237.27 147.612 236.108 147.612 234.752C147.612 233.396 147.838 232.236 148.29 231.272C148.748 230.309 149.374 229.571 150.169 229.059C150.964 228.547 151.865 228.291 152.872 228.291C153.651 228.291 154.277 228.422 154.751 228.683C155.23 228.939 155.6 229.239 155.862 229.582C156.129 229.925 156.335 230.227 156.482 230.488H156.629V224.273H159.072V241H156.687V239.048H156.482C156.335 239.315 156.123 239.62 155.845 239.963C155.573 240.306 155.197 240.605 154.718 240.861C154.239 241.117 153.618 241.245 152.856 241.245ZM153.395 239.162C154.098 239.162 154.691 238.977 155.176 238.607C155.666 238.231 156.036 237.711 156.286 237.047C156.542 236.383 156.67 235.609 156.67 234.727C156.67 233.856 156.545 233.094 156.295 232.44C156.044 231.787 155.677 231.278 155.192 230.913C154.707 230.548 154.108 230.366 153.395 230.366C152.66 230.366 152.047 230.556 151.557 230.938C151.067 231.319 150.697 231.839 150.447 232.498C150.202 233.156 150.079 233.9 150.079 234.727C150.079 235.566 150.204 236.32 150.455 236.99C150.705 237.659 151.076 238.19 151.566 238.582C152.061 238.969 152.671 239.162 153.395 239.162ZM167.964 241.253C166.728 241.253 165.664 240.989 164.771 240.461C163.883 239.927 163.197 239.179 162.712 238.215C162.233 237.246 161.994 236.11 161.994 234.809C161.994 233.524 162.233 232.391 162.712 231.411C163.197 230.431 163.872 229.666 164.738 229.116C165.609 228.566 166.627 228.291 167.793 228.291C168.5 228.291 169.187 228.408 169.851 228.642C170.515 228.877 171.111 229.244 171.64 229.745C172.168 230.246 172.584 230.897 172.889 231.697C173.194 232.492 173.347 233.459 173.347 234.597V235.462H163.374V233.633H170.953C170.953 232.99 170.823 232.421 170.561 231.926C170.3 231.425 169.932 231.03 169.459 230.741C168.99 230.453 168.441 230.309 167.809 230.309C167.123 230.309 166.524 230.477 166.012 230.815C165.506 231.147 165.114 231.583 164.836 232.122C164.564 232.655 164.428 233.235 164.428 233.862V235.291C164.428 236.129 164.575 236.843 164.869 237.431C165.168 238.019 165.585 238.468 166.118 238.778C166.652 239.083 167.275 239.236 167.989 239.236C168.451 239.236 168.873 239.17 169.255 239.04C169.636 238.904 169.965 238.702 170.243 238.435C170.521 238.169 170.733 237.839 170.88 237.447L173.191 237.864C173.006 238.544 172.674 239.141 172.195 239.652C171.721 240.159 171.125 240.554 170.406 240.837C169.693 241.114 168.879 241.253 167.964 241.253ZM185.457 231.517L183.244 231.909C183.151 231.626 183.004 231.357 182.803 231.101C182.607 230.845 182.34 230.635 182.002 230.472C181.665 230.309 181.243 230.227 180.736 230.227C180.045 230.227 179.468 230.382 179.005 230.692C178.542 230.997 178.31 231.392 178.31 231.877C178.31 232.296 178.466 232.634 178.776 232.89C179.086 233.145 179.587 233.355 180.279 233.518L182.272 233.976C183.426 234.243 184.286 234.654 184.853 235.209C185.419 235.765 185.702 236.486 185.702 237.374C185.702 238.125 185.484 238.795 185.049 239.383C184.619 239.965 184.017 240.423 183.244 240.755C182.476 241.087 181.586 241.253 180.573 241.253C179.168 241.253 178.022 240.954 177.134 240.355C176.247 239.75 175.702 238.893 175.501 237.782L177.861 237.423C178.008 238.038 178.31 238.503 178.768 238.819C179.225 239.13 179.821 239.285 180.557 239.285C181.357 239.285 181.997 239.119 182.476 238.787C182.955 238.449 183.195 238.038 183.195 237.553C183.195 237.161 183.048 236.832 182.754 236.565C182.465 236.298 182.021 236.097 181.422 235.961L179.299 235.495C178.128 235.228 177.262 234.804 176.701 234.221C176.146 233.638 175.868 232.9 175.868 232.007C175.868 231.267 176.075 230.619 176.489 230.064C176.903 229.508 177.475 229.075 178.204 228.765C178.934 228.449 179.77 228.291 180.712 228.291C182.068 228.291 183.135 228.585 183.913 229.173C184.692 229.756 185.207 230.537 185.457 231.517ZM193.084 241.245C192.071 241.245 191.167 240.986 190.372 240.469C189.582 239.946 188.962 239.203 188.51 238.239C188.063 237.27 187.84 236.108 187.84 234.752C187.84 233.396 188.066 232.236 188.518 231.272C188.975 230.309 189.601 229.571 190.396 229.059C191.191 228.547 192.093 228.291 193.1 228.291C193.879 228.291 194.505 228.422 194.978 228.683C195.458 228.939 195.828 229.239 196.089 229.582C196.356 229.925 196.563 230.227 196.71 230.488H196.857V224.273H199.299V241H196.914V239.048H196.71C196.563 239.315 196.351 239.62 196.073 239.963C195.801 240.306 195.425 240.605 194.946 240.861C194.467 241.117 193.846 241.245 193.084 241.245ZM193.623 239.162C194.325 239.162 194.919 238.977 195.403 238.607C195.893 238.231 196.264 237.711 196.514 237.047C196.77 236.383 196.898 235.609 196.898 234.727C196.898 233.856 196.773 233.094 196.522 232.44C196.272 231.787 195.904 231.278 195.42 230.913C194.935 230.548 194.336 230.366 193.623 230.366C192.888 230.366 192.275 230.556 191.785 230.938C191.295 231.319 190.925 231.839 190.674 232.498C190.429 233.156 190.307 233.9 190.307 234.727C190.307 235.566 190.432 236.32 190.682 236.99C190.933 237.659 191.303 238.19 191.793 238.582C192.289 238.969 192.898 239.162 193.623 239.162ZM208.192 241.253C206.956 241.253 205.891 240.989 204.998 240.461C204.111 239.927 203.424 239.179 202.94 238.215C202.461 237.246 202.221 236.11 202.221 234.809C202.221 233.524 202.461 232.391 202.94 231.411C203.424 230.431 204.1 229.666 204.965 229.116C205.837 228.566 206.855 228.291 208.02 228.291C208.728 228.291 209.414 228.408 210.078 228.642C210.743 228.877 211.339 229.244 211.867 229.745C212.395 230.246 212.812 230.897 213.117 231.697C213.422 232.492 213.574 233.459 213.574 234.597V235.462H203.601V233.633H211.181C211.181 232.99 211.05 232.421 210.789 231.926C210.528 231.425 210.16 231.03 209.686 230.741C209.218 230.453 208.668 230.309 208.036 230.309C207.35 230.309 206.751 230.477 206.24 230.815C205.733 231.147 205.341 231.583 205.063 232.122C204.791 232.655 204.655 233.235 204.655 233.862V235.291C204.655 236.129 204.802 236.843 205.096 237.431C205.396 238.019 205.812 238.468 206.346 238.778C206.879 239.083 207.503 239.236 208.216 239.236C208.679 239.236 209.101 239.17 209.482 239.04C209.863 238.904 210.193 238.702 210.47 238.435C210.748 238.169 210.96 237.839 211.107 237.447L213.419 237.864C213.234 238.544 212.902 239.141 212.422 239.652C211.949 240.159 211.353 240.554 210.634 240.837C209.92 241.114 209.106 241.253 208.192 241.253ZM224.813 224.273V241H222.371V224.273H224.813ZM231.749 241.278C230.954 241.278 230.235 241.131 229.593 240.837C228.95 240.537 228.441 240.104 228.065 239.538C227.695 238.972 227.51 238.277 227.51 237.455C227.51 236.747 227.646 236.165 227.918 235.707C228.191 235.25 228.558 234.888 229.021 234.621C229.484 234.354 230.001 234.153 230.573 234.017C231.145 233.881 231.727 233.777 232.321 233.706C233.072 233.619 233.682 233.548 234.15 233.494C234.619 233.434 234.959 233.339 235.171 233.208C235.384 233.077 235.49 232.865 235.49 232.571V232.514C235.49 231.801 235.288 231.248 234.885 230.856C234.488 230.464 233.894 230.268 233.105 230.268C232.283 230.268 231.635 230.45 231.161 230.815C230.693 231.174 230.369 231.575 230.189 232.016L227.894 231.493C228.166 230.731 228.564 230.115 229.086 229.647C229.615 229.173 230.222 228.83 230.908 228.618C231.594 228.4 232.315 228.291 233.072 228.291C233.573 228.291 234.104 228.351 234.665 228.471C235.231 228.585 235.759 228.798 236.249 229.108C236.745 229.418 237.151 229.862 237.466 230.439C237.782 231.011 237.94 231.754 237.94 232.669V241H235.555V239.285H235.457C235.299 239.601 235.062 239.911 234.747 240.216C234.431 240.521 234.025 240.774 233.53 240.975C233.034 241.177 232.441 241.278 231.749 241.278ZM232.28 239.317C232.955 239.317 233.532 239.184 234.012 238.917C234.496 238.65 234.864 238.302 235.114 237.872C235.37 237.436 235.498 236.971 235.498 236.475V234.858C235.411 234.945 235.242 235.027 234.992 235.103C234.747 235.174 234.466 235.236 234.15 235.291C233.835 235.34 233.527 235.386 233.227 235.43C232.928 235.468 232.677 235.5 232.476 235.528C232.002 235.588 231.569 235.688 231.177 235.83C230.791 235.971 230.48 236.176 230.246 236.442C230.018 236.704 229.903 237.052 229.903 237.488C229.903 238.092 230.126 238.55 230.573 238.86C231.019 239.165 231.588 239.317 232.28 239.317ZM41.948 269.253C40.7338 269.253 39.6883 268.978 38.8117 268.428C37.9405 267.873 37.2707 267.108 36.8024 266.133C36.3342 265.158 36.1 264.042 36.1 262.784C36.1 261.51 36.3396 260.386 36.8188 259.411C37.2979 258.431 37.9731 257.666 38.8443 257.116C39.7156 256.566 40.7419 256.291 41.9235 256.291C42.8764 256.291 43.7259 256.468 44.4718 256.822C45.2178 257.171 45.8195 257.661 46.2769 258.292C46.7397 258.924 47.0147 259.662 47.1018 260.506H44.725C44.5943 259.918 44.2949 259.411 43.8266 258.987C43.3638 258.562 42.743 258.349 41.9644 258.349C41.2837 258.349 40.6875 258.529 40.1757 258.888C39.6693 259.242 39.2745 259.749 38.9914 260.408C38.7082 261.061 38.5666 261.834 38.5666 262.727C38.5666 263.642 38.7055 264.432 38.9832 265.096C39.2609 265.76 39.6529 266.275 40.1593 266.64C40.6712 267.004 41.2728 267.187 41.9644 267.187C42.4272 267.187 42.8465 267.102 43.2222 266.934C43.6033 266.759 43.9219 266.512 44.1778 266.19C44.4392 265.869 44.6216 265.482 44.725 265.031H47.1018C47.0147 265.842 46.7506 266.566 46.3095 267.203C45.8685 267.84 45.2777 268.341 44.5372 268.706C43.8021 269.071 42.939 269.253 41.948 269.253ZM49.7134 269V256.455H52.0738V258.447H52.2045C52.4332 257.772 52.8361 257.241 53.4133 256.855C53.9959 256.463 54.6548 256.267 55.3899 256.267C55.5423 256.267 55.722 256.272 55.9289 256.283C56.1413 256.294 56.3074 256.308 56.4272 256.324V258.66C56.3292 258.633 56.1549 258.603 55.9044 258.57C55.654 258.532 55.4035 258.513 55.153 258.513C54.5758 258.513 54.0613 258.635 53.6093 258.88C53.1628 259.12 52.8089 259.455 52.5476 259.885C52.2862 260.31 52.1555 260.794 52.1555 261.339V269H49.7134ZM63.4983 269.253C62.2622 269.253 61.1977 268.989 60.3047 268.461C59.4172 267.927 58.7311 267.179 58.2465 266.215C57.7673 265.246 57.5278 264.11 57.5278 262.809C57.5278 261.524 57.7673 260.391 58.2465 259.411C58.7311 258.431 59.4063 257.666 60.2721 257.116C61.1433 256.566 62.1615 256.291 63.3268 256.291C64.0346 256.291 64.7207 256.408 65.385 256.642C66.0493 256.877 66.6455 257.244 67.1737 257.745C67.7019 258.246 68.1184 258.897 68.4234 259.697C68.7283 260.492 68.8807 261.459 68.8807 262.597V263.462H58.9081V261.633H66.4876C66.4876 260.99 66.3569 260.421 66.0956 259.926C65.8342 259.425 65.4667 259.03 64.993 258.741C64.5247 258.453 63.9747 258.309 63.3431 258.309C62.657 258.309 62.0581 258.477 61.5462 258.815C61.0398 259.147 60.6478 259.583 60.3701 260.122C60.0978 260.655 59.9617 261.235 59.9617 261.862V263.291C59.9617 264.129 60.1087 264.843 60.4028 265.431C60.7022 266.019 61.1188 266.468 61.6524 266.778C62.186 267.083 62.8095 267.236 63.5228 267.236C63.9856 267.236 64.4076 267.17 64.7888 267.04C65.1699 266.904 65.4993 266.702 65.777 266.435C66.0547 266.169 66.2671 265.839 66.4141 265.447L68.7256 265.864C68.5404 266.544 68.2083 267.141 67.7291 267.652C67.2554 268.159 66.6591 268.554 65.9404 268.837C65.2271 269.114 64.4131 269.253 63.4983 269.253ZM75.2413 269.278C74.4463 269.278 73.7275 269.131 73.085 268.837C72.4425 268.537 71.9334 268.104 71.5577 267.538C71.1874 266.972 71.0023 266.277 71.0023 265.455C71.0023 264.747 71.1384 264.165 71.4107 263.707C71.6829 263.25 72.0505 262.888 72.5133 262.621C72.9761 262.354 73.4934 262.153 74.0651 262.017C74.6369 261.881 75.2195 261.777 75.813 261.706C76.5644 261.619 77.1743 261.548 77.6425 261.494C78.1108 261.434 78.4511 261.339 78.6635 261.208C78.8759 261.077 78.982 260.865 78.982 260.571V260.514C78.982 259.801 78.7806 259.248 78.3776 258.856C77.9801 258.464 77.3866 258.268 76.5971 258.268C75.7749 258.268 75.1269 258.45 74.6532 258.815C74.1849 259.174 73.8609 259.575 73.6813 260.016L71.3862 259.493C71.6584 258.731 72.0559 258.115 72.5786 257.647C73.1068 257.173 73.7139 256.83 74.4 256.618C75.0861 256.4 75.8076 256.291 76.5644 256.291C77.0654 256.291 77.5963 256.351 78.1571 256.471C78.7234 256.585 79.2516 256.798 79.7416 257.108C80.2371 257.418 80.6428 257.862 80.9586 258.439C81.2744 259.011 81.4323 259.754 81.4323 260.669V269H79.0474V267.285H78.9494C78.7915 267.601 78.5546 267.911 78.2388 268.216C77.923 268.521 77.5173 268.774 77.0218 268.975C76.5263 269.177 75.9328 269.278 75.2413 269.278ZM75.7722 267.317C76.4474 267.317 77.0245 267.184 77.5037 266.917C77.9883 266.65 78.3559 266.302 78.6063 265.872C78.8622 265.436 78.9902 264.971 78.9902 264.475V262.858C78.9031 262.945 78.7343 263.027 78.4838 263.103C78.2388 263.174 77.9584 263.236 77.6425 263.291C77.3267 263.34 77.0191 263.386 76.7196 263.43C76.4201 263.468 76.1697 263.5 75.9682 263.528C75.4945 263.588 75.0616 263.688 74.6695 263.83C74.2829 263.971 73.9726 264.176 73.7384 264.442C73.5097 264.704 73.3954 265.052 73.3954 265.488C73.3954 266.092 73.6186 266.55 74.0651 266.86C74.5116 267.165 75.0806 267.317 75.7722 267.317ZM89.9695 269.253C88.7553 269.253 87.7098 268.978 86.8332 268.428C85.9619 267.873 85.2922 267.108 84.8239 266.133C84.3556 265.158 84.1215 264.042 84.1215 262.784C84.1215 261.51 84.3611 260.386 84.8403 259.411C85.3194 258.431 85.9946 257.666 86.8658 257.116C87.737 256.566 88.7634 256.291 89.945 256.291C90.8979 256.291 91.7473 256.468 92.4933 256.822C93.2393 257.171 93.841 257.661 94.2984 258.292C94.7612 258.924 95.0362 259.662 95.1233 260.506H92.7465C92.6158 259.918 92.3163 259.411 91.8481 258.987C91.3852 258.562 90.7645 258.349 89.9859 258.349C89.3052 258.349 88.709 258.529 88.1971 258.888C87.6908 259.242 87.296 259.749 87.0128 260.408C86.7297 261.061 86.5881 261.834 86.5881 262.727C86.5881 263.642 86.727 264.432 87.0047 265.096C87.2824 265.76 87.6744 266.275 88.1808 266.64C88.6926 267.004 89.2943 267.187 89.9859 267.187C90.4487 267.187 90.868 267.102 91.2437 266.934C91.6248 266.759 91.9434 266.512 92.1993 266.19C92.4606 265.869 92.643 265.482 92.7465 265.031H95.1233C95.0362 265.842 94.7721 266.566 94.331 267.203C93.89 267.84 93.2992 268.341 92.5587 268.706C91.8236 269.071 90.9605 269.253 89.9695 269.253ZM97.7349 269V256.455H100.177V269H97.7349ZM98.9682 254.519C98.5435 254.519 98.1786 254.377 97.8737 254.094C97.5742 253.806 97.4245 253.462 97.4245 253.065C97.4245 252.662 97.5742 252.319 97.8737 252.036C98.1786 251.747 98.5435 251.603 98.9682 251.603C99.3929 251.603 99.755 251.747 100.054 252.036C100.359 252.319 100.512 252.662 100.512 253.065C100.512 253.462 100.359 253.806 100.054 254.094C99.755 254.377 99.3929 254.519 98.9682 254.519ZM108.747 269.253C107.571 269.253 106.544 268.984 105.668 268.445C104.791 267.906 104.11 267.151 103.626 266.182C103.141 265.213 102.899 264.08 102.899 262.784C102.899 261.483 103.141 260.345 103.626 259.37C104.11 258.396 104.791 257.639 105.668 257.1C106.544 256.561 107.571 256.291 108.747 256.291C109.923 256.291 110.949 256.561 111.826 257.1C112.703 257.639 113.383 258.396 113.868 259.37C114.353 260.345 114.595 261.483 114.595 262.784C114.595 264.08 114.353 265.213 113.868 266.182C113.383 267.151 112.703 267.906 111.826 268.445C110.949 268.984 109.923 269.253 108.747 269.253ZM108.755 267.203C109.517 267.203 110.149 267.002 110.65 266.599C111.151 266.196 111.521 265.659 111.761 264.99C112.006 264.32 112.128 263.582 112.128 262.776C112.128 261.976 112.006 261.241 111.761 260.571C111.521 259.896 111.151 259.354 110.65 258.946C110.149 258.537 109.517 258.333 108.755 258.333C107.987 258.333 107.35 258.537 106.844 258.946C106.343 259.354 105.97 259.896 105.725 260.571C105.485 261.241 105.365 261.976 105.365 262.776C105.365 263.582 105.485 264.32 105.725 264.99C105.97 265.659 106.343 266.196 106.844 266.599C107.35 267.002 107.987 267.203 108.755 267.203ZM107.742 254.78L109.653 251.015H112.226L109.694 254.78H107.742ZM119.763 261.551V269H117.321V256.455H119.665V258.496H119.82C120.109 257.832 120.561 257.299 121.176 256.896C121.797 256.493 122.578 256.291 123.52 256.291C124.375 256.291 125.124 256.471 125.766 256.83C126.409 257.184 126.907 257.712 127.261 258.415C127.615 259.117 127.792 259.986 127.792 261.02V269H125.35V261.314C125.35 260.405 125.113 259.694 124.639 259.183C124.165 258.665 123.515 258.407 122.687 258.407C122.121 258.407 121.617 258.529 121.176 258.774C120.74 259.019 120.395 259.379 120.139 259.852C119.888 260.321 119.763 260.887 119.763 261.551ZM141.85 269.245C140.837 269.245 139.934 268.986 139.139 268.469C138.349 267.946 137.728 267.203 137.276 266.239C136.83 265.27 136.607 264.108 136.607 262.752C136.607 261.396 136.833 260.236 137.285 259.272C137.742 258.309 138.368 257.571 139.163 257.059C139.958 256.547 140.859 256.291 141.867 256.291C142.645 256.291 143.271 256.422 143.745 256.683C144.224 256.939 144.595 257.239 144.856 257.582C145.123 257.925 145.33 258.227 145.477 258.488H145.624V252.273H148.066V269H145.681V267.048H145.477C145.33 267.315 145.117 267.62 144.84 267.963C144.567 268.306 144.192 268.605 143.712 268.861C143.233 269.117 142.613 269.245 141.85 269.245ZM142.389 267.162C143.092 267.162 143.685 266.977 144.17 266.607C144.66 266.231 145.03 265.711 145.281 265.047C145.537 264.383 145.664 263.609 145.664 262.727C145.664 261.856 145.539 261.094 145.289 260.44C145.038 259.787 144.671 259.278 144.186 258.913C143.702 258.548 143.103 258.366 142.389 258.366C141.654 258.366 141.042 258.556 140.552 258.938C140.061 259.319 139.691 259.839 139.441 260.498C139.196 261.156 139.073 261.9 139.073 262.727C139.073 263.566 139.198 264.32 139.449 264.99C139.699 265.659 140.07 266.19 140.56 266.582C141.055 266.969 141.665 267.162 142.389 267.162ZM156.958 269.253C155.722 269.253 154.658 268.989 153.765 268.461C152.877 267.927 152.191 267.179 151.706 266.215C151.227 265.246 150.988 264.11 150.988 262.809C150.988 261.524 151.227 260.391 151.706 259.411C152.191 258.431 152.866 257.666 153.732 257.116C154.603 256.566 155.621 256.291 156.787 256.291C157.495 256.291 158.181 256.408 158.845 256.642C159.509 256.877 160.105 257.244 160.634 257.745C161.162 258.246 161.578 258.897 161.883 259.697C162.188 260.492 162.341 261.459 162.341 262.597V263.462H152.368V261.633H159.948C159.948 260.99 159.817 260.421 159.556 259.926C159.294 259.425 158.927 259.03 158.453 258.741C157.985 258.453 157.435 258.309 156.803 258.309C156.117 258.309 155.518 258.477 155.006 258.815C154.5 259.147 154.108 259.583 153.83 260.122C153.558 260.655 153.422 261.235 153.422 261.862V263.291C153.422 264.129 153.569 264.843 153.863 265.431C154.162 266.019 154.579 266.468 155.112 266.778C155.646 267.083 156.269 267.236 156.983 267.236C157.446 267.236 157.868 267.17 158.249 267.04C158.63 266.904 158.959 266.702 159.237 266.435C159.515 266.169 159.727 265.839 159.874 265.447L162.186 265.864C162 266.544 161.668 267.141 161.189 267.652C160.715 268.159 160.119 268.554 159.4 268.837C158.687 269.114 157.873 269.253 156.958 269.253ZM167.492 252.273V269H165.05V252.273H167.492ZM176.865 273.705V256.455H179.25V258.488H179.454C179.595 258.227 179.8 257.925 180.066 257.582C180.333 257.239 180.704 256.939 181.177 256.683C181.651 256.422 182.277 256.291 183.056 256.291C184.069 256.291 184.972 256.547 185.767 257.059C186.562 257.571 187.186 258.309 187.638 259.272C188.095 260.236 188.324 261.396 188.324 262.752C188.324 264.108 188.098 265.27 187.646 266.239C187.194 267.203 186.573 267.946 185.784 268.469C184.994 268.986 184.093 269.245 183.08 269.245C182.318 269.245 181.695 269.117 181.21 268.861C180.731 268.605 180.355 268.306 180.083 267.963C179.811 267.62 179.601 267.315 179.454 267.048H179.307V273.705H176.865ZM179.258 262.727C179.258 263.609 179.386 264.383 179.642 265.047C179.898 265.711 180.268 266.231 180.753 266.607C181.237 266.977 181.831 267.162 182.533 267.162C183.263 267.162 183.873 266.969 184.363 266.582C184.853 266.19 185.223 265.659 185.473 264.99C185.729 264.32 185.857 263.566 185.857 262.727C185.857 261.9 185.732 261.156 185.482 260.498C185.237 259.839 184.866 259.319 184.371 258.938C183.881 258.556 183.268 258.366 182.533 258.366C181.825 258.366 181.226 258.548 180.736 258.913C180.252 259.278 179.884 259.787 179.634 260.44C179.383 261.094 179.258 261.856 179.258 262.727ZM191.06 269V256.455H193.421V258.447H193.551C193.78 257.772 194.183 257.241 194.76 256.855C195.343 256.463 196.001 256.267 196.737 256.267C196.889 256.267 197.069 256.272 197.276 256.283C197.488 256.294 197.654 256.308 197.774 256.324V258.66C197.676 258.633 197.502 258.603 197.251 258.57C197.001 258.532 196.75 258.513 196.5 258.513C195.923 258.513 195.408 258.635 194.956 258.88C194.51 259.12 194.156 259.455 193.894 259.885C193.633 260.31 193.502 260.794 193.502 261.339V269H191.06ZM204.722 269.253C203.546 269.253 202.52 268.984 201.643 268.445C200.767 267.906 200.086 267.151 199.601 266.182C199.117 265.213 198.874 264.08 198.874 262.784C198.874 261.483 199.117 260.345 199.601 259.37C200.086 258.396 200.767 257.639 201.643 257.1C202.52 256.561 203.546 256.291 204.722 256.291C205.899 256.291 206.925 256.561 207.802 257.1C208.678 257.639 209.359 258.396 209.844 259.37C210.328 260.345 210.57 261.483 210.57 262.784C210.57 264.08 210.328 265.213 209.844 266.182C209.359 267.151 208.678 267.906 207.802 268.445C206.925 268.984 205.899 269.253 204.722 269.253ZM204.731 267.203C205.493 267.203 206.125 267.002 206.626 266.599C207.126 266.196 207.497 265.659 207.736 264.99C207.981 264.32 208.104 263.582 208.104 262.776C208.104 261.976 207.981 261.241 207.736 260.571C207.497 259.896 207.126 259.354 206.626 258.946C206.125 258.537 205.493 258.333 204.731 258.333C203.963 258.333 203.326 258.537 202.819 258.946C202.318 259.354 201.945 259.896 201.7 260.571C201.461 261.241 201.341 261.976 201.341 262.776C201.341 263.582 201.461 264.32 201.7 264.99C201.945 265.659 202.318 266.196 202.819 266.599C203.326 267.002 203.963 267.203 204.731 267.203ZM214.413 273.705C214.049 273.705 213.716 273.675 213.417 273.615C213.117 273.56 212.894 273.5 212.747 273.435L213.335 271.434C213.782 271.554 214.179 271.605 214.528 271.589C214.876 271.573 215.184 271.442 215.451 271.197C215.723 270.952 215.962 270.552 216.169 269.996L216.472 269.163L211.881 256.455H214.495L217.672 266.19H217.803L220.98 256.455H223.602L218.432 270.674C218.192 271.328 217.887 271.88 217.517 272.332C217.147 272.79 216.706 273.133 216.194 273.362C215.682 273.59 215.089 273.705 214.413 273.705ZM230.877 269.253C229.641 269.253 228.577 268.989 227.684 268.461C226.796 267.927 226.11 267.179 225.625 266.215C225.146 265.246 224.907 264.11 224.907 262.809C224.907 261.524 225.146 260.391 225.625 259.411C226.11 258.431 226.785 257.666 227.651 257.116C228.522 256.566 229.54 256.291 230.706 256.291C231.414 256.291 232.1 256.408 232.764 256.642C233.428 256.877 234.024 257.244 234.553 257.745C235.081 258.246 235.497 258.897 235.802 259.697C236.107 260.492 236.26 261.459 236.26 262.597V263.462H226.287V261.633H233.867C233.867 260.99 233.736 260.421 233.474 259.926C233.213 259.425 232.846 259.03 232.372 258.741C231.904 258.453 231.354 258.309 230.722 258.309C230.036 258.309 229.437 258.477 228.925 258.815C228.419 259.147 228.027 259.583 227.749 260.122C227.477 260.655 227.341 261.235 227.341 261.862V263.291C227.341 264.129 227.488 264.843 227.782 265.431C228.081 266.019 228.498 266.468 229.031 266.778C229.565 267.083 230.188 267.236 230.902 267.236C231.365 267.236 231.787 267.17 232.168 267.04C232.549 266.904 232.878 266.702 233.156 266.435C233.434 266.169 233.646 265.839 233.793 265.447L236.104 265.864C235.919 266.544 235.587 267.141 235.108 267.652C234.634 268.159 234.038 268.554 233.319 268.837C232.606 269.114 231.792 269.253 230.877 269.253ZM244.254 269.253C243.039 269.253 241.994 268.978 241.117 268.428C240.246 267.873 239.576 267.108 239.108 266.133C238.64 265.158 238.406 264.042 238.406 262.784C238.406 261.51 238.645 260.386 239.124 259.411C239.604 258.431 240.279 257.666 241.15 257.116C242.021 256.566 243.048 256.291 244.229 256.291C245.182 256.291 246.032 256.468 246.777 256.822C247.523 257.171 248.125 257.661 248.583 258.292C249.045 258.924 249.32 259.662 249.407 260.506H247.031C246.9 259.918 246.601 259.411 246.132 258.987C245.669 258.562 245.049 258.349 244.27 258.349C243.589 258.349 242.993 258.529 242.481 258.888C241.975 259.242 241.58 259.749 241.297 260.408C241.014 261.061 240.872 261.834 240.872 262.727C240.872 263.642 241.011 264.432 241.289 265.096C241.567 265.76 241.959 266.275 242.465 266.64C242.977 267.004 243.579 267.187 244.27 267.187C244.733 267.187 245.152 267.102 245.528 266.934C245.909 266.759 246.228 266.512 246.483 266.19C246.745 265.869 246.927 265.482 247.031 265.031H249.407C249.32 265.842 249.056 266.566 248.615 267.203C248.174 267.84 247.583 268.341 246.843 268.706C246.108 269.071 245.245 269.253 244.254 269.253ZM257.875 256.455V258.415H251.023V256.455H257.875ZM252.86 253.449H255.302V265.316C255.302 265.79 255.373 266.147 255.515 266.386C255.656 266.621 255.839 266.781 256.062 266.868C256.291 266.95 256.538 266.991 256.805 266.991C257.001 266.991 257.173 266.977 257.32 266.95C257.467 266.923 257.581 266.901 257.663 266.885L258.104 268.902C257.962 268.956 257.761 269.011 257.5 269.065C257.238 269.125 256.911 269.158 256.519 269.163C255.877 269.174 255.278 269.06 254.723 268.82C254.167 268.581 253.718 268.21 253.375 267.71C253.032 267.209 252.86 266.58 252.86 265.823V253.449ZM265.726 269.253C264.55 269.253 263.524 268.984 262.647 268.445C261.771 267.906 261.09 267.151 260.605 266.182C260.121 265.213 259.878 264.08 259.878 262.784C259.878 261.483 260.121 260.345 260.605 259.37C261.09 258.396 261.771 257.639 262.647 257.1C263.524 256.561 264.55 256.291 265.726 256.291C266.902 256.291 267.929 256.561 268.806 257.1C269.682 257.639 270.363 258.396 270.847 259.37C271.332 260.345 271.574 261.483 271.574 262.784C271.574 264.08 271.332 265.213 270.847 266.182C270.363 267.151 269.682 267.906 268.806 268.445C267.929 268.984 266.902 269.253 265.726 269.253ZM265.735 267.203C266.497 267.203 267.128 267.002 267.629 266.599C268.13 266.196 268.501 265.659 268.74 264.99C268.985 264.32 269.108 263.582 269.108 262.776C269.108 261.976 268.985 261.241 268.74 260.571C268.501 259.896 268.13 259.354 267.629 258.946C267.128 258.537 266.497 258.333 265.735 258.333C264.967 258.333 264.33 258.537 263.823 258.946C263.322 259.354 262.949 259.896 262.704 260.571C262.465 261.241 262.345 261.976 262.345 262.776C262.345 263.582 262.465 264.32 262.704 264.99C262.949 265.659 263.322 266.196 263.823 266.599C264.33 267.002 264.967 267.203 265.735 267.203Z" fill="#0F223C"/>
<path d="M127.57 187L168.016 106.891V106.254H120.715V86.7164H193.087V106.401L152.494 187H127.57Z" fill="#D68B67"/>
<path d="M127.57 187L124.892 185.648L122.695 190H127.57V187ZM168.016 106.891L170.694 108.243L171.016 107.605V106.891H168.016ZM168.016 106.254H171.016V103.254H168.016V106.254ZM120.715 106.254H117.715V109.254H120.715V106.254ZM120.715 86.7164V83.7164H117.715V86.7164H120.715ZM193.087 86.7164H196.087V83.7164H193.087V86.7164ZM193.087 106.401L195.767 107.75L196.087 107.114V106.401H193.087ZM152.494 187V190H154.342L155.173 188.349L152.494 187ZM130.248 188.352L170.694 108.243L165.338 105.539L124.892 185.648L130.248 188.352ZM171.016 106.891V106.254H165.016V106.891H171.016ZM168.016 103.254H120.715V109.254H168.016V103.254ZM123.715 106.254V86.7164H117.715V106.254H123.715ZM120.715 89.7164H193.087V83.7164H120.715V89.7164ZM190.087 86.7164V106.401H196.087V86.7164H190.087ZM190.408 105.051L149.815 185.651L155.173 188.349L195.767 107.75L190.408 105.051ZM152.494 184H127.57V190H152.494V184Z" fill="#0F223C"/>
<mask id="path-5-inside-1_656_405" fill="white">
<path fill-rule="evenodd" clip-rule="evenodd" d="M73 23C73 27.8304 71.5109 32.3131 68.9668 36.0139L50.0841 69.0016L30.0377 34.5757L30.1208 34.5754C28.1368 31.1754 27 27.2205 27 23C27 10.2975 37.2975 0 50 0C62.7025 0 73 10.2975 73 23ZM49.5 32C54.1944 32 58 28.1944 58 23.5C58 18.8056 54.1944 15 49.5 15C44.8056 15 41 18.8056 41 23.5C41 28.1944 44.8056 32 49.5 32Z"/>
</mask>
<path fill-rule="evenodd" clip-rule="evenodd" d="M73 23C73 27.8304 71.5109 32.3131 68.9668 36.0139L50.0841 69.0016L30.0377 34.5757L30.1208 34.5754C28.1368 31.1754 27 27.2205 27 23C27 10.2975 37.2975 0 50 0C62.7025 0 73 10.2975 73 23ZM49.5 32C54.1944 32 58 28.1944 58 23.5C58 18.8056 54.1944 15 49.5 15C44.8056 15 41 18.8056 41 23.5C41 28.1944 44.8056 32 49.5 32Z" fill="#A2C261"/>
<path d="M68.9668 36.0139L65.5551 33.6685L65.4584 33.8091L65.3737 33.9572L68.9668 36.0139ZM50.0841 69.0016L46.5064 71.0849L50.1148 77.2817L53.6771 71.0583L50.0841 69.0016ZM30.0377 34.5757L30.0223 30.4357L22.8516 30.4623L26.46 36.659L30.0377 34.5757ZM30.1208 34.5754L30.1362 38.7154L37.3145 38.6888L33.6966 32.4888L30.1208 34.5754ZM72.3784 38.3593C75.3818 33.9904 77.1401 28.6943 77.1401 23H68.8599C68.8599 26.9666 67.64 30.6357 65.5551 33.6685L72.3784 38.3593ZM53.6771 71.0583L72.5598 38.0706L65.3737 33.9572L46.491 66.9449L53.6771 71.0583ZM26.46 36.659L46.5064 71.0849L53.6618 66.9183L33.6154 32.4924L26.46 36.659ZM30.1054 30.4354L30.0223 30.4357L30.0531 38.7157L30.1362 38.7154L30.1054 30.4354ZM22.8599 23C22.8599 27.9733 24.2014 32.6459 26.545 36.662L33.6966 32.4888C32.0721 29.7049 31.1401 26.4676 31.1401 23H22.8599ZM50 -4.14007C35.011 -4.14007 22.8599 8.01095 22.8599 23H31.1401C31.1401 12.584 39.584 4.14007 50 4.14007V-4.14007ZM77.1401 23C77.1401 8.01095 64.989 -4.14007 50 -4.14007V4.14007C60.416 4.14007 68.8599 12.584 68.8599 23H77.1401ZM53.8599 23.5C53.8599 25.9079 51.9079 27.8599 49.5 27.8599V36.1401C56.4809 36.1401 62.1401 30.4809 62.1401 23.5H53.8599ZM49.5 19.1401C51.9079 19.1401 53.8599 21.0921 53.8599 23.5H62.1401C62.1401 16.5191 56.4809 10.8599 49.5 10.8599V19.1401ZM45.1401 23.5C45.1401 21.0921 47.0921 19.1401 49.5 19.1401V10.8599C42.5191 10.8599 36.8599 16.5191 36.8599 23.5H45.1401ZM49.5 27.8599C47.0921 27.8599 45.1401 25.9079 45.1401 23.5H36.8599C36.8599 30.4809 42.5191 36.1401 49.5 36.1401V27.8599Z" fill="#0F223C" mask="url(#path-5-inside-1_656_405)"/>
</svg>
