<svg width="73" height="58" viewBox="0 0 73 58" fill="none" xmlns="http://www.w3.org/2000/svg">
<path d="M2.6145 16.7491L29.8082 2L70.5218 8.91364L45.1718 24.7382L2.6145 16.7491Z" fill="#A58E5C"/>
<path d="M2 47.9372V17.21L44.8646 24.8918V55.7727L2 47.9372Z" fill="#6B5238"/>
<path d="M45.0181 55.9265V24.8919L70.6754 9.06738V40.4092L45.0181 55.9265Z" fill="#8A6F47"/>
<path d="M51.4709 5.66475L27.0427 21.4641V31.3446L19.2073 30.1155V20.0369L43.9428 4.39118L51.4709 5.66475Z" fill="#0F223C"/>
<path d="M2 16.9027V47.9373L45.0182 55.9264M2 16.9027L29.8082 2L43.9428 4.39118M2 16.9027L19.2073 20.0369M45.0182 55.9264V24.7382M45.0182 55.9264L70.6755 40.2555V8.91364M45.0182 24.7382L70.6755 8.91364M45.0182 24.7382L27.0427 21.4641M70.6755 8.91364L51.4709 5.66475M27.0427 21.4641L51.4709 5.66475M27.0427 21.4641V31.3446L19.2073 30.1155V20.0369M27.0427 21.4641L23.125 20.7505L19.2073 20.0369M51.4709 5.66475L43.9428 4.39118M43.9428 4.39118L19.2073 20.0369" stroke="#0F223C" stroke-width="3"/>
<path d="M49.9243 47.9944V40.8901L55.7625 37.3027V44.4422L49.9243 47.9944Z" stroke="#0F223C" stroke-width="3"/>
</svg>
