<svg width="56" height="56" viewBox="0 0 56 56" fill="none" xmlns="http://www.w3.org/2000/svg">
<circle cx="27.6246" cy="27.6248" r="22" transform="rotate(11.2244 27.6246 27.6248)" fill="#E4C76A" stroke="#0F223C" stroke-width="3"/>
<path d="M41.0816 31.3144C39.0358 37.7899 32.4007 41.8257 25.5848 40.4731C18.7689 39.1205 14.1777 32.8569 14.7597 26.0908L41.0816 31.3144Z" stroke="#0F223C" stroke-width="3"/>
<path d="M26.6559 22.0634C27.2185 19.2283 25.3762 16.4738 22.5411 15.9112C19.7059 15.3486 16.9515 17.1908 16.3888 20.026" stroke="#0F223C" stroke-width="3"/>
<path d="M21.2804 38.6238C20.4113 38.0027 20.1404 37.5046 20.0828 37.2371C20.6536 34.9974 23.4385 33.2541 26.8822 33.9375C30.443 34.6441 32.1661 37.1453 31.9286 39.4132C31.3866 39.9682 30.543 40.3622 29.399 40.537C28.0952 40.7363 26.5557 40.6213 25.0608 40.2544C23.5635 39.8869 22.216 39.2925 21.2804 38.6238Z" fill="#D68B67" stroke="#0F223C" stroke-width="3"/>
<path d="M42.1568 25.1396C42.7194 22.3045 40.8772 19.55 38.042 18.9874C35.2069 18.4247 32.4524 20.267 31.8898 23.1021" stroke="#0F223C" stroke-width="3"/>
</svg>
