<svg width="89" height="89" viewBox="0 0 89 89" fill="none" xmlns="http://www.w3.org/2000/svg">
<path d="M48.6719 6.84375H47.1719V8.34375V14.1879V15.4975L48.4695 15.6741C53.5422 16.3648 58.1857 18.3605 62.0716 21.3071L63.1126 22.0966L64.0375 21.1737L68.1746 17.0453L69.237 15.9851L68.1762 14.9233L66.2119 12.9573L66.2103 12.9557C65.1633 11.9109 65.1641 10.2224 66.2097 9.18013L66.2103 9.17956C67.2619 8.13019 68.9517 8.13838 69.9784 9.17389L69.9829 9.17843L79.8215 19.0171L79.8273 19.0228C80.8647 20.0492 80.8729 21.7372 79.8216 22.7886C78.7702 23.8399 77.0822 23.8317 76.0558 22.7942L76.0506 22.789L76.0454 22.7839L74.0638 20.8196L73.0009 19.7661L71.9449 20.8265L67.8252 24.9636L66.9048 25.8879L67.6924 26.9278C70.6363 30.8144 72.6355 35.4587 73.3295 40.5314L73.5069 41.8281H74.8156H80.6562H82.1562V40.3281V37.5469C82.1562 36.0634 83.3446 34.875 84.8281 34.875C86.3116 34.875 87.5 36.0634 87.5 37.5469V51.4531C87.5 52.9366 86.3116 54.125 84.8281 54.125C83.3446 54.125 82.1562 52.9366 82.1562 51.4531V48.6719V47.1719H80.6562H74.8156H73.5069L73.3295 48.4686C72.6355 53.5413 70.6363 58.1856 67.6924 62.0722L66.9048 63.112L67.8252 64.0364L71.9449 68.1735L73.0009 69.2339L74.0638 68.1804L76.0454 66.2161L76.0506 66.211L76.0558 66.2058C77.0822 65.1683 78.7702 65.1601 79.8216 66.2114C80.8729 67.2628 80.8647 68.9508 79.8272 69.9772L79.8216 69.9829L69.9829 79.8215L69.9772 79.8273C68.9508 80.8647 67.2628 80.8729 66.2114 79.8216C65.1601 78.7702 65.1683 77.0822 66.2058 76.0558L66.211 76.0506L66.2161 76.0454L68.1804 74.0638L69.2339 73.0009L68.1735 71.9449L64.0364 67.8252L63.112 66.9048L62.0722 67.6924C58.1856 70.6363 53.5413 72.6355 48.4686 73.3295L47.1719 73.5069V74.8156V80.6562V82.1562H48.6719H51.4531C52.9366 82.1562 54.125 83.3446 54.125 84.8281C54.125 86.3116 52.9366 87.5 51.4531 87.5H37.5469C36.0634 87.5 34.875 86.3116 34.875 84.8281C34.875 83.3446 36.0634 82.1562 37.5469 82.1562H40.3281H41.8281V80.6562V74.8156V73.5069L40.5314 73.3295C35.4587 72.6355 30.8144 70.6363 26.9278 67.6924L25.8857 66.9031L24.9614 67.8274L20.8243 71.9645L19.7636 73.0252L20.8243 74.0859L22.7885 76.0501L22.7942 76.0558C23.8317 77.0822 23.8399 78.7702 22.7886 79.8216C21.7372 80.8729 20.0492 80.8647 19.0228 79.8272L19.0171 79.8216L9.17844 69.9829L9.17388 69.9784C8.13838 68.9517 8.13019 67.2619 9.17956 66.2103L9.18013 66.2097C10.2227 65.1638 11.9125 65.1638 12.9551 66.2097L12.9573 66.2119L14.9233 68.1762L15.9851 69.237L17.0453 68.1746L21.1737 64.0375L22.0966 63.1126L21.3071 62.0716C18.3605 58.1857 16.3648 53.5422 15.6741 48.4695L15.4975 47.1719H14.1879H8.34375H6.84375V48.6719V51.4531C6.84375 52.9346 5.64871 54.125 4.17188 54.125C2.69504 54.125 1.5 52.9346 1.5 51.4531V37.5469C1.5 36.0654 2.69504 34.875 4.17188 34.875C5.64871 34.875 6.84375 36.0654 6.84375 37.5469V40.3281V41.8281H8.34375H14.1879H15.4975L15.6741 40.5305C16.3648 35.4578 18.3605 30.8143 21.3071 26.9284L22.0966 25.8873L21.1737 24.9625L17.0453 20.8254L15.9851 19.763L14.9233 20.8238L12.9573 22.7881L12.9557 22.7897C11.9109 23.8367 10.2224 23.8359 9.18013 22.7903L9.17956 22.7897C8.13019 21.7381 8.13837 20.0483 9.17389 19.0216L9.17843 19.0171L19.0171 9.17844L19.0211 9.17445C20.0479 8.13992 21.7385 8.13175 22.7903 9.18013C23.8362 10.2227 23.8362 11.9125 22.7903 12.9551L22.7881 12.9573L20.8238 14.9233L19.763 15.9851L20.8254 17.0453L24.9625 21.1737L25.8873 22.0966L26.9284 21.3071C30.8143 18.3605 35.4578 16.3648 40.5305 15.6741L41.8281 15.4975V14.1879V8.34375V6.84375H40.3281H37.5469C36.065 6.84375 34.875 5.65004 34.875 4.17188C34.875 2.69504 36.0654 1.5 37.5469 1.5H51.4531C52.9346 1.5 54.125 2.69504 54.125 4.17188C54.125 5.64871 52.9346 6.84375 51.4531 6.84375H48.6719ZM33.375 29.0938C27.9401 29.0938 23.5312 33.5026 23.5312 38.9375C23.5312 44.3724 27.9401 48.7812 33.375 48.7812C38.8099 48.7812 43.2188 44.3724 43.2188 38.9375C43.2188 33.5026 38.8099 29.0938 33.375 29.0938ZM52.8438 58.5156C55.9841 58.5156 58.5156 55.9841 58.5156 52.8438C58.5156 49.7034 55.9841 47.1719 52.8438 47.1719C49.7034 47.1719 47.1719 49.7034 47.1719 52.8438C47.1719 55.9841 49.7034 58.5156 52.8438 58.5156Z" fill="#A2C261" stroke="#0F223C" stroke-width="3"/>
</svg>
