<svg width="83" height="83" viewBox="0 0 83 83" fill="none" xmlns="http://www.w3.org/2000/svg">
<path d="M13.2857 2L14.0005 5.71327C14.5127 8.37973 15.6718 10.8622 17.3655 12.9203C19.0593 14.9785 21.2304 16.5427 23.6686 17.4614L24.5714 17.8011L23.6686 18.1409C21.2304 19.0596 19.0593 20.6238 17.3655 22.6819C15.6718 24.7401 14.5127 27.2225 14.0005 29.889L13.2857 33.6023L12.571 29.889C12.0587 27.2225 10.8996 24.7401 9.20589 22.6819C7.51214 20.6238 5.34108 19.0596 2.90286 18.1409L2 17.8011L2.90286 17.4614C5.34108 16.5427 7.51214 14.9785 9.20589 12.9203C10.8996 10.8622 12.0587 8.37973 12.571 5.71327L13.2857 2ZM24.5714 57.304L25.4367 62.3445C25.6613 63.6593 26.1998 64.8929 27.0018 65.9298C27.8038 66.9668 28.843 67.7733 30.0224 68.2739L32.0952 69.1548L30.0224 70.0357C28.8428 70.5355 27.8031 71.3411 27.0005 72.3774C26.1978 73.4136 25.6585 74.6466 25.4329 75.9611L24.5714 81.0057L23.7062 75.9651C23.4815 74.6503 22.943 73.4167 22.1411 72.3798C21.3391 71.3429 20.2998 70.5364 19.1204 70.0357L17.0476 69.1548L19.1204 68.2739C20.3001 67.7742 21.3398 66.9685 22.1424 65.9323C22.945 64.896 23.4843 63.663 23.71 62.3485L24.5714 57.304ZM54.6667 5.95028L56.7583 16.4343C57.8243 21.7794 60.1911 26.7432 63.628 30.8417C67.065 34.9402 71.4547 38.0335 76.3691 39.82L81 41.5028L76.3691 43.1856C71.4547 44.9722 67.065 48.0655 63.628 52.164C60.1911 56.2625 57.8243 61.2263 56.7583 66.5713L54.6667 77.0554L52.575 66.5713C51.5091 61.2263 49.1422 56.2625 45.7053 52.164C42.2684 48.0655 37.8787 44.9722 32.9642 43.1856L28.3333 41.5028L32.9642 39.82C37.8787 38.0335 42.2684 34.9402 45.7053 30.8417C49.1422 26.7432 51.5091 21.7794 52.575 16.4343L54.6667 5.95028Z" fill="#E4C76A" stroke="#0F223C" stroke-width="3" stroke-linecap="round" stroke-linejoin="round"/>
</svg>
