<svg width="110" height="188" viewBox="0 0 110 188" fill="none" xmlns="http://www.w3.org/2000/svg">
<path d="M5.49983 170.496C9.33317 158.663 16.6998 134.496 15.4998 132.496C13.9998 129.996 12.4998 128.496 10.9998 117.996C9.79983 109.596 7.1665 99.4964 5.99983 95.4964C1.99976 85.4949 9.99976 81.4941 14.4998 88.9964C21.7013 101.002 23.6665 112.996 22.9998 117.996" stroke="#0F223C" stroke-width="3"/>
<path d="M13.6866 87.8115C12.0258 80.9382 5.23859 65.8437 3.42443 62.1195C-1.48421 53.5633 5.27518 51.0324 9.60217 55.5534C17.971 64.2974 22.5622 80.3828 23.0011 85.4149" stroke="#0F223C" stroke-width="3"/>
<path d="M18.9997 50.4942C14.4944 41.7189 21.4124 39.5316 25.5244 44.249C33.4774 53.3729 37.9998 71.4941 37.9998 76.9941" stroke="#0F223C" stroke-width="3"/>
<path d="M36.4995 67.4928C33.9996 59.4932 40.2347 58.3467 42.4995 62.9939C45.4238 68.9941 46.0811 75.9941 47 81.4941C48.0483 87.769 55.5 110.494 42.2933 125.493M36.4995 132.493C38.8053 130.331 40.7167 127.965 42.2933 125.493M42.2933 125.493C42.1954 129.493 40.1996 142.693 32.9996 163.493" stroke="#0F223C" stroke-width="3"/>
<path d="M47 81.9946C42.1667 80.828 30.8 81.0946 24 91.4946" stroke="#0F223C" stroke-width="3"/>
<path d="M7.49995 53.994C1 43.7385 8.89973 39.6238 13.6149 43.7383C22.4997 51.4913 28.9999 73.9923 28.9998 79.4925" stroke="#0F223C" stroke-width="3"/>
<path d="M102.904 186.563C99.2591 174.671 92.277 150.39 93.5085 148.409C95.0479 145.934 96.5714 144.458 98.2378 133.983C99.5708 125.603 102.364 115.546 103.594 111.565C107.752 101.628 99.8167 97.5008 95.1984 104.931C87.8076 116.821 85.6525 128.782 86.2397 133.792" stroke="#0F223C" stroke-width="3"/>
<path d="M96.0306 103.759C97.8001 96.9133 104.826 81.9283 106.699 78.2333C111.742 69.7561 105.024 67.1183 100.626 71.5701C92.1199 80.1802 87.2743 96.1907 86.7556 101.215" stroke="#0F223C" stroke-width="3"/>
<path d="M91.31 66.3621C95.9538 57.6594 89.0716 55.3627 84.8854 60.0143C76.789 69.0108 71.9799 87.0581 71.8926 92.5574" stroke="#0F223C" stroke-width="3"/>
<path d="M73.5437 83.0807C76.1701 75.1217 69.9542 73.8765 67.6161 78.4871C64.5971 84.4403 63.8288 91.429 62.8228 96.9137C61.6752 103.171 53.8642 125.775 66.8309 140.981M72.5126 148.072C70.2415 145.874 68.368 143.478 66.8309 140.981M66.8309 140.981C66.8653 144.983 68.6513 158.213 75.5202 179.124" stroke="#0F223C" stroke-width="3"/>
<path d="M62.8151 97.4139C67.6661 96.3241 79.0267 96.771 85.6607 107.278" stroke="#0F223C" stroke-width="3"/>
<path d="M102.753 70.0437C109.415 59.8926 101.581 55.6531 96.8017 59.6923C87.7953 67.3034 80.9392 89.6985 80.8521 95.198" stroke="#0F223C" stroke-width="3"/>
<path d="M47.8849 40.5432C49.763 25.6275 40.7887 13.1501 39.8379 15.5283C37.4897 21.4011 43.4217 31.2653 47.3567 41.0135" stroke="#0F223C" stroke-width="3"/>
<path d="M57.7124 37.9941C64.0238 24.3407 64.7045 0.568978 62.8173 2.30059C58.1569 6.57674 56.5744 29.034 57.9258 40.1323" stroke="#0F223C" stroke-width="3"/>
<path d="M69.5007 38.3441C81.3004 29.0157 87.8436 15.5059 85.3777 16.1979C79.288 17.9069 72.7755 29.2659 68.9664 39.7773" stroke="#0F223C" stroke-width="3"/>
</svg>
