<svg width="183" height="171" viewBox="0 0 183 171" fill="none" xmlns="http://www.w3.org/2000/svg">
<circle cx="95.4995" cy="92.5029" r="76" stroke="#0F223C" stroke-width="3"/>
<path d="M113.5 91.5029C113.5 112.54 111.324 131.535 107.835 145.226C106.087 152.083 104.03 157.525 101.805 161.217C99.5245 165.001 97.3484 166.503 95.4995 166.503C93.6506 166.503 91.4745 165.001 89.194 161.217C86.969 157.525 84.9123 152.083 83.1645 145.226C79.6746 131.535 77.4995 112.54 77.4995 91.5029C77.4995 70.4655 79.6746 51.4708 83.1645 37.7798C84.9123 30.9228 86.969 25.4808 89.194 21.7889C91.4745 18.0047 93.6506 16.5029 95.4995 16.5029C97.3484 16.5029 99.5245 18.0047 101.805 21.7889C104.03 25.4808 106.087 30.9228 107.835 37.7798C111.324 51.4708 113.5 70.4655 113.5 91.5029Z" stroke="#0F223C" stroke-width="3"/>
<path d="M141.5 91.5029C141.5 112.382 136.021 131.215 127.242 144.782C118.454 158.364 106.49 166.503 93.4995 166.503C80.5092 166.503 68.5455 158.364 59.7571 144.782C50.9783 131.215 45.4995 112.382 45.4995 91.5029C45.4995 70.624 50.9783 51.7913 59.7571 38.2241C68.5455 24.642 80.5092 16.5029 93.4995 16.5029C106.49 16.5029 118.454 24.642 127.242 38.2241C136.021 51.7913 141.5 70.624 141.5 91.5029Z" stroke="#0F223C" stroke-width="3"/>
<path d="M171.5 92.0029C171.5 103.449 137.197 112.729 95.4995 112.729C53.802 112.729 19.4995 103.449 19.4995 92.0029" stroke="#0F223C" stroke-width="2.96078"/>
<path d="M154.5 140.503C146 150.503 126.151 157.003 95.4995 157.003C64.8477 157.003 44.4995 149.003 35.9995 139.503" stroke="#0F223C" stroke-width="2.96078"/>
<path d="M131 24.5172C125.978 29.6601 114.254 33.0029 96.1472 33.0029C78.0406 33.0029 66.0206 28.8886 60.9995 24.0029" stroke="#0F223C" stroke-width="2.96078"/>
<path d="M166 120.003C166 130.691 134.436 139.355 95.4995 139.355C56.5634 139.355 24.9995 130.691 24.9995 120.003" stroke="#0F223C" stroke-width="2.76471"/>
<path d="M165 62.0029C165 69.7349 133.883 76.0029 95.4995 76.0029C57.1157 76.0029 25.9995 69.7349 25.9995 62.0029" stroke="#0F223C" stroke-width="2.72549"/>
<path d="M146 35.0029C146 42.7349 123.39 49.0029 95.4995 49.0029C67.6091 49.0029 44.9995 42.7349 44.9995 35.0029" stroke="#0F223C" stroke-width="2.72549"/>
<circle cx="154.625" cy="27.6278" r="22" transform="rotate(11.2244 154.625 27.6278)" fill="#E4C76A" stroke="#0F223C" stroke-width="3"/>
<path d="M168.082 31.3173C166.036 37.7929 159.401 41.8286 152.585 40.476C145.769 39.1234 141.178 32.8598 141.76 26.0938L168.082 31.3173Z" stroke="#0F223C" stroke-width="3"/>
<path d="M153.656 22.0665C154.219 19.2313 152.376 16.4769 149.541 15.9142C146.706 15.3516 143.952 17.1939 143.389 20.029" stroke="#0F223C" stroke-width="3"/>
<path d="M148.28 38.6267C147.411 38.0056 147.14 37.5076 147.083 37.24C147.654 35.0004 150.438 33.257 153.882 33.9404C157.443 34.647 159.166 37.1483 158.929 39.4161C158.387 39.9712 157.543 40.3651 156.399 40.5399C155.095 40.7392 153.556 40.6243 152.061 40.2573C150.564 39.8898 149.216 39.2954 148.28 38.6267Z" fill="#D68B67" stroke="#0F223C" stroke-width="3"/>
<path d="M169.157 25.1427C169.72 22.3075 167.877 19.553 165.042 18.9904C162.207 18.4278 159.453 20.27 158.89 23.1052" stroke="#0F223C" stroke-width="3"/>
<path d="M30.5605 116.849L11.988 99.0848L19.0078 92.3787L34.8028 89.8256L45.1385 94.2329L30.5605 116.849Z" fill="#E9CB9E"/>
<rect x="3.56055" y="40.6807" width="32" height="11" transform="rotate(-9.18182 3.56055 40.6807)" fill="#D68B67"/>
<path d="M12.4017 98.5112L3.99463 52.7666L36.7314 48.488L43.9917 93.405L33.656 88.9978L28.4361 97.4389L19.8354 91.2318L12.4017 98.5112Z" fill="#E4C76A"/>
<path d="M4.48825 52.6865L12.0751 99.6235M4.48825 52.6865L13.7266 51.1932M4.48825 52.6865L2.49365 40.3467L35.0708 35.0809L37.0654 47.4208M12.0751 99.6235L31.5439 118.209L44.6523 94.3578M12.0751 99.6235L20.2957 91.8338M44.6523 94.3578L37.0654 47.4208M44.6523 94.3578L34.3962 89.5546M37.0654 47.4208L27.8271 48.914M20.2957 91.8338L28.3056 98.1747L34.3962 89.5546M20.2957 91.8338L13.7266 51.1932M34.3962 89.5546L27.8271 48.914M13.7266 51.1932L27.8271 48.914" stroke="#0F223C" stroke-width="3"/>
<path d="M31.1336 117.262L35.1861 109.77L24.9269 111.428L31.1336 117.262Z" fill="#0F223C"/>
<path d="M99.0663 108.678C97.8014 95.0302 117.576 92.1232 114.529 110.526C128.421 96.1614 138.295 114.191 124.709 122.479L102.338 135.633C101.568 127.653 100.894 128.396 99.0663 108.678Z" fill="#D68B67" stroke="#0F223C" stroke-width="3"/>
</svg>
