<svg width="31" height="32" viewBox="0 0 31 32" fill="none" xmlns="http://www.w3.org/2000/svg">
<path d="M20.1969 31.07H10.8504C10.6605 31.0536 10.4705 31.0269 10.2805 31.0221C9.03696 30.9905 7.79582 30.9414 6.58017 30.6434C4.02506 30.0165 2.12299 28.5638 0.989879 26.1686C0.290107 24.6879 0.0728311 23.0962 0.0558375 21.4796C0.0194226 18.1141 -0.0175992 14.7485 0.00910503 11.3836C0.0206364 9.97335 0.105604 8.55153 0.312562 7.15763C0.636048 4.98576 1.68419 3.18285 3.46184 1.85085C4.98581 0.709391 6.7495 0.255478 8.61455 0.123795C9.35924 0.0709998 10.1051 0.040658 10.8504 0C13.9457 0 17.041 0 20.1362 0C20.8609 0.0400512 21.5861 0.0782818 22.3108 0.12076C23.5793 0.195401 24.8216 0.414469 25.9857 0.937562C28.8418 2.22223 30.347 4.51061 30.8155 7.54479C30.898 8.08063 30.9399 8.62314 31 9.16262V21.6634C30.983 21.7715 30.9618 21.8795 30.9502 21.9887C30.8847 22.5998 30.8537 23.2169 30.7512 23.822C30.4216 25.7717 29.5883 27.4624 28.0911 28.7901C26.4682 30.2295 24.5145 30.8036 22.4 30.9468C21.6663 30.9966 20.9313 31.0287 20.1969 31.0694V31.07ZM15.5267 28.3241L15.5279 28.2761C16.3473 28.2761 17.1672 28.3004 17.9853 28.2713C19.7423 28.2082 21.5079 28.2076 23.2521 28.017C25.6282 27.7567 27.3288 26.2262 27.8647 23.9421C28.0886 22.9869 28.1736 21.9832 28.193 20.999C28.2495 18.1177 28.2689 15.2352 28.2464 12.3534C28.2349 10.8496 28.1863 9.33678 28.0097 7.84517C27.7136 5.34987 26.1392 3.65437 23.683 3.16586C22.6106 2.95286 21.4963 2.88611 20.399 2.87033C17.487 2.82786 14.5732 2.82239 11.6613 2.85638C10.3097 2.87215 8.94653 2.92131 7.61253 3.11671C5.24435 3.46321 3.6336 5.00458 3.15292 7.34757C2.94536 8.35977 2.87556 9.41142 2.85372 10.4473C2.80031 12.9444 2.78089 15.4428 2.8082 17.9405C2.82762 19.6876 2.87192 21.4407 3.04186 23.1775C3.21483 24.944 4.05723 26.384 5.63399 27.304C6.61477 27.8762 7.70539 28.1129 8.82576 28.1523C11.0592 28.2306 13.2933 28.2695 15.5273 28.3247L15.5267 28.3241Z" fill="#0F223C"/>
<path d="M7.53663 15.5304C7.5433 11.123 11.1368 7.54143 15.5352 7.55964C19.9565 7.57784 23.527 11.1642 23.4997 15.5596C23.4724 19.9719 19.9122 23.5237 15.5212 23.52C11.1138 23.5158 7.53056 19.93 7.53663 15.531V15.5304ZM15.4939 20.708C18.361 20.7213 20.6745 18.4354 20.6927 15.5717C20.7109 12.7062 18.4259 10.3875 15.5631 10.3663C12.6851 10.3444 10.3612 12.6407 10.3491 15.5177C10.3369 18.3801 12.6311 20.6946 15.4939 20.708Z" fill="#0F223C"/>
<path d="M25.6756 7.25625C25.6683 8.29515 24.8308 9.11438 23.7881 9.10224C22.7728 9.09011 21.9516 8.24903 21.9571 7.22591C21.9631 6.20278 22.791 5.38355 23.8185 5.38477C24.863 5.38537 25.6823 6.21188 25.6756 7.25686V7.25625Z" fill="#0F223C"/>
</svg>
