<svg width="33" height="27" viewBox="0 0 33 27" fill="none" xmlns="http://www.w3.org/2000/svg">
<path d="M29.7 26.2059H3.3C2.42479 26.2059 1.58542 25.8608 0.966547 25.2464C0.347677 24.6321 0 23.7989 0 22.9301V3.13324C0.0370139 2.2894 0.400965 1.49236 1.01587 0.908526C1.63077 0.324695 2.4491 -0.000798033 3.3 1.46936e-06H29.7C30.5752 1.46936e-06 31.4146 0.345122 32.0335 0.959442C32.6523 1.57376 33 2.40696 33 3.27574V22.9301C33 23.7989 32.6523 24.6321 32.0335 25.2464C31.4146 25.8608 30.5752 26.2059 29.7 26.2059ZM2.80777 6.08351V23.3981H30.0438V6.08351L16.5 15.9107L2.80777 6.08351ZM3.3 2.80777L16.5 12.2576L29.4816 2.80777H3.3Z" fill="#0F223C"/>
</svg>
