<svg width="88" height="86" viewBox="0 0 88 86" fill="none" xmlns="http://www.w3.org/2000/svg">
<circle cx="43.9998" cy="42.9998" r="41.4998" stroke="#0F223C" stroke-width="3"/>
<path d="M53.3193 42.4449C53.3193 54.0783 52.1158 64.5592 50.1968 72.0875C49.2344 75.8631 48.113 78.8115 46.9266 80.7801C45.6846 82.841 44.6503 83.3898 44 83.3898C43.3496 83.3898 42.3154 82.841 41.0733 80.7801C39.887 78.8115 38.7655 75.8631 37.8031 72.0875C35.8841 64.5592 34.6807 54.0783 34.6807 42.4449C34.6807 30.8115 35.8841 20.3307 37.8031 12.8023C38.7655 9.02679 39.887 6.07836 41.0733 4.10978C42.3154 2.04886 43.3496 1.5 44 1.5C44.6503 1.5 45.6846 2.04886 46.9266 4.10978C48.113 6.07836 49.2344 9.02679 50.1968 12.8023C52.1158 20.3307 53.3193 30.8115 53.3193 42.4449Z" stroke="#0F223C" stroke-width="3"/>
<path d="M68.8545 42.4449C68.8545 53.9198 65.8421 64.2387 61.051 71.6431C56.2502 79.0625 49.7955 83.3898 42.8901 83.3898C35.9848 83.3898 29.53 79.0625 24.7293 71.6431C19.9382 64.2387 16.9258 53.9198 16.9258 42.4449C16.9258 30.9701 19.9382 20.6511 24.7293 13.2467C29.53 5.82733 35.9848 1.5 42.8901 1.5C49.7955 1.5 56.2502 5.82733 61.051 13.2467C65.8421 20.6511 68.8545 30.9701 68.8545 42.4449Z" stroke="#0F223C" stroke-width="3"/>
<path d="M86.167 42.7234C86.167 49.0742 67.1348 54.2227 43.9995 54.2227C20.8643 54.2227 1.83203 49.0742 1.83203 42.7234" stroke="#0F223C" stroke-width="3"/>
<path d="M76.7353 69.6323C72.0192 75.1807 61.0067 78.7871 44 78.7871C26.9933 78.7871 15.7034 74.3484 10.9873 69.0775" stroke="#0F223C" stroke-width="3"/>
<path d="M63.6964 5.27913C60.9105 8.13257 54.4053 9.9873 44.3591 9.9873C34.3129 9.9873 27.6438 7.70455 24.8579 4.99378" stroke="#0F223C" stroke-width="3"/>
<path d="M83.1161 58.2574C83.1161 64.1877 65.6033 68.9951 44.0002 68.9951C22.3971 68.9951 4.88428 64.1877 4.88428 58.2574" stroke="#0F223C" stroke-width="3"/>
<path d="M82.5606 26.077C82.5606 30.367 65.2962 33.8447 43.9995 33.8447C22.7029 33.8447 5.43848 30.367 5.43848 26.077" stroke="#0F223C" stroke-width="3"/>
<path d="M72.0193 11.0966C72.0193 15.3865 59.4747 18.8643 44.0002 18.8643C28.5256 18.8643 15.981 15.3865 15.981 11.0966" stroke="#0F223C" stroke-width="3"/>
</svg>
