<svg width="170" height="178" viewBox="0 0 170 178" fill="none" xmlns="http://www.w3.org/2000/svg">
<path d="M16.9767 172.069C29.1228 163.192 54.1028 145.593 56.8542 146.216C60.2934 146.994 62.5837 148.15 75.2139 145.905C85.3181 144.108 97.9171 143.315 102.954 143.144C115.956 143.958 117.529 133.255 107.208 130.922C90.6931 127.187 76.1704 129.463 70.678 132.119" stroke="#0F223C" stroke-width="3.6284"/>
<path d="M108.877 131.408C117.401 130.718 137.308 132.809 142.273 133.486C153.958 135.891 154.311 127.169 147.481 123.907C134.272 117.597 114.056 118.403 108.109 119.801" stroke="#0F223C" stroke-width="3.6284"/>
<path d="M149.742 111.198C161.526 113.057 161.424 104.282 154.45 101.341C140.962 95.6537 118.433 97.3082 112.115 99.3872" stroke="#0F223C" stroke-width="3.6284"/>
<path d="M123.597 97.5189C133.733 97.367 132.693 89.7705 126.498 88.9253C118.499 87.834 110.209 89.7248 103.542 90.7482C95.9372 91.9158 67.012 91.9453 54.7725 112.787M48.9203 122.089C50.5323 118.623 52.5285 115.533 54.7725 112.787M54.7725 112.787C50.214 114.412 35.8031 121.694 14.628 137.828" stroke="#0F223C" stroke-width="3.6284"/>
<path d="M102.968 90.9378C106.135 96.0495 110.125 109.209 100.747 120.952" stroke="#0F223C" stroke-width="3.6284"/>
<path d="M150.068 125.732C164.307 129.322 166.048 118.691 159.539 114.83C147.273 107.553 118.965 108.591 112.646 110.67" stroke="#0F223C" stroke-width="3.6284"/>
<path d="M75.8844 40.5432C77.7625 25.6275 68.7882 13.1501 67.8374 15.5283C65.4892 21.4011 71.4212 31.2653 75.3562 41.0135" stroke="#0F223C" stroke-width="3"/>
<path d="M85.7119 37.9941C92.0234 24.3407 92.704 0.568978 90.8168 2.30059C86.1564 6.57674 84.574 29.034 85.9253 40.1323" stroke="#0F223C" stroke-width="3"/>
<path d="M97.5002 38.3441C109.3 29.0157 115.843 15.5059 113.377 16.1979C107.288 17.9069 100.775 29.2659 96.9659 39.7773" stroke="#0F223C" stroke-width="3"/>
<path d="M53.7085 70.0084L85.066 53.001L132.014 60.9732L102.782 79.2208L53.7085 70.0084Z" fill="#A58E5C"/>
<path d="M53 105.972V70.54L102.428 79.3981V115.007L53 105.972Z" fill="#6B5238"/>
<path d="M102.605 115.185V79.398L132.191 61.1504V97.2913L102.605 115.185Z" fill="#8A6F47"/>
<path d="M110.046 57.2269L81.8773 75.4454V86.8388L72.842 85.4215V73.7997L101.365 55.7583L110.046 57.2269Z" fill="#0F223C"/>
<path d="M53 70.1856V105.972L102.605 115.185M53 70.1856L85.0662 53.001L101.365 55.7583M53 70.1856L72.842 73.7997M102.605 115.185V79.2208M102.605 115.185L132.191 97.1141V60.9732M102.605 79.2208L132.191 60.9732M102.605 79.2208L81.8773 75.4454M132.191 60.9732L110.046 57.2269M81.8773 75.4454L110.046 57.2269M81.8773 75.4454V86.8388L72.842 85.4215V73.7997M81.8773 75.4454L77.3597 74.6225L72.842 73.7997M110.046 57.2269L101.365 55.7583M101.365 55.7583L72.842 73.7997" stroke="#0F223C" stroke-width="3"/>
<path d="M108.263 106.038V97.8456L114.995 93.709V101.942L108.263 106.038Z" stroke="#0F223C" stroke-width="3"/>
</svg>
