<svg width="75" height="131" viewBox="0 0 75 131" fill="none" xmlns="http://www.w3.org/2000/svg">
<path d="M48.5453 59.8107V61.7694C48.5453 67.319 48.072 71.7588 47.1253 75.0885C46.2112 78.3857 44.8564 81.0299 43.061 83.0213C41.2981 85.0126 39.1109 86.8407 36.4993 88.5056C34.4753 89.8441 32.6472 91.1825 31.015 92.521C29.3827 93.8594 28.0932 95.3121 27.1465 96.8791C26.1998 98.446 25.7265 100.225 25.7265 102.217C25.7265 104.175 26.1835 105.873 27.0976 107.309C28.0116 108.778 29.2521 109.904 30.8191 110.688C32.4187 111.504 34.1815 111.912 36.1076 111.912C38.0336 111.912 39.8291 111.471 41.494 110.59C43.1915 109.741 44.5626 108.484 45.6073 106.819C46.6846 105.187 47.2395 103.245 47.2722 100.992H69.7972C69.6993 107.848 68.0997 113.463 64.9984 117.837C61.9298 122.244 57.8491 125.492 52.7565 127.582C47.6966 129.671 42.0816 130.716 35.9117 130.716C29.2195 130.716 23.2455 129.671 17.9896 127.582C12.7338 125.492 8.6042 122.407 5.60086 118.327C2.59752 114.279 1.09585 109.284 1.09585 103.343C1.09585 99.4254 1.74875 95.9977 3.05455 93.0596C4.36035 90.0889 6.17215 87.4773 8.48994 85.2248C10.8404 82.9397 13.5826 80.883 16.7165 79.0549C19.1975 77.5532 21.2378 76.0352 22.8374 74.5009C24.437 72.9666 25.6449 71.1875 26.461 69.1635C27.2771 67.1068 27.6852 64.6422 27.6852 61.7694V59.8107H48.5453ZM37.7235 27.688C41.2492 27.688 44.2688 28.9285 46.7825 31.4096C49.2962 33.8579 50.5203 36.8613 50.4551 40.4196C50.5203 43.8799 49.2962 46.8343 46.7825 49.2827C44.2688 51.7311 41.2492 52.9552 37.7235 52.9552C34.3611 52.9552 31.4067 51.7311 28.8604 49.2827C26.3467 46.8343 25.0573 43.8799 24.992 40.4196C25.0246 38.0365 25.6286 35.8819 26.8038 33.9559C28.0116 32.0298 29.5786 30.5118 31.5046 29.4019C33.4307 28.2593 35.5037 27.688 37.7235 27.688Z" fill="#E4C76A"/>
<path d="M48.5453 59.8107H51.5453V56.8107H48.5453V59.8107ZM47.1253 75.0885L44.2396 74.2681L44.2369 74.2776L44.2343 74.2871L47.1253 75.0885ZM43.061 83.0213L40.8329 81.0124L40.8238 81.0225L40.8147 81.0328L43.061 83.0213ZM36.4993 88.5056L34.8867 85.9759L34.8655 85.9894L34.8446 86.0033L36.4993 88.5056ZM31.015 92.521L29.1127 90.2012L29.1127 90.2012L31.015 92.521ZM27.1465 96.8791L24.5788 95.3277L24.5788 95.3277L27.1465 96.8791ZM27.0976 107.309L29.6447 105.724L29.6367 105.711L29.6286 105.699L27.0976 107.309ZM30.8191 110.688L32.1825 108.016L32.1717 108.01L32.1607 108.005L30.8191 110.688ZM41.494 110.59L40.1524 107.907L40.1212 107.922L40.0903 107.939L41.494 110.59ZM45.6073 106.819L43.1035 105.167L43.0844 105.196L43.0661 105.225L45.6073 106.819ZM47.2722 100.992V97.9923H44.3153L44.2725 100.949L47.2722 100.992ZM69.7972 100.992L72.7969 101.035L72.8404 97.9923H69.7972V100.992ZM64.9984 117.837L62.551 116.102L62.5437 116.112L62.5364 116.123L64.9984 117.837ZM52.7565 127.582L51.6179 124.806L51.6116 124.809L52.7565 127.582ZM17.9896 127.582L19.0978 124.794L19.0978 124.794L17.9896 127.582ZM5.60086 118.327L8.01702 116.549L8.01015 116.539L5.60086 118.327ZM3.05455 93.0596L5.79601 94.278L5.80094 94.2668L3.05455 93.0596ZM8.48994 85.2248L10.5807 87.3762L10.5812 87.3758L8.48994 85.2248ZM16.7165 79.0549L18.2281 81.6462L18.2491 81.634L18.2699 81.6214L16.7165 79.0549ZM22.8374 74.5009L20.7607 72.3359L20.7607 72.3359L22.8374 74.5009ZM26.461 69.1635L29.2433 70.2854L29.2464 70.2777L29.2495 70.27L26.461 69.1635ZM27.6852 59.8107V56.8107H24.6852V59.8107H27.6852ZM46.7825 31.4096L44.6751 33.5447L44.6822 33.5517L44.6893 33.5586L46.7825 31.4096ZM50.4551 40.4196L47.4556 40.3645L47.4545 40.4204L47.4556 40.4762L50.4551 40.4196ZM46.7825 49.2827L48.8757 51.4317L48.8757 51.4317L46.7825 49.2827ZM28.8604 49.2827L26.7672 51.4317L26.7741 51.4385L26.7811 51.4452L28.8604 49.2827ZM24.992 40.4196L21.9923 40.3785L21.9916 40.4273L21.9925 40.4762L24.992 40.4196ZM26.8038 33.9559L24.2622 32.362L24.2524 32.3776L24.2429 32.3933L26.8038 33.9559ZM31.5046 29.4019L33.0025 32.0012L33.019 31.9917L33.0353 31.9821L31.5046 29.4019ZM45.5453 59.8107V61.7694H51.5453V59.8107H45.5453ZM45.5453 61.7694C45.5453 67.1871 45.0789 71.3161 44.2396 74.2681L50.0109 75.909C51.065 72.2014 51.5453 67.451 51.5453 61.7694H45.5453ZM44.2343 74.2871C43.4113 77.2559 42.2428 79.4486 40.8329 81.0124L45.289 85.0302C47.4701 82.6112 49.0112 79.5155 50.0162 75.89L44.2343 74.2871ZM40.8147 81.0328C39.2643 82.7841 37.3006 84.4371 34.8867 85.9759L38.112 91.0353C40.9213 89.2444 43.332 87.2411 45.3073 85.0098L40.8147 81.0328ZM34.8446 86.0033C32.7474 87.3901 30.835 88.7889 29.1127 90.2012L32.9172 94.8408C34.4595 93.5761 36.2033 92.298 38.1541 91.008L34.8446 86.0033ZM29.1127 90.2012C27.2563 91.7235 25.7267 93.4277 24.5788 95.3277L29.7143 98.4304C30.4598 97.1965 31.5092 95.9953 32.9172 94.8408L29.1127 90.2012ZM24.5788 95.3277C23.3247 97.4035 22.7265 99.728 22.7265 102.217H28.7265C28.7265 100.722 29.075 99.4886 29.7143 98.4304L24.5788 95.3277ZM22.7265 102.217C22.7265 104.658 23.3023 106.933 24.5666 108.92L29.6286 105.699C29.0648 104.813 28.7265 103.692 28.7265 102.217H22.7265ZM24.5504 108.894C25.761 110.84 27.4215 112.343 29.4775 113.371L32.1607 108.005C31.0828 107.466 30.2622 106.717 29.6447 105.724L24.5504 108.894ZM29.4557 113.36C31.5078 114.407 33.7428 114.912 36.1076 114.912V108.912C34.6203 108.912 33.3296 108.601 32.1825 108.016L29.4557 113.36ZM36.1076 114.912C38.5116 114.912 40.7904 114.357 42.8977 113.241L40.0903 107.939C38.8679 108.586 37.5557 108.912 36.1076 108.912V114.912ZM42.8357 113.273C45.0434 112.169 46.8223 110.527 48.1485 108.414L43.0661 105.225C42.303 106.441 41.3397 107.313 40.1524 107.907L42.8357 113.273ZM48.1111 108.472C49.5496 106.292 50.2322 103.772 50.2719 101.036L44.2725 100.949C44.2469 102.718 43.8196 104.082 43.1035 105.167L48.1111 108.472ZM47.2722 103.992H69.7972V97.9923H47.2722V103.992ZM66.7975 100.949C66.7058 107.367 65.2149 112.345 62.551 116.102L67.4458 119.572C70.9844 114.581 72.6927 108.329 72.7969 101.035L66.7975 100.949ZM62.5364 116.123C59.8062 120.044 56.1906 122.93 51.6179 124.806L53.8952 130.357C59.5077 128.055 64.0533 124.445 67.4604 119.551L62.5364 116.123ZM51.6116 124.809C46.958 126.73 41.7385 127.716 35.9117 127.716V133.716C42.4247 133.716 48.4351 132.612 53.9015 130.355L51.6116 124.809ZM35.9117 127.716C29.5308 127.716 23.9428 126.72 19.0978 124.794L16.8814 130.369C22.5482 132.622 28.9082 133.716 35.9117 133.716V127.716ZM19.0978 124.794C14.3013 122.887 10.6497 120.126 8.017 116.549L3.18472 120.105C6.5587 124.689 11.1662 128.098 16.8814 130.369L19.0978 124.794ZM8.01015 116.539C5.45565 113.096 4.09585 108.759 4.09585 103.343H-1.90415C-1.90415 109.809 -0.260612 115.461 3.19156 120.114L8.01015 116.539ZM4.09585 103.343C4.09585 99.7555 4.69365 96.7583 5.79599 94.278L0.313116 91.8412C-1.19615 95.237 -1.90415 99.0952 -1.90415 103.343H4.09585ZM5.80094 94.2668C6.95176 91.6487 8.54144 89.3581 10.5807 87.3762L6.39914 83.0734C3.80285 85.5966 1.76894 88.5291 0.308161 91.8524L5.80094 94.2668ZM10.5812 87.3758C12.7396 85.2774 15.2824 83.3645 18.2281 81.6462L15.2049 76.4636C11.8827 78.4015 8.9412 80.602 6.3987 83.0738L10.5812 87.3758ZM18.2699 81.6214C20.8853 80.0384 23.1153 78.3913 24.9141 76.666L20.7607 72.3359C19.3603 73.6792 17.5097 75.0681 15.1631 76.4884L18.2699 81.6214ZM24.9141 76.666C26.8151 74.8425 28.2659 72.7094 29.2433 70.2854L23.6787 68.0416C23.0239 69.6655 22.0589 71.0907 20.7607 72.3359L24.9141 76.666ZM29.2495 70.27C30.2402 67.7734 30.6852 64.9135 30.6852 61.7694H24.6852C24.6852 64.3708 24.3141 66.4403 23.6725 68.0569L29.2495 70.27ZM30.6852 61.7694V59.8107H24.6852V61.7694H30.6852ZM27.6852 62.8107H48.5453V56.8107H27.6852V62.8107ZM37.7235 30.688C40.4588 30.688 42.7218 31.6167 44.6751 33.5447L48.8899 29.2744C45.8159 26.2404 42.0396 24.688 37.7235 24.688V30.688ZM44.6893 33.5586C46.6 35.4197 47.5059 37.6212 47.4556 40.3645L53.4546 40.4746C53.5348 36.1014 51.9924 32.2962 48.8757 29.2605L44.6893 33.5586ZM47.4556 40.4762C47.505 43.0947 46.6184 45.2546 44.6893 47.1336L48.8757 51.4317C51.9739 48.414 53.5357 44.6652 53.4545 40.363L47.4556 40.4762ZM44.6893 47.1336C42.7388 49.0335 40.4714 49.9552 37.7235 49.9552V55.9552C42.027 55.9552 45.7989 54.4286 48.8757 51.4317L44.6893 47.1336ZM37.7235 49.9552C35.1787 49.9552 32.9584 49.0613 30.9397 47.1202L26.7811 51.4452C29.855 54.4009 33.5435 55.9552 37.7235 55.9552V49.9552ZM30.9536 47.1336C28.9969 45.2277 28.0416 43.0216 27.9914 40.363L21.9925 40.4762C22.0729 44.7383 23.6966 48.4409 26.7672 51.4317L30.9536 47.1336ZM27.9917 40.4607C28.0174 38.5834 28.4853 36.9597 29.3647 35.5185L24.2429 32.3933C22.7718 34.8042 22.0318 37.4896 21.9923 40.3785L27.9917 40.4607ZM29.3453 35.5497C30.2989 34.0293 31.5112 32.8606 33.0025 32.0012L30.0068 26.8026C27.6459 28.1631 25.7244 30.0304 24.2622 32.362L29.3453 35.5497ZM33.0353 31.9821C34.5024 31.1117 36.0473 30.688 37.7235 30.688V24.688C34.96 24.688 32.359 25.4069 29.974 26.8217L33.0353 31.9821Z" fill="#0F223C"/>
</svg>
