<svg width="75" height="106" viewBox="0 0 75 106" fill="none" xmlns="http://www.w3.org/2000/svg">
<path d="M21.3194 72.2974V70.2897C21.3194 64.7401 21.7764 60.3167 22.6905 57.0195C23.6372 53.7224 25.0083 51.0782 26.8038 49.0868C28.5992 47.0628 30.7865 45.2184 33.3654 43.5535C35.422 42.2477 37.2502 40.9256 38.8498 39.5871C40.482 38.216 41.7715 36.747 42.7182 35.1801C43.6649 33.6131 44.1383 31.8339 44.1383 29.8426C44.1383 27.9166 43.6812 26.219 42.7672 24.75C41.8531 23.281 40.5963 22.1547 38.9967 21.3712C37.4297 20.5551 35.6832 20.147 33.7572 20.147C31.8311 20.147 30.0193 20.5878 28.3218 21.4692C26.6569 22.3506 25.2858 23.6074 24.2085 25.2397C23.1639 26.8393 22.6252 28.7816 22.5926 31.0668H0.0675351C0.16547 24.2113 1.74875 18.5964 4.81738 14.222C7.91865 9.84756 12.0156 6.61571 17.1082 4.52642C22.2008 2.4045 27.8158 1.34354 33.953 1.34354C40.6779 1.34354 46.6519 2.38818 51.8751 4.47745C57.131 6.56674 61.2605 9.65169 64.2639 13.7323C67.2672 17.8129 68.7689 22.8076 68.7689 28.7164C68.7689 32.6011 68.116 36.0288 66.8102 38.9995C65.5044 41.9702 63.6763 44.5981 61.3258 46.8833C59.008 49.1358 56.2822 51.1924 53.1483 53.0532C50.6999 54.4896 48.6596 55.9912 47.0273 57.5582C45.4277 59.1252 44.2199 60.9206 43.4037 62.9446C42.5876 64.936 42.1796 67.3843 42.1796 70.2897V72.2974H21.3194ZM32.1412 104.42C28.6156 104.42 25.5959 103.18 23.0822 100.699C20.6012 98.2175 19.377 95.2142 19.4097 91.6885C19.377 88.2281 20.6012 85.2738 23.0822 82.8254C25.5959 80.3444 28.6156 79.1039 32.1412 79.1039C35.5037 79.1039 38.458 80.3444 41.0043 82.8254C43.5506 85.2738 44.8401 88.2281 44.8728 91.6885C44.8401 94.039 44.2199 96.1772 43.012 98.1033C41.8368 100.029 40.2861 101.564 38.3601 102.706C36.4667 103.849 34.3937 104.42 32.1412 104.42Z" fill="#E4C76A"/>
<path d="M21.3194 72.2974H18.3194V75.2974H21.3194V72.2974ZM22.6905 57.0195L19.807 56.1916L19.8032 56.2048L19.7995 56.2181L22.6905 57.0195ZM26.8038 49.0868L29.0318 51.0957L29.04 51.0867L29.048 51.0777L26.8038 49.0868ZM33.3654 43.5535L31.7574 41.0209L31.7478 41.0269L31.7383 41.0331L33.3654 43.5535ZM38.8498 39.5871L40.7749 41.8879L40.7793 41.8842L38.8498 39.5871ZM42.7182 35.1801L40.1505 33.6287L40.1504 33.6287L42.7182 35.1801ZM38.9967 21.3712L37.6109 24.032L37.6438 24.0491L37.6771 24.0654L38.9967 21.3712ZM28.3218 21.4692L26.9393 18.8067L26.9287 18.8122L26.9181 18.8178L28.3218 21.4692ZM24.2085 25.2397L21.7047 23.5871L21.7007 23.5932L21.6967 23.5993L24.2085 25.2397ZM22.5926 31.0668V34.0668H25.55L25.5923 31.1096L22.5926 31.0668ZM0.0675351 31.0668L-2.93216 31.0239L-2.97563 34.0668H0.0675351V31.0668ZM4.81738 14.222L2.37002 12.4869L2.3657 12.493L2.36141 12.4991L4.81738 14.222ZM17.1082 4.52642L18.2469 7.30193L18.2545 7.29881L18.2621 7.29565L17.1082 4.52642ZM51.8751 4.47745L50.7609 7.26289L50.7669 7.26527L51.8751 4.47745ZM64.2639 13.7323L66.68 11.954L66.68 11.954L64.2639 13.7323ZM61.3258 46.8833L63.4166 49.0347L63.4171 49.0343L61.3258 46.8833ZM53.1483 53.0532L54.6663 55.6408L54.6731 55.6368L54.6799 55.6328L53.1483 53.0532ZM47.0273 57.5582L44.9497 55.394L44.9388 55.4045L44.928 55.4151L47.0273 57.5582ZM43.4037 62.9446L46.1797 64.0823L46.1829 64.0744L46.1861 64.0665L43.4037 62.9446ZM42.1796 72.2974V75.2974H45.1796V72.2974H42.1796ZM23.0822 100.699L20.9609 102.82L20.9679 102.827L20.9748 102.834L23.0822 100.699ZM19.4097 91.6885L22.4096 91.7163L22.4098 91.6883L22.4096 91.6602L19.4097 91.6885ZM23.0822 82.8254L25.1895 84.9607L25.1897 84.9605L23.0822 82.8254ZM41.0043 82.8254L38.9107 84.9741L38.9179 84.981L38.925 84.9879L41.0043 82.8254ZM44.8728 91.6885L47.8725 91.7302L47.873 91.6952L47.8726 91.6602L44.8728 91.6885ZM43.012 98.1033L40.4704 96.5094L40.4607 96.525L40.4511 96.5407L43.012 98.1033ZM38.3601 102.706L36.8295 100.126L36.8198 100.132L36.8101 100.138L38.3601 102.706ZM24.3194 72.2974V70.2897H18.3194V72.2974H24.3194ZM24.3194 70.2897C24.3194 64.8653 24.7704 60.7465 25.5815 57.821L19.7995 56.2181C18.7825 59.8868 18.3194 64.6149 18.3194 70.2897H24.3194ZM25.574 57.8475C26.4289 54.8702 27.6148 52.6673 29.0318 51.0957L24.5757 47.0779C22.4018 49.489 20.8455 52.5747 19.807 56.1916L25.574 57.8475ZM29.048 51.0777C30.6404 49.2826 32.6122 47.6106 34.9925 46.0739L31.7383 41.0331C28.9607 42.8262 26.5581 44.843 24.5595 47.096L29.048 51.0777ZM34.9734 46.0861C37.1229 44.7214 39.0598 43.3231 40.7749 41.8879L36.9246 37.2863C35.4406 38.5281 33.7212 39.774 31.7574 41.0209L34.9734 46.0861ZM40.7793 41.8842C42.6232 40.3354 44.1435 38.6224 45.2859 36.7314L40.1504 33.6287C39.3995 34.8717 38.3408 36.0967 36.9202 37.29L40.7793 41.8842ZM45.2859 36.7314C46.54 34.6557 47.1383 32.3312 47.1383 29.8426H41.1383C41.1383 31.3367 40.7898 32.5705 40.1505 33.6287L45.2859 36.7314ZM47.1383 29.8426C47.1383 27.4217 46.5571 25.1624 45.3143 23.1651L40.22 26.3349C40.8054 27.2757 41.1383 28.4114 41.1383 29.8426H47.1383ZM45.3143 23.1651C44.0941 21.2039 42.4053 19.7002 40.3163 18.677L37.6771 24.0654C38.7873 24.6092 39.6122 25.358 40.22 26.3349L45.3143 23.1651ZM40.3825 18.7105C38.3498 17.6518 36.1213 17.147 33.7572 17.147V23.147C35.2451 23.147 36.5096 23.4584 37.6109 24.032L40.3825 18.7105ZM33.7572 17.147C31.3534 17.147 29.067 17.7019 26.9393 18.8067L29.7042 24.1317C30.9716 23.4736 32.3088 23.147 33.7572 23.147V17.147ZM26.9181 18.8178C24.7912 19.9438 23.0481 21.5516 21.7047 23.5871L26.7123 26.8922C27.5234 25.6632 28.5225 24.7574 29.7254 24.1205L26.9181 18.8178ZM21.6967 23.5993C20.2851 25.7607 19.632 28.2835 19.5929 31.0239L25.5923 31.1096C25.6184 29.2798 26.0426 27.9178 26.7203 26.88L21.6967 23.5993ZM22.5926 28.0668H0.0675351V34.0668H22.5926V28.0668ZM3.06723 31.1096C3.15899 24.6865 4.63642 19.7039 7.27335 15.9448L2.36141 12.4991C-1.13892 17.489 -2.82805 23.7362 -2.93216 31.0239L3.06723 31.1096ZM7.26473 15.957C10.0281 12.0593 13.6655 9.18146 18.2469 7.30193L15.9695 1.75092C10.3657 4.04995 5.80921 7.63585 2.37002 12.4869L7.26473 15.957ZM18.2621 7.29565C22.9501 5.34232 28.1673 4.34354 33.953 4.34354V-1.65646C27.4643 -1.65646 21.4516 -0.533322 15.9544 1.75719L18.2621 7.29565ZM33.953 4.34354C40.3692 4.34354 45.954 5.34013 50.7609 7.26289L52.9893 1.69202C47.3498 -0.563771 40.9866 -1.65646 33.953 -1.65646V4.34354ZM50.7669 7.26527C55.5634 9.17195 59.2151 11.9336 61.8477 15.5106L66.68 11.954C63.306 7.36982 58.6985 3.96153 52.9833 1.68964L50.7669 7.26527ZM61.8477 15.5106C64.4114 18.9938 65.7689 23.3374 65.7689 28.7164H71.7689C71.7689 22.2778 70.1231 16.6321 66.68 11.954L61.8477 15.5106ZM65.7689 28.7164C65.7689 32.266 65.1727 35.2695 64.0638 37.7923L69.5566 40.2067C71.0592 36.7882 71.7689 32.9362 71.7689 28.7164H65.7689ZM64.0638 37.7923C62.9152 40.4055 61.3108 42.7138 59.2346 44.7323L63.4171 49.0343C66.0417 46.4825 68.0936 43.535 69.5566 40.2067L64.0638 37.7923ZM59.235 44.7319C57.1061 46.8009 54.5733 48.7181 51.6167 50.4736L54.6799 55.6328C57.9911 53.6667 60.91 51.4707 63.4166 49.0347L59.235 44.7319ZM51.6302 50.4656C49.0282 51.9921 46.7877 53.6295 44.9497 55.394L49.1049 59.7224C50.5314 58.3529 52.3716 56.987 54.6663 55.6408L51.6302 50.4656ZM44.928 55.4151C43.0406 57.264 41.5964 59.4047 40.6214 61.8227L46.1861 64.0665C46.8433 62.4365 47.8148 60.9863 49.1267 59.7013L44.928 55.4151ZM40.6278 61.8069C39.6218 64.2617 39.1796 67.1226 39.1796 70.2897H45.1796C45.1796 67.6461 45.5535 65.6102 46.1797 64.0823L40.6278 61.8069ZM39.1796 70.2897V72.2974H45.1796V70.2897H39.1796ZM42.1796 69.2974H21.3194V75.2974H42.1796V69.2974ZM32.1412 101.42C29.406 101.42 27.143 100.491 25.1897 98.5634L20.9748 102.834C24.0488 105.868 27.8252 107.42 32.1412 107.42V101.42ZM25.2036 98.5772C23.2951 96.6687 22.3843 94.4411 22.4096 91.7163L16.4098 91.6607C16.3698 95.9872 17.9074 99.7663 20.9609 102.82L25.2036 98.5772ZM22.4096 91.6602C22.3846 89.0188 23.2819 86.8432 25.1895 84.9607L20.975 80.6901C17.9205 83.7044 16.3694 87.4375 16.4098 91.7168L22.4096 91.6602ZM25.1897 84.9605C27.143 83.0326 29.406 82.1039 32.1412 82.1039V76.1039C27.8252 76.1039 24.0488 77.6562 20.9748 80.6903L25.1897 84.9605ZM32.1412 82.1039C34.6733 82.1039 36.8891 83.0043 38.9107 84.9741L43.0979 80.6767C40.0269 77.6845 36.334 76.1039 32.1412 76.1039V82.1039ZM38.925 84.9879C40.9037 86.8905 41.848 89.0813 41.8729 91.7168L47.8726 91.6602C47.8322 87.375 46.1975 83.657 43.0837 80.6629L38.925 84.9879ZM41.8731 91.6469C41.8478 93.4673 41.376 95.0653 40.4704 96.5094L45.5536 99.6971C47.0637 97.2891 47.8325 94.6106 47.8725 91.7302L41.8731 91.6469ZM40.4511 96.5407C39.5291 98.0518 38.3309 99.2354 36.8295 100.126L39.8907 105.286C42.2414 103.892 44.1445 102.007 45.5729 99.6658L40.4511 96.5407ZM36.8101 100.138C35.3935 100.992 33.8581 101.42 32.1412 101.42V107.42C34.9294 107.42 37.5399 106.705 39.9101 105.275L36.8101 100.138Z" fill="#0F223C"/>
</svg>
