<svg width="62" height="62" viewBox="0 0 62 62" fill="none" xmlns="http://www.w3.org/2000/svg">
<path d="M15.92 43.76H46.08V60H15.92V43.76ZM31 34.48V43.76V34.48ZM15.92 2C8.96 2 2 4.32 2 12.44C2 20.56 8.96 22.88 15.92 22.88M46.08 2C53.04 2 60 4.32 60 12.44C60 20.56 53.04 22.88 46.08 22.88M15.92 2H46.08V18.24C46.08 25.2 41.44 32.16 31 32.16C20.56 32.16 15.92 25.2 15.92 18.24V2Z" fill="#E4C76A"/>
<path d="M31 34.48V43.76M15.92 2C8.96 2 2 4.32 2 12.44C2 20.56 8.96 22.88 15.92 22.88M46.08 2C53.04 2 60 4.32 60 12.44C60 20.56 53.04 22.88 46.08 22.88M15.92 43.76H46.08V60H15.92V43.76ZM15.92 2H46.08V18.24C46.08 25.2 41.44 32.16 31 32.16C20.56 32.16 15.92 25.2 15.92 18.24V2Z" stroke="#0F223C" stroke-width="3" stroke-linecap="round" stroke-linejoin="round"/>
</svg>
