<svg width="126" height="164" viewBox="0 0 126 164" fill="none" xmlns="http://www.w3.org/2000/svg">
<path d="M3.0918 92.8371L51.4005 66.6357L123.727 78.9176L78.6936 107.029L3.0918 92.8371Z" fill="#A58E5C"/>
<path d="M2 148.241V93.6553L78.1476 107.302V162.161L2 148.241Z" fill="#6B5238"/>
<path d="M78.4204 162.434V107.302L124 79.1904V134.868L78.4204 162.434Z" fill="#8A6F47"/>
<path d="M89.8837 73.1461L46.4877 101.213V118.765L32.5682 116.582V98.6778L76.5101 70.8836L89.8837 73.1461Z" fill="#0F223C"/>
<path d="M2 93.11V148.242L78.4206 162.434M2 93.11L51.4004 66.6357L76.5101 70.8836M2 93.11L32.5682 98.6778M78.4206 162.434V107.029M78.4206 162.434L124 134.595V78.9176M78.4206 107.029L124 78.9176M78.4206 107.029L46.4877 101.213M124 78.9176L89.8837 73.1461M46.4877 101.213L89.8837 73.1461M46.4877 101.213V118.765L32.5682 116.582V98.6778M46.4877 101.213L39.528 99.9455L32.5682 98.6778M89.8837 73.1461L76.5101 70.8836M76.5101 70.8836L32.5682 98.6778" stroke="#0F223C" stroke-width="2.60164"/>
<path d="M83.3818 154.311V141.69L93.7532 135.317V148L83.3818 154.311Z" stroke="#0F223C" stroke-width="2.60164"/>
<path d="M18.9683 50.52L54.7999 31.0859L108.446 40.1957L75.0438 61.0469L18.9683 50.52Z" fill="#A58E5C"/>
<path d="M18.1587 91.6147V51.127L74.6391 61.2489V101.939L18.1587 91.6147Z" fill="#6B5238"/>
<path d="M74.8413 102.141V61.2486L108.649 40.3975V81.6949L74.8413 102.141Z" fill="#8A6F47"/>
<path d="M83.3439 35.9148L51.1562 56.7327V69.7517L40.8318 68.1322V54.8522L73.4244 34.2367L83.3439 35.9148Z" fill="#0F223C"/>
<path d="M18.1587 50.7225V91.6151L74.8415 102.142M18.1587 50.7225L54.8001 31.0859L73.4244 34.2367M18.1587 50.7225L40.8318 54.8522M74.8415 102.142V61.0469M74.8415 102.142L108.649 81.4932V40.1957M74.8415 61.0469L108.649 40.1957M74.8415 61.0469L51.1562 56.7327M108.649 40.1957L83.3439 35.9148M51.1562 56.7327L83.3439 35.9148M51.1562 56.7327V69.7517L40.8318 68.1322V54.8522M51.1562 56.7327L45.994 55.7925L40.8318 54.8522M83.3439 35.9148L73.4244 34.2367M73.4244 34.2367L40.8318 54.8522" stroke="#0F223C" stroke-width="2.60164"/>
<path d="M79.6123 93.9345V84.5735L87.305 79.8467V89.254L79.6123 93.9345Z" stroke="#0F223C" stroke-width="2.60164"/>
<path d="M29.2764 16.7501L56.47 2.00098L97.1837 8.91462L71.8337 24.7392L29.2764 16.7501Z" fill="#A58E5C"/>
<path d="M28.6621 47.9382V17.2109L71.5267 24.8928V55.7737L28.6621 47.9382Z" fill="#6B5238"/>
<path d="M71.6802 55.9275V24.8929L97.3375 9.06836V40.4102L71.6802 55.9275Z" fill="#8A6F47"/>
<path d="M78.1331 5.66573L53.7049 21.4651V31.3455L45.8694 30.1165V20.0379L70.6049 4.39216L78.1331 5.66573Z" fill="#0F223C"/>
<path d="M28.6621 16.9037V47.9383L71.6803 55.9274M28.6621 16.9037L56.4703 2.00098L70.6049 4.39216M28.6621 16.9037L45.8694 20.0379M71.6803 55.9274V24.7392M71.6803 55.9274L97.3376 40.2565V8.91462M71.6803 24.7392L97.3376 8.91462M71.6803 24.7392L53.7049 21.4651M97.3376 8.91462L78.1331 5.66573M53.7049 21.4651L78.1331 5.66573M53.7049 21.4651V31.3455L45.8694 30.1165V20.0379M53.7049 21.4651L49.7871 20.7515L45.8694 20.0379M78.1331 5.66573L70.6049 4.39216M70.6049 4.39216L45.8694 20.0379" stroke="#0F223C" stroke-width="2.60164"/>
<path d="M76.5864 47.9953V40.891L82.4246 37.3037V44.4432L76.5864 47.9953Z" stroke="#0F223C" stroke-width="2.60164"/>
</svg>
